<?xml version="1.0" standalone="no"?>
<!DOCTYPE svg PUBLIC "-//W3C//DTD SVG 1.1//EN" "http://www.w3.org/Graphics/SVG/1.1/DTD/svg11.dtd" >
<svg>
<metadata>
Created by FontForge 20090914 at Thu Jun 15 10:23:50 2017
 By www-data
&#194;&#169; 2009 Microsoft Corporation. All Rights Reserved.
</metadata>
<defs>
<font id="Constantia-Bold" horiz-adv-x="0" >
  <font-face 
    font-family="Constantia"
    font-weight="700"
    font-stretch="normal"
    units-per-em="2048"
    panose-1="2 3 7 2 6 3 6 3 3 3"
    ascent="1538"
    descent="-510"
    x-height="931.997"
    cap-height="1400"
    bbox="-976 -514.999 2696.99 2109"
    underline-thickness="102"
    underline-position="-103"
    unicode-range="U+0009-U+FB04"
  />
<missing-glyph horiz-adv-x="995" 
d="M995 1396v-1396h-995v1396h995zM898 98v1201h-800v-1201h800zM437 455l-1.99902 33c0 88.667 13.667 151 41 187s51.666 64 72.999 84c40.667 41.333 66.834 72.666 78.501 93.999s17.5 45.666 17.5 72.999c0 50 -14.833 89.5 -44.5 118.5s-63.834 43.5 -102.501 43.5
c-41.333 0 -76.5 -14.167 -105.5 -42.5s-47.5 -75.5 -55.5 -141.5l-96 15c10 90.667 39 157.834 87 201.501s106.333 65.5 175 65.5c69.333 0 127 -22 173 -66s69 -105.667 69 -185c0 -44 -8 -82.333 -24 -115s-48.333 -72.667 -97 -120
c-48.667 -43.333 -77.167 -78.666 -85.5 -105.999s-12.5 -72 -12.5 -134zM416.001 291c0 19.333 6.66699 35.833 20 49.5s29.666 20.5 48.999 20.5s35.833 -6.83301 49.5 -20.5s20.5 -30.167 20.5 -49.5c0 -20 -6.83301 -36.5 -20.5 -49.5s-30.167 -19.5 -49.5 -19.5
s-35.666 6.5 -48.999 19.5s-20 29.5 -20 49.5z" />
    <glyph glyph-name="uniFB00" unicode="ff" horiz-adv-x="1430" 
d="M1188 813l-0.00195312 -530.995c0 -62.667 0.666992 -117.334 2 -164.001c1.33301 -18.667 10 -30.334 26 -35.001l137 -38l3 -48c-107.333 2 -209.666 3 -306.999 3c-99.333 0 -197.333 -1 -294 -3l-5 48l123 33c18.667 5.33301 28.334 16 29.001 32
c2 41.333 3 85 3 131v572h-422v-531c0 -62.667 0.666992 -117.334 2 -164.001c1.33301 -18.667 10 -30.334 26 -35.001l137 -38l3 -48c-107.333 2 -209.666 3 -306.999 3c-99.333 0 -197.333 -1 -294 -3l-5 48l123 33c18.667 5.33301 28.334 16 29.001 32
c2 41.333 3 85 3 131v577l-146 32l-9 54l156 13c0 176.667 42.167 316.667 126.5 420s201.5 155 351.5 155c79.333 0 151.666 -9.33301 216.999 -28c-21.333 -94 -39 -188.333 -53 -283l-55 -11l-62 224c-10 2 -21.667 3 -35 3c-70 0 -122.167 -33.167 -156.5 -99.5
s-51.5 -188.5 -51.5 -366.5v-12h423c0 185.333 42.167 329.666 126.5 432.999s201.5 155 351.5 155c79.333 0 151.666 -9.33301 216.999 -28c-21.333 -94 -39 -188.333 -53 -283l-55 -11l-62 224c-10 2 -21.667 3 -35 3c-70 0 -122.167 -33.167 -156.5 -99.5
s-51.5 -188.5 -51.5 -366.5v-27h242v-106h-242z" />
    <glyph glyph-name="uniFB01" unicode="fi" horiz-adv-x="1384" 
d="M483 813l0.000976562 -533.998c0 -62.667 0.666992 -117.334 2 -164.001c1.33301 -18.667 10 -30.334 26 -35.001l122 -35l3 -48c-97.333 2 -194.666 3 -291.999 3c-99.333 0 -197.333 -1 -294 -3l-5 48l123 33c18.667 5.33301 28.334 16 29.001 32c2 41.333 3 85 3 131
v577l-146 32l-9 54l156 13c0 186.667 50.333 331.667 151 435s250 155 448 155c115.333 0 214.666 -10.333 297.999 -31c-26 -92.667 -47.667 -186 -65 -280l-60 -11l-67 217c-17.333 4.66699 -41 7 -71 7c-128.667 0 -219.5 -32.167 -272.5 -96.5
s-79.5 -186.5 -79.5 -366.5v-27h497c73.333 13.333 141.333 26.666 204 39.999l11 -8c-4 -92 -6 -190 -6 -294v-377c0 -79.333 0.666992 -134.666 2 -165.999c1.33301 -18 9.66602 -29.333 24.999 -34l125 -35l3 -48c-98.667 2 -196.667 3 -294 3
c-99.333 0 -195.333 -1 -288 -3l-5 48l121 33c15.333 4 23.666 14 24.999 30c1.33301 26 2 69.667 2 131v574h-422z" />
    <glyph glyph-name="uniFB02" unicode="fl" horiz-adv-x="1389" 
d="M1200 1499c-4 -99.333 -6.00098 -248.332 -6.00098 -446.999v-772c0 -79.333 0.666992 -134.666 2 -165.999c1.33301 -18 9.66602 -29.333 24.999 -34l125 -35l3 -48c-98.667 2 -196.667 3 -294 3c-99.333 0 -197.333 -1 -294 -3l-5 48l127 35
c15.333 4 23.666 14 24.999 30c1.33301 26 2 69.667 2 131v709c0 146 -1.33301 295 -4 447c-35.333 8 -72.666 12 -111.999 12c-104 0 -181.833 -32.667 -233.5 -98s-77.5 -187 -77.5 -365v-27h252v-109h-252v-528c0 -62.667 0.666992 -117.334 2 -164.001
c1.33301 -18.667 10 -30.334 26 -35.001l137 -38l3 -48c-107.333 2 -209.666 3 -306.999 3c-99.333 0 -197.333 -1 -294 -3l-5 48l123 33c18.667 5.33301 28.334 16 29.001 32c2 41.333 3 85 3 131v574l-146 35l-9 54l156 13c0 186.667 47.5 331.667 142.5 435
s239.167 155 432.5 155c100.667 0 187 -10.333 259 -31c54 10 105.333 20.333 154 31z" />
    <glyph glyph-name="uniFB03" unicode="ffi" horiz-adv-x="2089" 
d="M1188 813v-533.995c0 -62.667 0.666992 -117.334 2 -164.001c1.33301 -18.667 10 -30.334 26 -35.001l122 -35l3 -48c-97.333 2 -194.666 3 -291.999 3c-99.333 0 -197.333 -1 -294 -3l-5 48l123 33c18.667 5.33301 28.334 16 29.001 32c2 41.333 3 85 3 131v572h-422
v-531c0 -62.667 0.666992 -117.334 2 -164.001c1.33301 -18.667 10 -30.334 26 -35.001l137 -38l3 -48c-107.333 2 -209.666 3 -306.999 3c-99.333 0 -197.333 -1 -294 -3l-5 48l123 33c18.667 5.33301 28.334 16 29.001 32c2 41.333 3 85 3 131v577l-146 32l-9 54l156 13
c0 176.667 42.167 316.667 126.5 420s201.5 155 351.5 155c79.333 0 151.666 -9.33301 216.999 -28c-21.333 -94 -39 -188.333 -53 -283l-55 -11l-62 224c-10 2 -21.667 3 -35 3c-70 0 -122.167 -33.167 -156.5 -99.5s-51.5 -188.5 -51.5 -366.5v-12h423
c0 185.333 50.333 329.666 151 432.999s250 155 448 155c115.333 0 214.666 -10.333 297.999 -31c-26 -92.667 -47.667 -186 -65 -280l-60 -11l-67 217c-17.333 4.66699 -41 7 -71 7c-128.667 0 -219.5 -32.167 -272.5 -96.5s-79.5 -186.5 -79.5 -366.5v-27h497
c73.333 13.333 141.333 26.666 204 39.999l11 -8c-4 -92 -6 -190 -6 -294v-377c0 -79.333 0.666992 -134.666 2 -165.999c1.33301 -18 9.66602 -29.333 24.999 -34l125 -35l3 -48c-98.667 2 -196.667 3 -294 3c-99.333 0 -195.333 -1 -288 -3l-5 48l121 33
c15.333 4 23.666 14 24.999 30c1.33301 26 2 69.667 2 131v574h-422z" />
    <glyph glyph-name="uniFB04" unicode="ffl" horiz-adv-x="2094" 
d="M1905 1499c-4 -99.333 -6.00195 -248.329 -6.00195 -446.996v-772c0 -79.333 0.666992 -134.666 2 -165.999c1.33301 -18 9.66602 -29.333 24.999 -34l125 -35l3 -48c-98.667 2 -196.667 3 -294 3c-99.333 0 -197.333 -1 -294 -3l-5 48l127 35
c15.333 4 23.666 14 24.999 30c1.33301 26 2 69.667 2 131v709c0 146 -1.33301 295 -4 447c-35.333 8 -72.666 12 -111.999 12c-104 0 -181.833 -32.667 -233.5 -98s-77.5 -187 -77.5 -365v-27h252v-109h-252v-528c0 -62.667 0.666992 -117.334 2 -164.001
c1.33301 -18.667 10 -30.334 26 -35.001l137 -38l3 -48c-107.333 2 -209.666 3 -306.999 3c-99.333 0 -197.333 -1 -294 -3l-5 48l123 33c18.667 5.33301 28.334 16 29.001 32c2 41.333 3 85 3 131v572h-422v-531c0 -62.667 0.666992 -117.334 2 -164.001
c1.33301 -18.667 10 -30.334 26 -35.001l137 -38l3 -48c-107.333 2 -209.666 3 -306.999 3c-99.333 0 -197.333 -1 -294 -3l-5 48l123 33c18.667 5.33301 28.334 16 29.001 32c2 41.333 3 85 3 131v577l-146 32l-9 54l156 13c0 176.667 42.167 316.667 126.5 420
s201.5 155 351.5 155c79.333 0 151.666 -9.33301 216.999 -28c-21.333 -94 -39 -188.333 -53 -283l-55 -11l-62 224c-10 2 -21.667 3 -35 3c-70 0 -122.167 -33.167 -156.5 -99.5s-51.5 -188.5 -51.5 -366.5v-12h423c0 185.333 47.5 329.666 142.5 432.999
s239.167 155 432.5 155c100.667 0 187 -10.333 259 -31c54 10 105.333 20.333 154 31z" />
    <glyph glyph-name="f_b.liga" unicode="fb" horiz-adv-x="1982" 
d="M1200 1499c-4 -99.333 -6.00293 -248.33 -6.00293 -446.997v-191c102 62.667 201.333 94 298 94c126.667 0 226.834 -42.167 300.501 -126.5s110.5 -194.5 110.5 -330.5c0 -166 -52.5 -295 -157.5 -387s-250.5 -138 -436.5 -138c-116.667 0 -250.334 21.667 -401.001 65
c1.33301 79.333 2 185.666 2 318.999v593c0 146 -1.33301 295 -4 447c-35.333 8 -72.666 12 -111.999 12c-104 0 -181.833 -32.667 -233.5 -98s-77.5 -187 -77.5 -365v-27h252v-109h-252v-528c0 -62.667 0.666992 -117.334 2 -164.001
c1.33301 -18.667 10 -30.334 26 -35.001l137 -38l3 -48c-107.333 2 -209.666 3 -306.999 3c-99.333 0 -197.333 -1 -294 -3l-5 48l123 33c18.667 5.33301 28.334 16 29.001 32c2 41.333 3 85 3 131v574l-146 35l-9 54l156 13c0 186.667 47.5 331.667 142.5 435
s239.167 155 432.5 155c100.667 0 187 -10.333 259 -31c54 10 105.333 20.333 154 31zM1194 90.0029c44 -12 88 -17.999 132 -17.999c90.667 0 158.5 33.5 203.5 100.5s67.5 162.5 67.5 286.5c0 113.333 -21 201.666 -63 264.999s-104 95 -186 95
c-52 0 -103.333 -11 -154 -33v-696z" />
    <glyph glyph-name="f_f_b.liga" unicode="ffb" horiz-adv-x="2687" 
d="M1905 1499c-4 -99.333 -6.00391 -248.327 -6.00391 -446.994v-191c102 62.667 201.333 94 298 94c126.667 0 226.834 -42.167 300.501 -126.5s110.5 -194.5 110.5 -330.5c0 -166 -52.5 -295 -157.5 -387s-250.5 -138 -436.5 -138c-116.667 0 -250.334 21.667 -401.001 65
c1.33301 79.333 2 185.666 2 318.999v593c0 146 -1.33301 295 -4 447c-35.333 8 -72.666 12 -111.999 12c-104 0 -181.833 -32.667 -233.5 -98s-77.5 -187 -77.5 -365v-27h252v-106h-252v-531c0 -62.667 0.666992 -117.334 2 -164.001
c1.33301 -18.667 10 -30.334 26 -35.001l137 -38l3 -48c-107.333 2 -209.666 3 -306.999 3c-99.333 0 -197.333 -1 -294 -3l-5 48l123 33c18.667 5.33301 28.334 16 29.001 32c2 41.333 3 85 3 131v572h-422v-531c0 -62.667 0.666992 -117.334 2 -164.001
c1.33301 -18.667 10 -30.334 26 -35.001l137 -38l3 -48c-107.333 2 -209.666 3 -306.999 3c-99.333 0 -197.333 -1 -294 -3l-5 48l123 33c18.667 5.33301 28.334 16 29.001 32c2 41.333 3 85 3 131v577l-146 32l-9 54l156 13c0 176.667 42.167 316.667 126.5 420
s201.5 155 351.5 155c79.333 0 151.666 -9.33301 216.999 -28c-21.333 -94 -39 -188.333 -53 -283l-55 -11l-62 224c-10 2 -21.667 3 -35 3c-70 0 -122.167 -33.167 -156.5 -99.5s-51.5 -188.5 -51.5 -366.5v-12h423c0 185.333 47.5 329.666 142.5 432.999
s239.167 155 432.5 155c100.667 0 187 -10.333 259 -31c54 10 105.333 20.333 154 31zM1899 90.0059c44 -12 88 -17.999 132 -17.999c90.667 0 158.5 33.5 203.5 100.5s67.5 162.5 67.5 286.5c0 113.333 -21 201.666 -63 264.999s-104 95 -186 95
c-52 0 -103.333 -11 -154 -33v-696z" />
    <glyph glyph-name="f_h.liga" unicode="fh" horiz-adv-x="2020" 
d="M1200 1499c-4 -99.333 -6.00391 -248.332 -6.00391 -446.999v-198c112.667 67.333 224 101 334 101c97.333 0 173.666 -26.5 228.999 -79.5s83 -128.167 83 -225.5v-351c0 -83.333 0.666992 -145 2 -185c0.666992 -18 9.33398 -29.333 26.001 -34l121 -35l3 -48
c-95.333 2 -191.333 3 -288 3c-100 0 -190 -1 -270 -3l-4 48l100 30c15.333 4.66699 23.666 14.667 24.999 30c0.666992 10 1 31 1 63v419c0 82 -16 140.833 -48 176.5s-79.667 53.5 -143 53.5c-55.333 0 -112.333 -12.667 -171 -38v-440
c0 -83.333 0.666992 -159.666 2 -228.999c0.666992 -18 8.33398 -29 23.001 -33l104 -32l2 -48c-82.667 2 -172.667 3 -270 3c-99.333 0 -197 -1 -293 -3l-5 48l129 35c14.667 4 22.334 14 23.001 30c0.666992 42.667 1 83.667 1 123v717c0 146 -1.33301 295 -4 447
c-35.333 8 -72.666 12 -111.999 12c-104 0 -181.833 -32.667 -233.5 -98s-77.5 -187 -77.5 -365v-27h252v-109h-252v-528c0 -62.667 0.666992 -117.334 2 -164.001c1.33301 -18.667 10 -30.334 26 -35.001l137 -38l3 -48c-107.333 2 -209.666 3 -306.999 3
c-99.333 0 -197.333 -1 -294 -3l-5 48l123 33c18.667 5.33301 28.334 16 29.001 32c2 41.333 3 85 3 131v574l-146 35l-9 54l156 13c0 186.667 47.5 331.667 142.5 435s239.167 155 432.5 155c100.667 0 187 -10.333 259 -31c54 10 105.333 20.333 154 31z" />
    <glyph glyph-name="f_f_h.liga" unicode="ffh" horiz-adv-x="2725" 
d="M1905 1499c-4 -99.333 -6.00586 -248.329 -6.00586 -446.996v-198c112.667 67.333 224 101 334 101c97.333 0 173.666 -26.5 229 -79.5c55.333 -53 83 -128.167 83 -225.5v-351c0 -83.333 0.666992 -145 2 -185c0.666992 -18 9.33398 -29.333 26 -34l121 -35l3 -48
c-95.333 2 -191.333 3 -288 3c-100 0 -190 -1 -270 -3l-4 48l100 30c15.333 4.66699 23.666 14.667 25 30c0.666992 10 1 31 1 63v419c0 82 -16 140.833 -48 176.5s-79.667 53.5 -143 53.5c-55.333 0 -112.333 -12.667 -171 -38v-440
c0 -83.333 0.666992 -159.666 2 -228.999c0.666992 -18 8.33398 -29 23.001 -33l104 -32l2 -48c-82.667 2 -172.667 3 -270 3c-99.333 0 -197 -1 -293 -3l-5 48l129 35c14.667 4 22.334 14 23.001 30c0.666992 42.667 1 83.667 1 123v717c0 146 -1.33301 295 -4 447
c-35.333 8 -72.666 12 -111.999 12c-104 0 -181.833 -32.667 -233.5 -98s-77.5 -187 -77.5 -365v-27h252v-106h-252v-531c0 -62.667 0.666992 -117.334 2 -164.001c1.33301 -18.667 10 -30.334 26 -35.001l137 -38l3 -48c-107.333 2 -209.666 3 -306.999 3
c-99.333 0 -197.333 -1 -294 -3l-5 48l123 33c18.667 5.33301 28.334 16 29.001 32c2 41.333 3 85 3 131v572h-422v-531c0 -62.667 0.666992 -117.334 2 -164.001c1.33301 -18.667 10 -30.334 26 -35.001l137 -38l3 -48c-107.333 2 -209.666 3 -306.999 3
c-99.333 0 -197.333 -1 -294 -3l-5 48l123 33c18.667 5.33301 28.334 16 29.001 32c2 41.333 3 85 3 131v577l-146 32l-9 54l156 13c0 176.667 42.167 316.667 126.5 420s201.5 155 351.5 155c79.333 0 151.666 -9.33301 216.999 -28c-21.333 -94 -39 -188.333 -53 -283
l-55 -11l-62 224c-10 2 -21.667 3 -35 3c-70 0 -122.167 -33.167 -156.5 -99.5s-51.5 -188.5 -51.5 -366.5v-12h423c0 185.333 47.5 329.666 142.5 432.999s239.167 155 432.5 155c100.667 0 187 -10.333 259 -31c54 10 105.333 20.333 154 31z" />
    <glyph glyph-name="f_j.liga" unicode="fj" horiz-adv-x="1364" 
d="M483 813l-0.00195312 -533.997c0 -62.667 0.666992 -117.334 2 -164.001c1.33301 -18.667 10 -30.334 26 -35.001l122 -35l3 -48c-97.333 2 -194.666 3 -291.999 3c-99.333 0 -197.333 -1 -294 -3l-5 48l123 33c18.667 5.33301 28.334 16 29.001 32c2 41.333 3 85 3 131
v577l-146 32l-9 54l156 13c0 186.667 50.333 331.667 151 435s250 155 448 155c115.333 0 214.666 -10.333 297.999 -31c-26 -92.667 -47.667 -186 -65 -280l-60 -11l-67 217c-17.333 4.66699 -41 7 -71 7c-128.667 0 -219.5 -32.167 -272.5 -96.5
s-79.5 -186.5 -79.5 -366.5v-27h497c72.667 12.667 140.334 26 203.001 40l12 -8c-4 -86.667 -6 -181.667 -6 -285v-535c0 -133.333 -36 -244.333 -108 -333s-177 -189.334 -315 -302.001l-57 49c93.333 125.333 149.333 219 168 281s28 148 28 258v729h-422z" />
    <glyph glyph-name="f_f_j.liga" unicode="ffj" horiz-adv-x="2069" 
d="M1188 813l-0.00292969 -533.994c0 -62.667 0.666992 -117.334 2 -164.001c1.33301 -18.667 10 -30.334 26 -35.001l122 -35l3 -48c-97.333 2 -194.666 3 -291.999 3c-99.333 0 -197.333 -1 -294 -3l-5 48l123 33c18.667 5.33301 28.334 16 29.001 32c2 41.333 3 85 3 131
v572h-422v-531c0 -62.667 0.666992 -117.334 2 -164.001c1.33301 -18.667 10 -30.334 26 -35.001l137 -38l3 -48c-107.333 2 -209.666 3 -306.999 3c-99.333 0 -197.333 -1 -294 -3l-5 48l123 33c18.667 5.33301 28.334 16 29.001 32c2 41.333 3 85 3 131v577l-146 32l-9 54
l156 13c0 176.667 42.167 316.667 126.5 420s201.5 155 351.5 155c79.333 0 151.666 -9.33301 216.999 -28c-21.333 -94 -39 -188.333 -53 -283l-55 -11l-62 224c-10 2 -21.667 3 -35 3c-70 0 -122.167 -33.167 -156.5 -99.5s-51.5 -188.5 -51.5 -366.5v-12h423
c0 185.333 50.333 329.666 151 432.999s250 155 448 155c115.333 0 214.666 -10.333 297.999 -31c-26 -92.667 -47.667 -186 -65 -280l-60 -11l-67 217c-17.333 4.66699 -41 7 -71 7c-128.667 0 -219.5 -32.167 -272.5 -96.5s-79.5 -186.5 -79.5 -366.5v-27h497
c72.667 12.667 140.334 26 203.001 40l12 -8c-4 -86.667 -6 -181.667 -6 -285v-535c0 -133.333 -36 -244.333 -108 -333s-177 -189.334 -315 -302.001l-57 49c93.333 125.333 149.333 219 168 281s28 148 28 258v729h-422z" />
    <glyph glyph-name="f_k.liga" unicode="fk" horiz-adv-x="1963" 
d="M1200 1499c-4 -99.333 -6.00098 -248.332 -6.00098 -446.999v-774c0 -79.333 0.666992 -134.666 2 -165.999c1.33301 -18 9.66602 -29.333 24.999 -34l108 -33l4 -48c-88 2 -180.667 3 -278 3c-99.333 0 -197.333 -1 -294 -3l-5 48l127 35c15.333 4 23.666 14 24.999 30
c1.33301 26 2 69.667 2 131v709c0 146 -1.33301 295 -4 447c-35.333 8 -72.666 12 -111.999 12c-104 0 -181.833 -32.667 -233.5 -98s-77.5 -187 -77.5 -365v-27h252v-109h-252v-528c0 -62.667 0.666992 -117.334 2 -164.001c1.33301 -18.667 10 -30.334 26 -35.001l137 -38
l3 -48c-107.333 2 -209.666 3 -306.999 3c-99.333 0 -197.333 -1 -294 -3l-5 48l123 33c18.667 5.33301 28.334 16 29.001 32c2 41.333 3 85 3 131v574l-146 35l-9 54l156 13c0 186.667 47.5 331.667 142.5 435s239.167 155 432.5 155c100.667 0 187 -10.333 259 -31
c54 10 105.333 20.333 154 31zM1963 -2.99902c-121.333 2 -211.331 3 -269.998 3c-41.333 0 -91.333 -0.666992 -150 -2c-22 38 -48 79.667 -78 125c-76.667 118 -161 237 -253 357l384 376l-110 29l-5 47c81.333 -2 151 -3 209 -3c47.333 0 124.666 1 231.999 3l5 -48
c-82.667 -18.667 -139.5 -36 -170.5 -52s-65.167 -41.333 -102.5 -76l-183 -175l305 -428c21.333 -28.667 41.166 -49.667 59.499 -63s59.5 -28.333 123.5 -45z" />
    <glyph glyph-name="f_f_k.liga" unicode="ffk" horiz-adv-x="2668" 
d="M1905 1499c-4 -99.333 -6.00195 -248.329 -6.00195 -446.996v-774c0 -79.333 0.666992 -134.666 2 -165.999c1.33301 -18 9.66602 -29.333 24.999 -34l108 -33l4 -48c-88 2 -180.667 3 -278 3c-99.333 0 -197.333 -1 -294 -3l-5 48l127 35c15.333 4 23.666 14 24.999 30
c1.33301 26 2 69.667 2 131v709c0 146 -1.33301 295 -4 447c-35.333 8 -72.666 12 -111.999 12c-104 0 -181.833 -32.667 -233.5 -98s-77.5 -187 -77.5 -365v-27h252v-109h-252v-528c0 -62.667 0.666992 -117.334 2 -164.001c1.33301 -18.667 10 -30.334 26 -35.001l137 -38
l3 -48c-107.333 2 -209.666 3 -306.999 3c-99.333 0 -197.333 -1 -294 -3l-5 48l123 33c18.667 5.33301 28.334 16 29.001 32c2 41.333 3 85 3 131v572h-422v-531c0 -62.667 0.666992 -117.334 2 -164.001c1.33301 -18.667 10 -30.334 26 -35.001l137 -38l3 -48
c-107.333 2 -209.666 3 -306.999 3c-99.333 0 -197.333 -1 -294 -3l-5 48l123 33c18.667 5.33301 28.334 16 29.001 32c2 41.333 3 85 3 131v577l-146 32l-9 54l156 13c0 176.667 42.167 316.667 126.5 420s201.5 155 351.5 155c79.333 0 151.666 -9.33301 216.999 -28
c-21.333 -94 -39 -188.333 -53 -283l-55 -11l-62 224c-10 2 -21.667 3 -35 3c-70 0 -122.167 -33.167 -156.5 -99.5s-51.5 -188.5 -51.5 -366.5v-12h423c0 185.333 47.5 329.666 142.5 432.999s239.167 155 432.5 155c100.667 0 187 -10.333 259 -31
c54 10 105.333 20.333 154 31zM2668 -2.99609c-121.333 2 -211.333 3 -270 3c-41.333 0 -91.333 -0.666992 -150 -2c-22 38 -48 79.667 -78 125c-76.667 118 -161 237 -253 357l384 376l-110 29l-5 47c81.333 -2 151 -3 209 -3c47.333 0 124.666 1 232 3l5 -48
c-82.667 -18.667 -139.5 -36 -170.5 -52s-65.167 -41.333 -102.5 -76l-183 -175l305 -428c21.333 -28.667 41.166 -49.667 59.5 -63c18.333 -13.333 59.5 -28.333 123.5 -45z" />
    <glyph glyph-name=".notdef" horiz-adv-x="995" 
d="M995 1396v-1396h-995v1396h995zM898 98v1201h-800v-1201h800zM437 455l-1.99902 33c0 88.667 13.667 151 41 187s51.666 64 72.999 84c40.667 41.333 66.834 72.666 78.501 93.999s17.5 45.666 17.5 72.999c0 50 -14.833 89.5 -44.5 118.5s-63.834 43.5 -102.501 43.5
c-41.333 0 -76.5 -14.167 -105.5 -42.5s-47.5 -75.5 -55.5 -141.5l-96 15c10 90.667 39 157.834 87 201.501s106.333 65.5 175 65.5c69.333 0 127 -22 173 -66s69 -105.667 69 -185c0 -44 -8 -82.333 -24 -115s-48.333 -72.667 -97 -120
c-48.667 -43.333 -77.167 -78.666 -85.5 -105.999s-12.5 -72 -12.5 -134zM416.001 291c0 19.333 6.66699 35.833 20 49.5s29.666 20.5 48.999 20.5s35.833 -6.83301 49.5 -20.5s20.5 -30.167 20.5 -49.5c0 -20 -6.83301 -36.5 -20.5 -49.5s-30.167 -19.5 -49.5 -19.5
s-35.666 6.5 -48.999 19.5s-20 29.5 -20 49.5z" />
    <glyph glyph-name="glyph1" 
 />
    <glyph glyph-name="glyph1" 
 />
    <glyph glyph-name="uni0009" unicode="&#x9;" horiz-adv-x="490" 
 />
    <glyph glyph-name="uni0009" unicode="&#xa0;" horiz-adv-x="490" 
 />
    <glyph glyph-name="uni0009" unicode=" " horiz-adv-x="490" 
 />
    <glyph glyph-name="uni0009" unicode="&#xd;" horiz-adv-x="490" 
 />
    <glyph glyph-name="exclam" unicode="!" horiz-adv-x="624" 
d="M321 416l-114 940l312 12l9 -8l-129 -940zM359 275c44.667 0 81.334 -13.667 110.001 -41s43 -63.666 43 -108.999s-14.333 -82.166 -43 -110.499s-65.334 -42.5 -110.001 -42.5c-46 0 -83.167 14.167 -111.5 42.5s-42.5 65.166 -42.5 110.499
s14.167 81.666 42.5 108.999s65.5 41 111.5 41z" />
    <glyph glyph-name="quotedbl" unicode="&#x22;" horiz-adv-x="746" 
d="M90 1487h226l-100 -485h-75zM420 1487h226l-100 -485h-75z" />
    <glyph glyph-name="numbersign" unicode="#" horiz-adv-x="1130" 
d="M925 1294l-58 -382h201v-145h-223l-38 -251h199v-145h-221l-57 -381h-127l58 381h-269l-58 -381h-127l58 381h-200v145h222l38 251h-198v145h220l58 382h127l-58 -382h269l58 382h126zM412 516h269l38 251h-269z" />
    <glyph glyph-name="dollar" unicode="$" horiz-adv-x="891" 
d="M646 959c-38.667 12.667 -86.666 19.999 -143.999 21.999l-7 -326c122 -46.667 209.167 -95.334 261.5 -146.001s78.5 -115 78.5 -193c0 -87.333 -32.833 -161.333 -98.5 -222s-156.5 -99 -272.5 -115l-3 -130l-92 -8l3 133h-7c-102.667 0 -203.667 17.333 -303 52l-6 7
l45 286l56 9l51 -239c43.333 -16 98.666 -24.667 165.999 -26l8 347c-122 45.333 -206.5 93.333 -253.5 144s-70.5 112.334 -70.5 185.001c0 82 32.167 152.333 96.5 211s150.166 95.334 257.499 110.001l3 114l92 8l-3 -117c82.667 -0.666992 178.334 -14.667 287.001 -42
l5 -7l-52 -251l-49 -8zM620.001 213.999c0 65.333 -49 118.667 -147 160l-7 -305c102.667 20 154 68.333 154 145zM272.001 839c0 -58 44 -107 132 -147l6 284c-92 -18 -138 -63.667 -138 -137z" />
    <glyph glyph-name="percent" unicode="%" horiz-adv-x="1682" 
d="M269 1079c0 -246.667 39.333 -370.002 118 -370.002c32 0.666992 58.667 25.334 80 74.001s32 143.667 32 285c0 124.667 -10.167 215.334 -30.5 272.001s-49.5 85 -87.5 85c-34 0 -61.167 -24.333 -81.5 -73s-30.5 -139.667 -30.5 -273zM703 1085
c0 -146 -30.335 -256.333 -91.002 -331s-139 -112 -235 -112c-95.333 0 -171.166 35.5 -227.499 106.5s-84.5 174.5 -84.5 310.5c0 140 29.667 246.833 89 320.5s138.333 110.5 237 110.5c96.667 0 172.834 -34 228.501 -102s83.5 -169 83.5 -303zM322.998 9.99805l946 1477
l95 -67l-947 -1477zM1198 420.998c0 -246.667 39.333 -370.002 118 -370.002c32 0.666992 58.667 25.334 80 74.001s32 143.667 32 285c0 124.667 -10.167 215.334 -30.5 272.001s-49.5 85 -87.5 85c-34 0 -61.167 -24.333 -81.5 -73s-30.5 -139.667 -30.5 -273z
M1632 426.996c0 -146 -30.335 -256.333 -91.002 -331s-139 -112 -235 -112c-95.333 0 -171.166 35.5 -227.499 106.5s-84.5 174.5 -84.5 310.5c0 140 29.667 246.833 89 320.5s138.333 110.5 237 110.5c96.667 0 172.834 -34 228.501 -102s83.5 -169 83.5 -303z" />
    <glyph glyph-name="ampersand" unicode="&#x26;" horiz-adv-x="1487" 
d="M957 779c38 -1.33301 76.167 -2.33301 114.5 -3s80.166 -1 125.499 -1c38.667 0 73.167 0.333008 103.5 1s58.833 1.66699 85.5 3l4 -52l-129 -31c-14 -3.33301 -20 -11 -18 -23c4 -22.667 6 -51.334 6 -86.001c0 -122.667 -35.667 -235.667 -107 -339
c51.333 -66 96 -114.667 134 -146c18 -14.667 38.167 -25 60.5 -31s45.5 -9 69.5 -9c18.667 0 39 2 61 6l9 -55c-72 -30 -146.333 -45 -223 -45c-118.667 0 -218 35 -298 105c-111.333 -67.333 -232.666 -101 -363.999 -101c-140.667 0 -259.667 34 -357 102
s-146 159.667 -146 275c0 160.667 96 288 288 382c-59.333 66.667 -101.833 126.334 -127.5 179.001s-38.5 109.667 -38.5 171c0 96 39.667 172.5 119 229.5s175.333 85.5 288 85.5c102.667 0 189.5 -25 260.5 -75s106.5 -117.667 106.5 -203
c0 -132.667 -99.333 -248 -298 -346l379 -435c43.333 76 65 154 65 234c0 40.667 -1.66699 71 -5 91c-2 12.667 -6.16699 21.667 -12.5 27s-15.833 9.33301 -28.5 12l-124 25zM441 656c-45.333 -59.333 -68.001 -135.667 -68.001 -229c0 -94 26.167 -171.333 78.5 -232
s123.5 -91 213.5 -91c72.667 0 143.334 17.333 212.001 52zM625.999 840.999c68.667 64.667 103 152.669 103 264.002c0 59.333 -11.667 106.666 -35 141.999s-55.333 53 -96 53s-73 -14.833 -97 -44.5s-36 -67.834 -36 -114.501c0 -76 36 -155.667 108 -239z" />
    <glyph glyph-name="quotesingle" unicode="'" horiz-adv-x="416" 
d="M90 1487h226l-100 -485h-75z" />
    <glyph glyph-name="parenleft" unicode="(" horiz-adv-x="790" 
d="M644 -379c-329.333 256.667 -494 581.334 -494 974.001c0 395.333 164.667 721.333 494 978l46 -40c-212.667 -236.667 -319 -548 -319 -934c0 -388.667 106.333 -701.334 319 -938.001z" />
    <glyph glyph-name="parenright" unicode=")" horiz-adv-x="790" 
d="M146 1573c329.333 -256.667 494 -581.334 494 -974.001c0 -395.333 -164.667 -721.333 -494 -978l-46 40c212.667 236.667 319 548 319 934c0 388.667 -106.333 701.334 -319 938.001z" />
    <glyph glyph-name="asterisk" unicode="*" horiz-adv-x="902" 
d="M827 1103l-320 -27l212 -228l-136 -96l-124 292l-151 -271l-136 98l243 210l-305 60l51 160l274 -166l-37 308h168l-73 -312l282 131z" />
    <glyph glyph-name="plus" unicode="+" horiz-adv-x="1130" 
d="M83 532h412v412h141v-412h411v-141h-411v-411h-141v411h-412v141z" />
    <glyph glyph-name="comma" unicode="," horiz-adv-x="586" 
d="M100 -269c120 88.667 179.999 177.334 179.999 266.001c0 78.667 -43.667 140 -131 184c0 49.333 14.333 87.666 43 114.999s65.334 41 110.001 41c48 0 87.667 -18.667 119 -56s47 -84.333 47 -141c0 -86.667 -26.5 -168.5 -79.5 -245.5
s-132.167 -151.833 -237.5 -224.5z" />
    <glyph glyph-name="hyphen" unicode="-" horiz-adv-x="716" 
d="M80 570h556v-146h-556v146z" />
    <glyph glyph-name="hyphen" unicode="&#x2010;" horiz-adv-x="716" 
d="M80 570h556v-146h-556v146z" />
    <glyph glyph-name="hyphen" unicode="&#xad;" horiz-adv-x="716" 
d="M80 570h556v-146h-556v146z" />
    <glyph glyph-name="period" unicode="." horiz-adv-x="586" 
d="M299 285c45.333 0 82.833 -14.167 112.5 -42.5s44.5 -65.833 44.5 -112.5c0 -46 -14.833 -83.667 -44.5 -113s-67.167 -44 -112.5 -44c-47.333 0 -85.666 14.667 -114.999 44s-44 67 -44 113c0 46.667 14.667 84.167 44 112.5s67.666 42.5 114.999 42.5z" />
    <glyph glyph-name="slash" unicode="/" horiz-adv-x="825" 
d="M100 -226l505 1652h140l-505 -1652h-140z" />
    <glyph glyph-name="zero" unicode="0" horiz-adv-x="1182" 
d="M380 476c0 -132.667 18.335 -233.667 55.002 -303s90 -104 160 -104c73.333 0 126.166 32.333 158.499 97s48.5 164 48.5 298c0 136 -18.333 235.667 -55 299s-90.334 95 -161.001 95c-70 0 -121.833 -29.5 -155.5 -88.5s-50.5 -156.833 -50.5 -293.5zM1102 485
c0 -160 -47.667 -285.168 -143 -375.501s-222 -135.5 -380 -135.5c-155.333 0 -277.333 42 -366 126s-133 200.667 -133 350c0 155.333 46.833 277.5 140.5 366.5s221.5 133.5 383.5 133.5c156 0 278 -40.667 366 -122s132 -195.666 132 -342.999z" />
    <glyph glyph-name="one" unicode="1" horiz-adv-x="748" 
d="M41 834l-5 49.998c172 21.333 336.333 43.333 493 66l9 -8c-8 -117.333 -12 -237.666 -12 -360.999v-246c0 -44 0.166992 -83.667 0.5 -119s0.833008 -66.666 1.5 -93.999c1.33301 -19.333 10.666 -31.333 27.999 -36l159 -41l3 -48c-123.333 2 -232.666 3 -327.999 3
c-96 0 -205.333 -1 -328 -3l-4 48l163 41c18 5.33301 27 16 27 32c0.666992 27.333 1.16699 55.833 1.5 85.5s0.5 61.167 0.5 94.5v160c0 67.333 -0.333008 130.5 -1 189.5s-1.66699 114.5 -3 166.5z" />
    <glyph glyph-name="two" unicode="2" horiz-adv-x="993" 
d="M865 347l58.001 8.00098l-20 -351l-7 -7c-130.667 2 -273 3 -427 3c-141.333 0 -282 -1 -422 -3l-7 122l163 108.5l136 92.5c41.333 28.667 75.666 55.5 102.999 80.5s49 49.333 65 73s27.333 47 34 70s10 47.167 10 72.5c0 58.667 -21.833 105 -65.5 139
s-98.5 51 -164.5 51c-67.333 0 -139.666 -21 -216.999 -63l-38 80c124.667 84.667 253 127 385 127c110 0 200.667 -27.167 272 -81.5s107 -121.5 107 -201.5c0 -48.667 -10.833 -91.334 -32.5 -128.001s-54.334 -72.167 -98.001 -106.5s-98.5 -70 -164.5 -107l-232 -128.5
l1 -5h487z" />
    <glyph glyph-name="three" unicode="3" horiz-adv-x="935" 
d="M168 333c121.333 14.667 212.332 44.168 272.999 88.501s91 104.5 91 180.5c0 63.333 -21.833 114.666 -65.5 153.999s-99.834 59 -168.501 59c-78 0 -160.333 -25 -247 -75l-38 80c120.667 86.667 261.334 130 422.001 130c114.667 0 207.834 -25.5 279.501 -76.5
s107.5 -118.5 107.5 -202.5c0 -148.667 -116 -258 -348 -328v-4c133.333 0 236.5 -26.333 309.5 -79s109.5 -125.667 109.5 -219c0 -74.667 -19.333 -142.667 -58 -204s-95.5 -113.833 -170.5 -157.5s-167.833 -77.667 -278.5 -102s-238 -36.833 -382 -37.5l-8 88
c110.667 6.66699 204 21 280 43s137.5 49.5 184.5 82.5s80.833 70.667 101.5 113s31 86.833 31 133.5c0 80 -28.167 142.667 -84.5 188s-127.5 68 -213.5 68c-42.667 0 -83 -4 -121 -12z" />
    <glyph glyph-name="four" unicode="4" horiz-adv-x="1072" 
d="M180 134h391v500l-100 -120.5l-101 -126.5l-98.5 -128zM847 -123c0 -106 1.66602 -198.335 4.99902 -277.002c-98 -9.33301 -187.667 -19.666 -269 -30.999l-14 7c1.33301 80 2 175.333 2 286v133h-248c-83.333 0 -185.333 -1 -306 -3l-7 93l167 205l172.5 216.5
l170.5 219l162 214.5l171 10c-4 -149.333 -6 -288.666 -6 -417.999v-398h219l4 -142c-67.333 2 -141.666 3 -222.999 3v-118z" />
    <glyph glyph-name="five" unicode="5" horiz-adv-x="957" 
d="M68 -460l-8.00195 87.9971c84.667 2.66699 161.667 12.834 231 30.501s128.333 41.834 177 72.501s86.334 67.167 113.001 109.5s40 89.833 40 142.5c0 86 -27.667 154.5 -83 205.5s-130.666 76.5 -225.999 76.5c-75.333 0 -146.333 -7.33301 -213 -22l-6 7l58 679
c115.333 -2.66699 238.666 -4 369.999 -4c136.667 0 255.667 1.33301 357 4l6 -8l-25 -235h-606l-23 -233c65.333 9.33301 133.333 14 204 14c144.667 0 261.334 -36.5 350.001 -109.5s133 -167.167 133 -282.5c0 -74 -16.167 -143.167 -48.5 -207.5
s-82.833 -120.5 -151.5 -168.5s-156.5 -86.167 -263.5 -114.5s-235.5 -43.166 -385.5 -44.499z" />
    <glyph glyph-name="six" unicode="6" horiz-adv-x="1123" 
d="M963 1302c-364 -56.667 -567.668 -249.333 -611.001 -578l1 -1c76 86.667 180 130 312 130c108.667 0 202 -37 280 -111s117 -173.667 117 -299c0 -138.667 -49 -251.5 -147 -338.5s-216.667 -130.5 -356 -130.5c-151.333 0 -275.166 52.167 -371.499 156.5
s-144.5 237.5 -144.5 399.5c0 246.667 81.333 446.667 244 600s383.667 241 663 263zM769.999 362.001c0 119.333 -20.999 211.832 -62.999 277.499s-96 98.5 -162 98.5c-61.333 0 -110.166 -25.167 -146.499 -75.5s-54.5 -120.166 -54.5 -209.499
c0 -122 20.167 -217.833 60.5 -287.5s99.166 -104.5 176.499 -104.5c63.333 0 110.666 27.5 141.999 82.5s47 127.833 47 218.5z" />
    <glyph glyph-name="seven" unicode="7" horiz-adv-x="967" 
d="M161 -403l619.999 1068h-604l-65 -204l-65 -7l-17 466l7 8c78.667 -1.33301 155.334 -2.33301 230.001 -3s148 -1 220 -1h56c72 0 144.333 0.333008 217 1s139.667 1.66699 201 3l4 -153l-164.5 -306.5c-53 -102.333 -102.5 -203.333 -148.5 -303
s-87.833 -197 -125.5 -292s-69.167 -186.167 -94.5 -273.5l-266 -10z" />
    <glyph glyph-name="eight" unicode="8" horiz-adv-x="1095" 
d="M695 791c120 -56 206.668 -116.667 260.001 -182s80 -140 80 -224c0 -121.333 -49 -220.166 -147 -296.499s-217.333 -114.5 -358 -114.5c-138.667 0 -251.667 31 -339 93s-131 146.333 -131 253c0 73.333 24.167 136.833 72.5 190.5s124.166 106.167 227.499 157.5
c-156.667 86.667 -235 202 -235 346c0 106 42 192.167 126 258.5s189 99.5 315 99.5c112 0 205.333 -26 280 -78s112 -121 112 -207c0 -60.667 -23 -114.334 -69 -161.001s-110.667 -91.667 -194 -135zM443.001 620c-82 -91.333 -123 -188 -123 -290
c0 -76 21 -138.833 63 -188.5s97.333 -74.5 166 -74.5c63.333 0 115 21 155 63s60 97.333 60 166c0 62.667 -21.5 117 -64.5 163s-128.5 99.667 -256.5 161zM614.001 835c62 84 93 159.668 93 227.001c0 68.667 -16.667 122 -50 160s-77.333 57 -132 57
c-45.333 0 -83.5 -15.833 -114.5 -47.5s-46.5 -72.834 -46.5 -123.501c0 -52 17.667 -97.5 53 -136.5s101 -84.5 197 -136.5z" />
    <glyph glyph-name="nine" unicode="9" horiz-adv-x="1119" 
d="M160 -369c365.333 53.333 569.001 243 611.001 569l-1 1c-76.667 -86.667 -180.667 -130 -312 -130c-108 0 -201.167 36.833 -279.5 110.5s-117.5 173.5 -117.5 299.5c0 138.667 49.167 251.5 147.5 338.5s216.833 130.5 355.5 130.5c151.333 0 275.166 -52 371.499 -156
s144.5 -237.333 144.5 -400c0 -238 -76.833 -433.167 -230.5 -585.5s-379.167 -241.833 -676.5 -268.5zM353.001 562c0 -120.667 21.1699 -213.499 63.5029 -278.499s96.166 -97.5 161.499 -97.5c62 0 111 25.167 147 75.5s54 120.166 54 209.499
c0 128 -20.833 225.333 -62.5 292s-99.834 100 -174.501 100c-60.667 0 -107.334 -26.833 -140.001 -80.5s-49 -127.167 -49 -220.5z" />
    <glyph glyph-name="colon" unicode=":" horiz-adv-x="586" 
d="M344 285c45.333 0 82.833 -14.167 112.5 -42.5s44.5 -65.833 44.5 -112.5c0 -46 -14.833 -83.667 -44.5 -113s-67.167 -44 -112.5 -44c-47.333 0 -85.666 14.667 -114.999 44s-44 67 -44 113c0 46.667 14.667 84.167 44 112.5s67.666 42.5 114.999 42.5zM344 929
c45.333 0 82.833 -14.167 112.5 -42.5s44.5 -65.833 44.5 -112.5c0 -46 -14.833 -83.667 -44.5 -113s-67.167 -44 -112.5 -44c-47.333 0 -85.666 14.667 -114.999 44s-44 67 -44 113c0 46.667 14.667 84.167 44 112.5s67.666 42.5 114.999 42.5z" />
    <glyph glyph-name="semicolon" unicode=";" horiz-adv-x="586" 
d="M133 -269c120 88.667 179.999 177.334 179.999 266.001c0 78.667 -43.667 140 -131 184c0 49.333 14.333 87.666 43 114.999s65.334 41 110.001 41c48 0 87.667 -18.667 119 -56s47 -84.333 47 -141c0 -86.667 -26.5 -168.5 -79.5 -245.5
s-132.167 -151.833 -237.5 -224.5zM343.999 929c45.333 0 82.833 -14.167 112.5 -42.5s44.5 -65.833 44.5 -112.5c0 -46 -14.833 -83.667 -44.5 -113s-67.167 -44 -112.5 -44c-47.333 0 -85.666 14.667 -114.999 44s-44 67 -44 113c0 46.667 14.667 84.167 44 112.5
s67.666 42.5 114.999 42.5z" />
    <glyph glyph-name="less" unicode="&#x3c;" horiz-adv-x="1130" 
d="M83 532l964 400v-147l-794 -324l794 -323v-147l-964 400v141z" />
    <glyph glyph-name="equal" unicode="=" horiz-adv-x="1130" 
d="M83 712h964v-141h-964v141zM83 352h964v-141h-964v141z" />
    <glyph glyph-name="greater" unicode="&#x3e;" horiz-adv-x="1130" 
d="M1047 391l-964 -400v147l796 323l-796 324v147l964 -400v-141z" />
    <glyph glyph-name="question" unicode="?" horiz-adv-x="930" 
d="M252 1024l-55 -8.99805l-67 306l6 9c135.333 38.667 254.333 58 357 58c115.333 0 207 -26 275 -78s102 -126 102 -222c0 -41.333 -5.66699 -78.166 -17 -110.499s-26.666 -61.833 -45.999 -88.5s-41.833 -51.5 -67.5 -74.5s-52.834 -45.5 -81.501 -67.5l-75 -58
c-21.333 -16.667 -39 -32.334 -53 -47.001s-24.5 -29.5 -31.5 -44.5s-10.5 -32.167 -10.5 -51.5c0 -28.667 14.667 -63.667 44 -105l-60 -38c-128.667 116 -193 208.333 -193 277c0 23.333 3.83301 44.666 11.5 63.999s19.167 38.166 34.5 56.499s34 37.166 56 56.499l77 65
l81 68.5c22 19 40 36.833 54 53.5s24 33.334 30 50.001s9 36 9 58c0 42.667 -16.833 77 -50.5 103s-76.5 39 -128.5 39c-45.333 0 -91.333 -8.66699 -138 -26zM466 275.002c44.667 0 81.334 -13.667 110.001 -41s43 -63.666 43 -108.999s-14.333 -82.166 -43 -110.499
s-65.334 -42.5 -110.001 -42.5c-46 0 -83.167 14.167 -111.5 42.5s-42.5 65.166 -42.5 110.499s14.167 81.666 42.5 108.999s65.5 41 111.5 41z" />
    <glyph glyph-name="at" unicode="@" horiz-adv-x="1805" 
d="M1330 865c-20 -66 -42.999 -163.997 -68.999 -293.997l-63 -306c-4 -19.333 -6 -35 -6 -47c0 -22.667 5.83301 -39.667 17.5 -51s27.167 -17 46.5 -17c56 0 110.167 39.333 162.5 118s78.5 184.667 78.5 318c0 160.667 -50.5 290.5 -151.5 389.5
s-226.833 148.5 -377.5 148.5c-189.333 0 -342.833 -67.333 -460.5 -202s-176.5 -305.334 -176.5 -512.001c0 -192 59.333 -347.667 178 -467s271 -179 457 -179c106 0 211.167 21.5 315.5 64.5s195.5 99.833 273.5 170.5l50 -57
c-210.667 -198.667 -447.334 -298 -710.001 -298c-235.333 0 -425 67.667 -569 203s-216 313.666 -216 534.999c0 242 83.5 441.167 250.5 597.5s376.833 234.5 629.5 234.5c194.667 0 360 -57.5 496 -172.5s204 -263.5 204 -445.5c0 -164.667 -56.667 -298.667 -170 -402
s-236.333 -155 -369 -155c-121.333 0 -190 46.333 -206 139c-106 -90 -186.333 -135 -241 -135c-72.667 0 -130.667 27.667 -174 83s-65 125.666 -65 210.999c0 151.333 48 279 144 383s215.333 156 358 156c52.667 0 115.667 -10.667 189 -32
c49.333 4 103.333 13.333 162 28zM1049 759.003c-30.667 20.667 -62 31 -94 31c-68.667 0 -123.667 -44.333 -165 -133s-62 -180 -62 -274c0 -64 6.66699 -114 20 -150s35 -54 65 -54c31.333 0 76 27.333 134 82z" />
    <glyph glyph-name="A" unicode="A" horiz-adv-x="1371" 
d="M380 444l-70.999 -187.001c-14 -36.667 -24.833 -66.167 -32.5 -88.5s-11.5 -39.5 -11.5 -51.5c0 -11.333 3 -20 9 -26s15.333 -10.667 28 -14l96 -28l3 -52c-96.667 2 -175.334 3 -236.001 3c-63.333 0 -135.666 -1 -216.999 -3l-5 50l107 32
c25.333 7.33301 44 19.5 56 36.5s25.333 42.833 40 77.5l498 1213l108 16l431 -1216c16.667 -46.667 31.834 -78.167 45.501 -94.5s33.167 -28.166 58.5 -35.499l98 -29l3 -50c-90 2 -180.667 3 -272 3c-120.667 0 -238.334 -1 -353.001 -3l-5 50l99 29c13.333 4 23 9 29 15
s9 15 9 27c0 13.333 -3.33301 30.833 -10 52.5s-16.334 50.167 -29.001 85.5l-66 188h-410zM596.001 1018l-39 -108l-137 -362h334l-123 361z" />
    <glyph glyph-name="B" unicode="B" horiz-adv-x="1354" 
d="M87 1400c93.333 -2.66699 189.329 -4 287.996 -4l169 6c76.667 2.66699 129.334 4 158.001 4c168.667 0 295.834 -27.167 381.501 -81.5s128.5 -132.5 128.5 -234.5c0 -160 -94.667 -270.667 -284 -332c110 -15.333 194.833 -53.666 254.5 -114.999s89.5 -138 89.5 -230
c0 -133.333 -53.667 -236.5 -161 -309.5s-259.333 -109.5 -456 -109.5c-38.667 0 -79.167 1 -121.5 3s-95.166 3 -158.499 3c-97.333 0 -191.666 -1 -282.999 -3l-5 50l134 37c16.667 4.66699 25.667 15 27 31c0.666992 26.667 1.16699 56.5 1.5 89.5s0.5 69.5 0.5 109.5
v797c0 33.333 -0.166992 63.666 -0.5 90.999s-0.833008 52.333 -1.5 75c-0.666992 17.333 -8.66699 28.333 -24 33l-134 39zM547.996 692l0.00195312 -598c37.333 -6 76.666 -9 117.999 -9c91.333 0 160.666 26.5 207.999 79.5s71 129.833 71 230.5s-24 175.5 -72 224.5
s-125.667 73.5 -233 73.5c-31.333 0 -62 -0.333008 -92 -1zM547.998 782c34 -0.666992 66.333 -1 97 -1c85.333 0 148.5 20.5 189.5 61.5s61.5 110.5 61.5 208.5c0 92 -21.167 158 -63.5 198s-103.5 60 -183.5 60c-12.667 0 -27.5 -0.5 -44.5 -1.5
s-35.833 -2.83301 -56.5 -5.5v-520z" />
    <glyph glyph-name="C" unicode="C" horiz-adv-x="1351" 
d="M1198 1022l-54.999 -9l-76 287c-52.667 16.667 -109.667 25 -171 25c-147.333 0 -261.333 -55.167 -342 -165.5s-121 -254.833 -121 -433.5c0 -190.667 47.5 -342.667 142.5 -456s226.833 -170 395.5 -170c94 0 193 19 297 57l13 -57
c-133.333 -90.667 -284 -136 -452 -136c-218 0 -394.167 65.667 -528.5 197s-201.5 304.333 -201.5 519c0 228.667 73.667 409.667 221 543s339.666 200 576.999 200c117.333 0 237.333 -13.667 360 -41l6 -10z" />
    <glyph glyph-name="D" unicode="D" horiz-adv-x="1617" 
d="M358 0c-86 0 -174.666 -0.999023 -265.999 -2.99902l-5 50l134 37c17.333 5.33301 26.333 15.666 27 30.999c0.666992 26.667 1.16699 56.5 1.5 89.5s0.5 69.5 0.5 109.5v797c0 33.333 -0.166992 63.666 -0.5 90.999s-0.833008 52.333 -1.5 75
c-0.666992 17.333 -8.66699 28.333 -24 33l-134 39l-3 51c93.333 -2.66699 182.666 -4 267.999 -4c72 0 141 1.66699 207 5s134.333 5 205 5c248.667 0 435.667 -53.167 561 -159.5s188 -264.166 188 -473.499c0 -246.667 -69.5 -438.167 -208.5 -574.5
s-334.5 -204.5 -586.5 -204.5c-69.333 0 -131 1 -185 3s-113.333 3 -178 3zM550.001 102.001c32 -6 63.333 -9.83203 94 -11.499s61.667 -2.5 93 -2.5c144.667 0 254.667 51 330 153s113 257.333 113 466c0 203.333 -36 354.166 -108 452.499s-185.333 147.5 -340 147.5
c-57.333 0 -118 -2.66699 -182 -8v-1197z" />
    <glyph glyph-name="E" unicode="E" horiz-adv-x="1233" 
d="M353 1396l253 0.000976562c162 0 330 1.33301 504 4l7 -8l-62 -333l-54 -8l-64 243h-387v-531h54c58 0 120.333 0.666992 187 2c17.333 0.666992 28.666 9.66699 33.999 27l36 137l66 3c-2 -96.667 -3 -169 -3 -217c0 -46.667 1 -118 3 -214l-66 -5l-37 141
c-5.33301 18 -15.666 27.333 -30.999 28c-68 1.33301 -131.333 2 -190 2h-53v-343c0 -73.333 0.666992 -146 2 -218h400l126 263l61 9l-24 -374l-7 -7c-166 2 -327.667 3 -485 3h-265c-86 0 -174.667 -1 -266 -3l-5 50l134 37c16.667 4.66699 25.667 15 27 31
c0.666992 26.667 1.16699 56.5 1.5 89.5s0.5 69.5 0.5 109.5v797c0 33.333 -0.166992 63.666 -0.5 90.999s-0.833008 52.333 -1.5 75c-0.666992 17.333 -8.66699 28.333 -24 33l-134 39l-3 51c93.333 -2.66699 182 -4 266 -4z" />
    <glyph glyph-name="F" unicode="F" horiz-adv-x="1153" 
d="M550 644l-0.00195312 -329.997c0 -78.667 0.666992 -143 2 -193c0.666992 -16 9.33398 -26.667 26.001 -32l147 -42l3 -50c-103.333 2 -211.333 3 -324 3c-115.333 0 -219.333 -1 -312 -3l-5 50l134 37c17.333 5.33301 26.333 15.666 27 30.999
c1.33301 54 2 120.333 2 199v797c0 33.333 -0.166992 63.666 -0.5 90.999s-0.833008 52.333 -1.5 75c-0.666992 17.333 -8.66699 28.333 -24 33l-134 39l-3 51c93.333 -2.66699 182 -4 266 -4h253c162 0 330 1.33301 504 4l7 -8l-62 -333l-54 -8l-64 243h-387v-554h57
c58.667 0 121 0.666992 187 2c18 0.666992 29.333 9.66699 34 27l36 137l66 3c-2 -96.667 -3 -169 -3 -217c0 -46.667 1 -118 3 -214l-66 -6l-37 142c-4.66699 17.333 -15 26.666 -31 27.999c-67.333 1.33301 -130.666 2 -189.999 2h-56z" />
    <glyph glyph-name="G" unicode="G" horiz-adv-x="1516" 
d="M1230 1031l-56.002 -7.99805l-70 276c-56 18 -121.333 27 -196 27c-149.333 0 -265.833 -55.5 -349.5 -166.5s-125.5 -263.5 -125.5 -457.5c0 -202.667 42 -360.667 126 -474s201.667 -170 353 -170c36 0 74.667 3 116 9v263c0 33.333 -0.166992 63.666 -0.5 90.999
s-0.833008 52.333 -1.5 75c-0.666992 17.333 -9 28.333 -25 33l-136 39l-3 50c94.667 -2 197.334 -3 308.001 -3c114 0 211.667 1 293 3l6 -50l-119 -33c-16 -4.66699 -24.667 -14.667 -26 -30c-0.666992 -26.667 -1.16699 -53.834 -1.5 -81.501s-0.5 -57.5 -0.5 -89.5v-315
l-7 -7c-143.333 -32.667 -279.666 -49 -408.999 -49c-242.667 0 -437.834 62 -585.501 186s-221.5 297 -221.5 519c0 236 73.833 420.833 221.5 554.5s349.167 200.5 604.5 200.5c122.667 0 243.334 -13.667 362.001 -41l7 -9z" />
    <glyph glyph-name="H" unicode="H" horiz-adv-x="1695" 
d="M550 685l-0.00195312 -371c0 -78.667 0.666992 -144.334 2 -197.001c0.666992 -18.667 9.33398 -30.334 26.001 -35.001l116 -35l3 -50c-82.667 2 -180.334 3 -293.001 3c-115.333 0 -219.333 -1 -312 -3l-5 50l134 37c17.333 5.33301 26.333 15.666 27 30.999
c1.33301 54 2 120.333 2 199v797c0 66.667 -0.666992 122 -2 166c-0.666992 17.333 -8.66699 28.333 -24 33l-134 39l-3 51c92.667 -2.66699 195.334 -4 308.001 -4c116 0 214.667 1.33301 296 4l6 -51l-119 -34c-16.667 -4.66699 -25.334 -15 -26.001 -31
c-1.33301 -48 -2 -104.333 -2 -169v-324h596v324c0 64.667 -0.666992 121 -2 169c-0.666992 16 -9.33398 26.333 -26.001 31l-117 34l-3 51c84.667 -2.66699 184.667 -4 300 -4c112.667 0 214.334 1.33301 305.001 4l5 -51l-136 -39
c-15.333 -4.66699 -23.666 -15.667 -24.999 -33c-1.33301 -44 -2 -99.333 -2 -166v-797c0 -78.667 0.666992 -145 2 -199c1.33301 -15.333 10.666 -25.666 27.999 -30.999l130 -37l3 -50c-95.333 2 -200.666 3 -315.999 3c-112.667 0 -209 -1 -289 -3l-5 50l120 35
c16.667 4.66699 25.334 16.334 26.001 35.001c1.33301 52.667 2 118.334 2 197.001v371h-596z" />
    <glyph glyph-name="I" unicode="I" horiz-adv-x="800" 
d="M550 314c0 -40 0.166992 -76.332 0.5 -108.999s0.833008 -62 1.5 -88c0.666992 -17.333 12 -29 34 -35l123 -35l3 -50c-92.667 2 -195.334 3 -308.001 3c-116.667 0 -220.667 -1 -312 -3l-5 50l134 37c16.667 4.66699 25.667 15 27 31
c0.666992 26.667 1.16699 56.5 1.5 89.5s0.5 69.5 0.5 109.5v797c0 33.333 -0.166992 63.666 -0.5 90.999s-0.833008 52.333 -1.5 75c-0.666992 17.333 -8.66699 28.333 -24 33l-134 39l-3 51c92.667 -2.66699 195.334 -4 308.001 -4c116 0 220 1.33301 312 4l5 -51
l-134 -37c-16 -4 -24.667 -14 -26 -30c-0.666992 -24 -1.16699 -49.833 -1.5 -77.5s-0.5 -57.5 -0.5 -89.5v-801z" />
    <glyph glyph-name="J" unicode="J" horiz-adv-x="744" 
d="M71 1400c93.333 -2.66699 196.333 -3.99902 309 -3.99902c115.333 0 219.333 1.33301 312 4l5 -51l-134 -37c-16.667 -4 -25.667 -14 -27 -30c-0.666992 -24 -1.16699 -49.833 -1.5 -77.5s-0.5 -57.5 -0.5 -89.5v-904c0 -66 -3 -125.667 -9 -179s-16.333 -101 -31 -143
s-35 -79.5 -61 -112.5s-59.5 -62.5 -100.5 -88.5s-90.667 -49 -149 -69s-126.833 -37.333 -205.5 -52l-19 59c64.667 28.667 115 60.5 151 95.5s63.333 74.833 82 119.5s30.5 95 35.5 151s7.5 119 7.5 189v930c0 33.333 -0.166992 63.666 -0.5 90.999
s-0.833008 52.333 -1.5 75c-0.666992 17.333 -8.66699 28.333 -24 33l-135 39z" />
    <glyph glyph-name="K" unicode="K" horiz-adv-x="1497" 
d="M550 1115l-0.000976562 -800.998c0 -40 0.166992 -76.333 0.5 -109s0.833008 -62 1.5 -88c0.666992 -18 9.33398 -29.667 26.001 -35l116 -35l3 -50c-82.667 2 -180.334 3 -293.001 3c-116.667 0 -220.667 -1 -312 -3l-5 50l134 37
c17.333 5.33301 26.333 15.666 27 30.999c0.666992 26.667 1.16699 56.5 1.5 89.5s0.5 69.5 0.5 109.5v797c0 33.333 -0.166992 63.666 -0.5 90.999s-0.833008 52.333 -1.5 75c-0.666992 17.333 -8.66699 28.333 -24 33l-134 39l-3 51
c92.667 -2.66699 195.334 -4 308.001 -4c115.333 0 214 1.33301 296 4l6 -51l-119 -34c-16 -4.66699 -24.667 -15 -26 -31c-0.666992 -24.667 -1.16699 -51 -1.5 -79s-0.5 -58 -0.5 -90zM572.999 699.002l409.998 451.001c32.667 35.333 58.334 65.166 77.001 89.499
s28 43.833 28 58.5c0 12.667 -9 21.667 -27 27l-87 22l-3 53c70.667 -2.66699 148 -4 232 -4c82.667 0 161.334 1.33301 236.001 4l5 -51l-113 -31c-32.667 -10 -60.667 -25.333 -84 -46s-48 -45 -74 -73l-343 -383l440 -647c21.333 -30 40.333 -51.167 57 -63.5
s36.667 -21.833 60 -28.5l97 -30l3 -50c-74 2 -150.333 3 -229 3c-73.333 0 -152.333 -0.666992 -237 -2c-20 44 -74.333 133.333 -163 268z" />
    <glyph glyph-name="L" unicode="L" horiz-adv-x="1181" 
d="M550 1115v-790.999c0 -73.333 0.666992 -146 2 -218h391l137 284l61 9l-25 -395l-7 -7c-164.667 2 -325.667 3 -483 3h-248c-99.333 0 -191.333 -1 -276 -3l-5 50l124 37c16.667 4.66699 25.667 15 27 31c0.666992 26.667 1.16699 56.5 1.5 89.5s0.5 69.5 0.5 109.5v797
c0 33.333 -0.166992 63.666 -0.5 90.999s-0.833008 52.333 -1.5 75c-0.666992 17.333 -8.66699 28.333 -24 33l-124 39l-3 51c86 -2.66699 185.333 -4 298 -4c116 0 216.667 1.33301 302 4l5 -51l-124 -37c-16 -4 -24.667 -14 -26 -30
c-0.666992 -24 -1.16699 -58.167 -1.5 -102.5s-0.5 -65.833 -0.5 -64.5z" />
    <glyph glyph-name="M" unicode="M" horiz-adv-x="1915" 
d="M1340 1400c92 -2.66699 174.999 -4 248.999 -4c66 0 143.667 1.33301 233 4l6 -51l-137 -39c-15.333 -4.66699 -23.333 -15.667 -24 -33c-1.33301 -44 -2 -99.333 -2 -166v-797c0 -78.667 0.666992 -145 2 -199c0.666992 -15.333 9.66699 -25.666 27 -30.999l130 -37
l4 -50c-95.333 2 -201 3 -317 3c-112.667 0 -207 -1 -283 -3l-5 50l115 35c16 4.66699 24.333 16.667 25 36c2 52 3 117.333 3 196v640c0 34.667 1 101 3 199l-72 -178l-398 -975l-90 -8l-380 947c-22.667 54 -46 114.333 -70 181c1.33301 -94.667 2 -157 2 -187v-619
c0 -78.667 0.666992 -144 2 -196c0.666992 -19.333 9.33398 -31.333 26.001 -36l110 -35l3 -50c-78.667 2 -147 3 -205 3c-57.333 0 -132.333 -1 -225 -3l-5 50l134 37c17.333 5.33301 26.333 15.666 27 30.999c1.33301 54 2 120.333 2 199v797
c0 66.667 -0.666992 122 -2 166c-0.666992 17.333 -8.66699 28.333 -24 33l-134 39l-3 51c110.667 -2.66699 193.667 -4 249 -4c76 0 153.667 1.33301 233 4l349 -881c15.333 -38 29 -74 41 -108l42 108z" />
    <glyph glyph-name="N" unicode="N" horiz-adv-x="1548" 
d="M358 119c0.666992 -19.333 9.00098 -31.001 25.001 -35.001l128 -35l3 -52c-90 2 -164 3 -222 3c-57.333 0 -132.333 -1 -225 -3l-5 50l134 37c17.333 5.33301 26.333 15.666 27 30.999c1.33301 54 2 120.333 2 199v797c0 66.667 -0.666992 122 -2 166
c-0.666992 17.333 -8.66699 28.333 -24 33l-134 39l-3 51c93.333 -2.66699 165 -4 215 -4c65.333 0 127.333 1.33301 186 4l665 -833l82 -106c-1.33301 46 -2 90.333 -2 133v521c0 64.667 -0.666992 120.334 -2 167.001c-0.666992 15.333 -9.33398 25.333 -26.001 30
l-128 35l-3 53c92 -2.66699 166.667 -4 224 -4c58.667 0 133 1.33301 223 4l5 -51l-136 -39c-15.333 -4.66699 -23.333 -15.667 -24 -33c-2 -44 -3 -99.333 -3 -166v-1111l-115 -11l-788 987l-81 107c1.33301 -49.333 2 -94.666 2 -135.999v-633
c0 -78.667 0.666992 -143.667 2 -195z" />
    <glyph glyph-name="O" unicode="O" horiz-adv-x="1697" 
d="M435 717c0 -213.333 36 -376.5 108 -489.5s177.667 -169.5 317 -169.5c137.333 0 238.833 51.333 304.5 154s98.5 264 98.5 484c0 206.667 -34.667 365.5 -104 476.5s-176.666 166.5 -321.999 166.5c-140.667 0 -242.834 -51.5 -306.501 -154.5
s-95.5 -258.833 -95.5 -467.5zM1599 730c0 -230.667 -68 -416.167 -204 -556.5s-325.333 -210.5 -568 -210.5c-232 0 -411.333 64.833 -538 194.5s-190 305.167 -190 526.5c0 230.667 68.333 413.167 205 547.5s325.667 201.5 567 201.5c232 0 411.333 -62.833 538 -188.5
s190 -297.167 190 -514.5z" />
    <glyph glyph-name="P" unicode="P" horiz-adv-x="1314" 
d="M550 682c38 -7.33301 75.666 -11.001 112.999 -11.001c87.333 0 153.833 26.833 199.5 80.5s68.5 134.834 68.5 243.501c0 105.333 -21.667 183.833 -65 235.5s-111.666 77.5 -204.999 77.5c-36.667 0 -73.667 -2.66699 -111 -8v-618zM549.999 313.999
c0 -40 0.165039 -75.8311 0.498047 -107.498s0.833008 -60.167 1.5 -85.5c0.666992 -15.333 9.33398 -26 26.001 -32l147 -42l3 -50c-103.333 2 -211.333 3 -324 3c-116.667 0 -220.667 -1 -312 -3l-5 50l134 37c17.333 5.33301 26.333 15.666 27 30.999
c0.666992 26.667 1.16699 56.5 1.5 89.5s0.5 69.5 0.5 109.5v797c0 33.333 -0.166992 63.666 -0.5 90.999s-0.833008 52.333 -1.5 75c-0.666992 17.333 -8.66699 28.333 -24 33l-134 39l-3 51c93.333 -2.66699 185.666 -4 276.999 -4c62.667 0 123.5 1.33301 182.5 4
s112.833 4 161.5 4c180 0 316.333 -31.167 409 -93.5s139 -154.833 139 -277.5c0 -144.667 -48.167 -257.167 -144.5 -337.5s-232.166 -120.5 -407.499 -120.5c-47.333 0 -98.666 3.66699 -153.999 11v-272z" />
    <glyph glyph-name="Q" unicode="Q" horiz-adv-x="1696" 
d="M1627 -172l14.998 -55.002c-136 -152 -248.333 -228 -337 -228c-112 0 -211 33.333 -297 100s-153 172.667 -201 318c-223.333 4.66699 -397.166 70.834 -521.499 198.501s-186.5 301.834 -186.5 522.501c0 230.667 68.333 413.167 205 547.5s325.667 201.5 567 201.5
c232 0 411.333 -62.833 538 -188.5s190 -297.167 190 -514.5c0 -215.333 -58.667 -390.5 -176 -525.5s-272.666 -212.833 -465.999 -233.5c64 -129.333 204.333 -194 421 -194c92.667 0 175.667 17 249 51zM434.998 716.998c0 -213.333 36 -376.5 108 -489.5
s177.667 -169.5 317 -169.5c137.333 0 238.833 51.333 304.5 154s98.5 264 98.5 484c0 206.667 -34.667 365.5 -104 476.5s-176.666 166.5 -321.999 166.5c-140.667 0 -242.834 -51.5 -306.501 -154.5s-95.5 -258.833 -95.5 -467.5z" />
    <glyph glyph-name="R" unicode="R" horiz-adv-x="1444" 
d="M547 314c0 -40 0.165039 -75.834 0.498047 -107.501s0.833008 -60.5 1.5 -86.5c0.666992 -21.333 8.33398 -34.333 23.001 -39l104 -34l3 -50c-74 2 -165.667 3 -275 3c-116.667 0 -220.667 -1 -312 -3l-5 50l134 37c16.667 4.66699 25.667 15 27 31
c0.666992 26.667 1.16699 56.5 1.5 89.5s0.5 69.5 0.5 109.5v797c0 33.333 -0.166992 63.666 -0.5 90.999s-0.833008 52.333 -1.5 75c-0.666992 17.333 -8.66699 28.333 -24 33l-134 39l-3 51c93.333 -2.66699 189 -4 287 -4c20.667 0 46.334 0.5 77.001 1.5l112 3.5
c40 1.33301 73.5 2.33301 100.5 3s48.167 1 63.5 1c171.333 0 299.833 -28.667 385.5 -86s128.5 -141 128.5 -251c0 -99.333 -26.167 -179.5 -78.5 -240.5s-129.166 -107.833 -230.499 -140.5c56 -82.667 99.167 -149.667 129.5 -201l91.5 -151.5l83.5 -131.5
c25 -38 48.5 -68 70.5 -90c12 -10 23.5 -18.667 34.5 -26s22.5 -13.666 34.5 -18.999s24.833 -9.83301 38.5 -13.5s28.834 -7.16699 45.501 -10.5l4 -51c-65.333 -9.33301 -140 -14 -224 -14c-66.667 0 -113.334 4.33301 -140.001 13s-50.334 21 -71.001 37
c-30.667 24 -58.834 55.333 -84.501 94s-52.834 82.334 -81.501 131.001l-88.5 155c-30.333 54.667 -62.166 108.667 -95.499 162l-24.5 38c-6.33301 10 -12.666 17.5 -18.999 22.5s-13 8.66699 -20 11s-15.833 3.83301 -26.5 4.5l-42 1v-334zM546.998 734.999
c35.333 -2 67.332 -3 95.999 -3c94.667 0 164 23.833 208 71.5s66 122.167 66 223.5c0 98 -21.167 169.5 -63.5 214.5s-108.166 67.5 -197.499 67.5c-15.333 0 -31.833 -0.666992 -49.5 -2s-37.5 -3.33301 -59.5 -6v-566z" />
    <glyph glyph-name="S" unicode="S" horiz-adv-x="1080" 
d="M772 1305c-42.667 16.667 -89 25.001 -139 25.001c-70.667 0 -130.5 -20.667 -179.5 -62s-73.5 -94.666 -73.5 -159.999c0 -39.333 8 -73 24 -101s37.333 -53 64 -75s57.167 -41.667 91.5 -59l106.5 -52c40.667 -19.333 81.667 -40.5 123 -63.5s78.333 -50.333 111 -82
s59.167 -69.5 79.5 -113.5s30.5 -97.333 30.5 -160c0 -135.333 -51 -241.666 -153 -318.999s-236.667 -116 -404 -116c-120.667 0 -239.667 19 -357 57l-6 9l53 360l62 10l75 -306c48 -22 101.333 -33 160 -33c84.667 0 152.834 21.5 204.501 64.5s77.5 100.5 77.5 172.5
c0 40.667 -8 75.167 -24 103.5s-37.667 53.666 -65 75.999s-58.333 42.166 -93 59.499l-108 52l-122 63c-40.667 22 -77 48.667 -109 80s-58 68.833 -78 112.5s-30 96.5 -30 158.5c0 127.333 48.667 228.666 146 303.999s223.666 113 378.999 113
c98.667 0 211 -15.333 337 -46l6 -9l-61 -322l-55 -9z" />
    <glyph glyph-name="T" unicode="T" horiz-adv-x="1272" 
d="M641 0c-117.333 0 -229.333 -1 -336 -3l-5 50l160 44c16.667 5.33301 25.334 16 26.001 32c1.33301 50 2 114.333 2 193v977h-288l-92 -266l-56 -9l-26 374l7 8c164 -2.66699 321 -4 471 -4h279c150 0 308 1.33301 474 4l6 -8l-66 -366l-56 -9l-65 276h-289v-977
c0 -78.667 0.666992 -143 2 -193c0.666992 -16 9.66699 -26.667 27 -32l157 -44l3 -50c-110.667 2 -222.334 3 -335.001 3z" />
    <glyph glyph-name="U" unicode="U" horiz-adv-x="1570" 
d="M50 1400c92.667 -2.66699 195.333 -4 308 -4c116 0 218.667 1.33301 308 4l5 -51l-130 -37c-16 -4 -24.667 -14 -26 -30c-0.666992 -24 -1.16699 -49.833 -1.5 -77.5s-0.5 -57.5 -0.5 -89.5v-551c0 -182 27.333 -307.833 82 -377.5s143.334 -104.5 266.001 -104.5
c120.667 0 211.167 36.833 271.5 110.5s90.5 193.167 90.5 358.5v564c0 32 -0.333008 61.833 -1 89.5s-1.33398 53.5 -2.00098 77.5c-0.666992 15.333 -9.33398 25.333 -26.001 30l-124 35l-3 53c88.667 -2.66699 165.334 -4 230.001 -4c60 0 135.333 1.33301 226 4l5 -51
l-136 -39c-16 -4.66699 -24.333 -15.667 -25 -33c-0.666992 -22.667 -1.16699 -47.667 -1.5 -75s-0.5 -57.666 -0.5 -90.999v-508c0 -229.333 -47.167 -393.833 -141.5 -493.5s-231.5 -149.5 -411.5 -149.5c-204.667 0 -355.667 47.5 -453 142.5s-146 247.167 -146 456.5
v552c0 33.333 -0.166992 63.666 -0.5 90.999s-0.833008 52.333 -1.5 75c-0.666992 17.333 -8.66699 28.333 -24 33l-134 39z" />
    <glyph glyph-name="V" unicode="V" horiz-adv-x="1358" 
d="M736 498c12.667 -38 24.3301 -74.667 34.9971 -110l38 109l241 642l31.5 89c7.66699 22 11.5 39.333 11.5 52c0 11.333 -3.16699 20 -9.5 26s-15.833 10.667 -28.5 14l-95 27l-3 53c96.667 -2.66699 175.334 -4 236.001 -4c63.333 0 135.333 1.33301 216 4l6 -51
l-108 -31c-24.667 -8 -43 -20.333 -55 -37s-25.333 -42.667 -40 -78l-491 -1208l-105 -10l-429 1206c-16.667 46 -31.834 77.167 -45.501 93.5s-33.167 28.5 -58.5 36.5l-97 28l-4 51c90.667 -2.66699 181.334 -4 272.001 -4c120.667 0 238.334 1.33301 353.001 4l5 -51
l-98 -28c-13.333 -4 -23 -9 -29 -15s-9 -15 -9 -27c0 -13.333 3.33301 -30.833 10 -52.5s16.334 -50.5 29.001 -86.5z" />
    <glyph glyph-name="W" unicode="W" horiz-adv-x="2009" 
d="M1425 543c11.333 -36 20.3301 -71.6699 26.9971 -107.003c10.667 36.667 21.667 71.334 33 104.001l208 599c13.333 39.333 22.833 69.5 28.5 90.5s8.5 37.833 8.5 50.5c0 11.333 -3.16699 20 -9.5 26s-15.833 10.667 -28.5 14l-96 27l-3 53
c96.667 -2.66699 175.334 -4 236.001 -4c63.333 0 135.666 1.33301 216.999 4l5 -51l-107 -31c-25.333 -8 -44.5 -20.333 -57.5 -37s-25.833 -42.667 -38.5 -78l-431 -1203l-109 -9l-253 793c-13.333 42 -27 87.333 -41 136l-46 -135l-276 -785l-108 -9l-390 1200
c-15.333 46 -30.166 77.167 -44.499 93.5s-34.166 28.5 -59.499 36.5l-97 28l-3 51c90 -2.66699 180.667 -4 272 -4c120 0 237.333 1.33301 352 4l6 -51l-99 -28c-13.333 -4 -23 -9 -29 -15s-9 -15 -9 -27c0 -13.333 2.5 -30.666 7.5 -51.999s13.167 -50.333 24.5 -87
l186 -597c10.667 -36 19.667 -71.667 27 -107c10.667 36.667 21.334 71.334 32.001 104.001l296 861l101 9z" />
    <glyph glyph-name="X" unicode="X" horiz-adv-x="1404" 
d="M1436 -3c-92.667 2 -195.666 2.99512 -308.999 2.99512c-106 0 -223 -1 -351 -3l-7 50l89 24c14 4 24 9.16699 30 15.5s9 14.166 9 23.499c0 16 -6 34.833 -18 56.5s-25 43.834 -39 66.501l-217 343l-197 -307c-20.667 -31.333 -39 -60.666 -55 -87.999
s-24 -50.333 -24 -69c0 -9.33301 2.33301 -17.166 7 -23.499s14 -11.5 28 -15.5l86 -24l3 -52c-74.667 2 -155 3 -241 3c-77.333 0 -155.666 -1 -234.999 -3l-5 50l115 32c24.667 8 46 19.833 64 35.5s37.333 39.5 58 71.5l331 492l-342 543
c-22 34.667 -40.833 58.834 -56.5 72.501s-34.167 23.167 -55.5 28.5l-104 27l-4 51c94 -2.66699 202.333 -4 325 -4c106 0 218 1.33301 336 4l6 -51l-88 -24c-14 -3.33301 -24 -8.16602 -30 -14.499s-9 -14.5 -9 -24.5c0 -16 6.16699 -34.833 18.5 -56.5l39.5 -66.5
l171 -272l154 237c21.333 30.667 40 60.334 56 89.001s24 51 24 67c0 18 -13.333 31 -40 39l-88 24l-3 53c74 -2.66699 153.667 -4 239 -4c82.667 0 160.667 1.33301 234 4l6 -51l-112 -31c-26 -8 -46.833 -20 -62.5 -36s-36.834 -43.667 -63.501 -83l-280 -410l380 -601
c27.333 -43.333 48.166 -71.5 62.499 -84.5s33.833 -22.5 58.5 -28.5l103 -28z" />
    <glyph glyph-name="Y" unicode="Y" horiz-adv-x="1264" 
d="M744 757l191.999 381.999c18 33.333 32.333 61.666 43 84.999s16 42.333 16 57c0 20 -15 34 -45 42l-90 24l-3 53c74 -2.66699 151.667 -4 233 -4c74 0 147 1.33301 219 4l5 -51l-106 -31c-24 -8 -42.5 -19.833 -55.5 -35.5s-26.167 -35.5 -39.5 -59.5l-316 -585v-324
c0 -40 0.166992 -76.333 0.5 -109s0.833008 -62 1.5 -88c0.666992 -17.333 12.334 -29 35.001 -35l112 -35l3 -50c-86 2 -185.333 3 -298 3c-116 0 -216.667 -1 -302 -3l-5 50l124 37c16.667 4.66699 25.667 15 27 31c0.666992 26.667 1.33398 56.5 2.00098 89.5
s1 69.5 1 109.5v300l-325 582c-24.667 40.667 -44.834 69.834 -60.501 87.501s-36.5 30.5 -62.5 38.5l-96 27l-4 51c66 -2.66699 159.667 -4 281 -4c133.333 0 259.666 1.33301 378.999 4l5 -51l-102 -25c-15.333 -3.33301 -26.666 -8.16602 -33.999 -14.499
s-11 -14.5 -11 -24.5c0 -14 4.66699 -31 14 -51s22.333 -43.667 39 -71z" />
    <glyph glyph-name="Z" unicode="Z" horiz-adv-x="1207" 
d="M70 -3l-5.00098 50l693 1248h-489l-74 -243l-56 -8l-53 348l6 8c170 -2.66699 330 -4 480 -4h262c95.333 0 191 1.33301 287 4l5 -51l-691 -1246h503l141 292l58 9l-27 -400l-6 -7c-189.333 2 -357.333 3 -504 3h-268c-93.333 0 -180.666 -1 -261.999 -3z" />
    <glyph glyph-name="bracketleft" unicode="[" horiz-adv-x="727" 
d="M388 -248l247 -57l2 -51h-427v1905h425l2 -51l-249 -57v-1689z" />
    <glyph glyph-name="backslash" unicode="\" horiz-adv-x="825" 
d="M585 -226l-505 1652h140l505 -1652h-140z" />
    <glyph glyph-name="bracketright" unicode="]" horiz-adv-x="727" 
d="M339 1441l-247 57l-2 51h427v-1905h-425l-2 51l249 57v1689z" />
    <glyph glyph-name="asciicircum" unicode="^" horiz-adv-x="1130" 
d="M636 1396l390 -834h-149l-314 678l-313 -678h-145l390 834h141z" />
    <glyph glyph-name="underscore" unicode="_" horiz-adv-x="1024" 
d="M1024 -268h-1024v90h1024v-90z" />
    <glyph glyph-name="grave" unicode="`" horiz-adv-x="840" 
d="M481 1044h-84l-248 378h242zM0 930z" />
    <glyph glyph-name="a" unicode="a" horiz-adv-x="1097" 
d="M635 445c-104.667 0 -179.333 -13.332 -224 -39.999s-67 -72.334 -67 -137.001c0 -58.667 15.833 -100.5 47.5 -125.5s69.167 -37.5 112.5 -37.5c49.333 0 92.333 12.667 129 38zM146.001 858.001c142 64.667 278.666 97.001 409.999 97.001
c120 0 209.833 -26.833 269.5 -80.5s89.167 -130.834 88.5 -231.501l-5 -416c-1.33301 -34 -0.666016 -61.333 2.00098 -82s8.83398 -36.5 18.501 -47.5s24 -18.833 43 -23.5s46.5 -7.33398 82.5 -8.00098l6 -46c-93.333 -32 -173.666 -48 -240.999 -48
c-90.667 0 -150.334 35.667 -179.001 107c-84.667 -71.333 -174.334 -107 -269.001 -107c-92.667 0 -169 23.167 -229 69.5s-90 111.5 -90 195.5c0 104.667 48.5 181.334 145.5 230.001s242.5 73 436.5 73l1 75c0.666992 71.333 -16.5 123.833 -51.5 157.5
s-89.5 50.5 -163.5 50.5c-68.667 0 -151 -15 -247 -45z" />
    <glyph glyph-name="b" unicode="b" horiz-adv-x="1247" 
d="M459 90c44 -12 88 -17.999 132 -17.999c90.667 0 158.5 33.5 203.5 100.5s67.5 162.5 67.5 286.5c0 113.333 -21 201.666 -63 264.999s-104 95 -186 95c-52 0 -103.333 -11 -154 -33v-696zM465 1499c-4 -99.333 -6 -248.333 -6 -447v-191c102 62.667 201.333 94 298 94
c126.667 0 226.834 -42.167 300.501 -126.5s110.5 -194.5 110.5 -330.5c0 -166 -52.5 -295 -157.5 -387s-250.5 -138 -436.5 -138c-116.667 0 -250.334 21.667 -401.001 65c1.33301 79.333 2 185.666 2 318.999v593c0 147.333 -1.33301 280.333 -4 399l-147 40l-6 41
c166 24.667 311.333 50.334 436 77.001z" />
    <glyph glyph-name="c" unicode="c" horiz-adv-x="992" 
d="M922 66c-110.667 -62.667 -225 -94.001 -343 -94.001c-146 0 -266 42.333 -360 127s-141 197.667 -141 339c0 154 51.167 278.667 153.5 374s232.833 143 391.5 143c100.667 0 197.667 -19 291 -57c-24 -94 -45 -192.667 -63 -296l-55 -9l-77 250
c-18 6.66699 -42.333 10 -73 10c-76 0 -138.333 -33.167 -187 -99.5s-73 -155.166 -73 -266.499c0 -130 30.833 -225.833 92.5 -287.5s149.5 -92.5 263.5 -92.5c54.667 0 112 6.33301 172 19z" />
    <glyph glyph-name="d" unicode="d" horiz-adv-x="1270" 
d="M787 831c-36 12.667 -76.333 19 -121 19c-91.333 0 -161 -31.5 -209 -94.5s-72 -157.833 -72 -284.5c0 -110 21.333 -198 64 -264s102.667 -99 180 -99c57.333 0 110 12.333 158 37v686zM629 1430c162.667 24.667 308 50.333 436 77l12 -8
c-4.66699 -142.667 -7 -296 -7 -460v-544c0 -87.333 0.333008 -177.333 1 -270c0 -34 1.33301 -61.333 4 -82s8.5 -36.5 17.5 -47.5s22.833 -18.5 41.5 -22.5s46 -6.33301 82 -7l6 -44c-97.333 -33.333 -180.333 -50 -249 -50c-89.333 0 -148 36.333 -176 109
c-87.333 -72.667 -184 -109 -290 -109c-132 0 -236.333 43.5 -313 130.5s-115 195.833 -115 326.5c0 166.667 49.5 295.5 148.5 386.5s237.5 136.5 415.5 136.5c44 0 92 -3.66699 144 -11c0 140.667 -1.33301 276.667 -4 408l-147 40z" />
    <glyph glyph-name="e" unicode="e" horiz-adv-x="1101" 
d="M1022 66c-123.333 -62.667 -253.333 -94 -390 -94c-162.667 0 -295.5 40.167 -398.5 120.5s-154.5 198.833 -154.5 355.5c0 149.333 49.5 271.166 148.5 365.499s225.167 141.5 378.5 141.5c134 0 237.5 -36.167 310.5 -108.5s109.5 -172.166 109.5 -299.499
c0 -19.333 -1 -39.333 -3 -60h-639c0 -134 32.833 -230.333 98.5 -289s173.5 -88 323.5 -88c72.667 0 142 6.33301 208 19zM722 584l0.000976562 24c0 90.667 -11.5 155.667 -34.5 195s-58.167 59 -105.5 59c-56.667 0 -101.834 -27.167 -135.501 -81.5
s-53.167 -119.833 -58.5 -196.5h334z" />
    <glyph glyph-name="f" unicode="f" horiz-adv-x="725" 
d="M483 810l-0.000976562 -527.998c0 -62.667 0.666992 -117.334 2 -164.001c1.33301 -18.667 10 -30.334 26 -35.001l137 -38l3 -48c-107.333 2 -209.666 3 -306.999 3c-99.333 0 -197.333 -1 -294 -3l-5 48l123 33c18.667 5.33301 28.334 16 29.001 32
c2 41.333 3 85 3 131v574l-146 35l-9 54l156 13c0 186.667 42.167 331.667 126.5 435s201.5 155 351.5 155c79.333 0 151.666 -9.33301 216.999 -28c-21.333 -94 -39 -188.333 -53 -283l-55 -11l-62 224c-10 2 -21.667 3 -35 3c-70 0 -122.167 -33.167 -156.5 -99.5
s-51.5 -188.5 -51.5 -366.5v-27h242v-109h-242z" />
    <glyph glyph-name="g" unicode="g" horiz-adv-x="1117" 
d="M1107 877l-231.999 -58.999c49.333 -56.667 74 -120.667 74 -192c0 -107.333 -38.833 -192.833 -116.5 -256.5s-179.834 -95.5 -306.501 -95.5c-78.667 0 -148 11.333 -208 34c-26 -47.333 -39 -86.666 -39 -117.999c0 -17.333 8.83301 -29 26.5 -35s54.167 -9 109.5 -9
c40 0 89 0.5 147 1.5s110.667 1.5 158 1.5c112.667 0 199.334 -20.833 260.001 -62.5s91 -104.834 91 -189.501c0 -124.667 -61.833 -224.5 -185.5 -299.5s-263.5 -112.5 -419.5 -112.5c-128.667 0 -230.5 19.167 -305.5 57.5s-112.5 87.833 -112.5 148.5
c0 78.667 52 160 156 244c-68.667 28 -103 69.333 -103 124c0 66 50.333 159.333 151 280c-101.333 59.333 -152 147.666 -152 264.999c0 104 38.833 187.667 116.5 251s182.5 95 314.5 95c34.667 0 81.667 -4 141 -12c57.333 -9.33301 101.666 -14 132.999 -14
c109.333 0 208 1 296 3zM291.001 -77.999c-32 -59.333 -47.998 -114.333 -47.998 -165c0 -52 24.167 -92.833 72.5 -122.5s114.166 -44.5 197.499 -44.5c100 0 186.667 19.5 260 58.5s110 91.5 110 157.5c0 36 -15 64.667 -45 86s-96 32 -198 32
c-40 0.666992 -83.333 0 -130 -2s-90 -3 -130 -3c-28.667 0 -58.334 1 -89.001 3zM384.003 621.001c0 -86.667 10.999 -153.666 32.999 -200.999s59.333 -71 112 -71c53.333 0 89.833 22.167 109.5 66.5s29.5 109.166 29.5 194.499c0 82 -10.667 146.667 -32 194
s-59.333 71 -114 71c-53.333 0 -89.666 -21.667 -108.999 -65s-29 -106.333 -29 -189z" />
    <glyph glyph-name="h" unicode="h" horiz-adv-x="1305" 
d="M813 955c97.333 0 173.665 -26.501 228.998 -79.501s83 -128.167 83 -225.5v-351c0 -83.333 0.666992 -145 2 -185c0.666992 -18 9.33398 -29.333 26.001 -34l121 -35l3 -48c-95.333 2 -191.333 3 -288 3c-100 0 -190 -1 -270 -3l-4 48l100 30
c15.333 4.66699 23.666 14.667 24.999 30c0.666992 10 1 31 1 63v419c0 82 -16 140.833 -48 176.5s-79.667 53.5 -143 53.5c-55.333 0 -112.333 -12.667 -171 -38v-440c0 -83.333 0.666992 -159.666 2 -228.999c0.666992 -18 8.33398 -29 23.001 -33l104 -32l2 -48
c-82.667 2 -172.667 3 -270 3c-99.333 0 -197 -1 -293 -3l-5 48l129 35c14.667 4 22.334 14 23.001 30c0.666992 42.667 1 83.667 1 123v875c0 87.333 -1.33301 167.666 -4 240.999l-147 40l-6 41c166.667 24.667 312 50.334 436 77.001l11 -8c-4 -92 -6 -190 -6 -294v-351
c112.667 67.333 224 101 334 101z" />
    <glyph glyph-name="i" unicode="i" horiz-adv-x="679" 
d="M487 1290c0 -46 -14.833 -83.332 -44.5 -111.999s-68.5 -43 -116.5 -43c-44 0 -80.167 13.5 -108.5 40.5s-42.5 62.167 -42.5 105.5c0 47.333 15 84.666 45 111.999s69 41 117 41c44 0 80 -12.5 108 -37.5s42 -60.5 42 -106.5zM47 882.001
c164 24.667 308.002 50.333 432.002 77l11 -8c-4 -92 -6 -190 -6 -294v-377c0 -79.333 0.666992 -134.666 2 -165.999c1.33301 -18 9.66602 -29.333 24.999 -34l125 -35l3 -48c-98.667 2 -196.667 3 -294 3c-99.333 0 -197.333 -1 -294 -3l-5 48l127 35
c15.333 4 23.666 14 24.999 30c1.33301 26 2 69.667 2 131v322c0 87.333 -1.33301 167.666 -4 240.999l-143 37z" />
    <glyph glyph-name="j" unicode="j" horiz-adv-x="644" 
d="M32 882c164 24.667 307.667 50.333 431 77l12 -8c-4 -86.667 -6 -181.667 -6 -285v-535c0 -133.333 -36 -244.333 -108 -333s-177 -189.334 -315 -302.001l-57 49c93.333 125.333 149.333 219 168 281s28 148 28 258v484c0 80.667 -1.33301 159.334 -4 236.001l-143 37z
M472 1290c0 -46 -14.834 -83.332 -44.501 -111.999s-68.5 -43 -116.5 -43c-44 0 -80.167 13.5 -108.5 40.5s-42.5 62.167 -42.5 105.5c0 47.333 14.833 84.666 44.5 111.999s68.834 41 117.501 41c44 0 80 -12.5 108 -37.5s42 -60.5 42 -106.5z" />
    <glyph glyph-name="k" unicode="k" horiz-adv-x="1248" 
d="M38 1430c166.667 24.667 312.002 50.333 436.002 77l11 -8c-4 -92 -6 -190 -6 -294v-927c0 -79.333 0.666992 -134.666 2 -165.999c1.33301 -18 9.66602 -29.333 24.999 -34l108 -33l4 -48c-88 2 -180.667 3 -278 3c-99.333 0 -197.333 -1 -294 -3l-5 48l127 35
c15.333 4 23.666 14 24.999 30c1.33301 26 2 69.667 2 131v867c0 87.333 -1.33301 167.666 -4 240.999l-147 40zM1248 -3.00098c-121.333 2 -211.331 3 -269.998 3c-41.333 0 -91.333 -0.666992 -150 -2c-22 38 -48 79.667 -78 125c-76.667 118 -161 237 -253 357l384 376
l-110 29l-5 47c81.333 -2 151 -3 209 -3c47.333 0 124.666 1 231.999 3l5 -48c-82.667 -18.667 -139.5 -36 -170.5 -52s-65.167 -41.333 -102.5 -76l-183 -175l305 -428c21.333 -28.667 41.166 -49.667 59.499 -63s59.5 -28.333 123.5 -45z" />
    <glyph glyph-name="l" unicode="l" horiz-adv-x="674" 
d="M38 1430c166.667 24.667 312.002 50.333 436.002 77l11 -8c-4 -92 -6 -190 -6 -294v-925c0 -79.333 0.666992 -134.666 2 -165.999c1.33301 -18 9.66602 -29.333 24.999 -34l125 -35l3 -48c-98.667 2 -196.667 3 -294 3c-99.333 0 -197.333 -1 -294 -3l-5 48l127 35
c15.333 4 23.666 14 24.999 30c1.33301 26 2 69.667 2 131v867c0 87.333 -1.33301 167.666 -4 240.999l-147 40z" />
    <glyph glyph-name="m" unicode="m" horiz-adv-x="1917" 
d="M1737 299c0 -83.333 0.666016 -145.001 1.99902 -185.001c0.666992 -18 9.33398 -29.333 26.001 -34l121 -35l3 -48c-95.333 2 -191.333 3 -288 3c-100 0 -188 -1 -264 -3l-5 48l95 30c15.333 4.66699 23.666 14.667 24.999 30c0.666992 10 1 31 1 63v419
c0 82 -15.167 140.833 -45.5 176.5s-75.833 53.5 -136.5 53.5c-54.667 0 -112.667 -19.333 -174 -58c9.33301 -32.667 14 -69 14 -109v-351c0 -83.333 0.666992 -146.333 2 -189c0.666992 -18 8.33398 -29 23.001 -33l100 -32l2 -48c-78.667 2 -166.334 3 -263.001 3
c-100 0 -188 -1 -264 -3l-4 48l94 30c15.333 4.66699 23.666 14.667 24.999 30c0.666992 10 1 31 1 63v419c0 82 -15.167 140.833 -45.5 176.5s-75.5 53.5 -135.5 53.5c-52 0 -106 -16 -162 -48v-430c0 -83.333 0.666992 -159.666 2 -228.999
c0.666992 -18 8.33398 -29 23.001 -33l100 -32l2 -48c-80 2 -168.667 3 -266 3c-99.333 0 -197 -1 -293 -3l-5 48l129 35c14.667 4 22.334 14 23.001 30c0.666992 42.667 1 83.667 1 123v329c0 87.333 -1.33301 168 -4 242l-143 37l-6 41c154 22.667 294.667 48 422 76
l15 -8v-107c109.333 74.667 217.333 112 324 112c121.333 0 209 -44 263 -132c124 88 245 132 363 132c94 0 168 -26.5 222 -79.5s81 -128.167 81 -225.5v-351z" />
    <glyph glyph-name="n" unicode="n" horiz-adv-x="1310" 
d="M47 882c154 22.667 294.666 47.999 421.999 75.999l15 -8v-107c112.667 74.667 224 112 334 112c97.333 0 173.666 -26.5 228.999 -79.5s83 -128.167 83 -225.5v-351c0 -83.333 0.666992 -145 2 -185c0.666992 -18 9.33398 -29.333 26.001 -34l121 -35l3 -48
c-95.333 2 -191.333 3 -288 3c-100 0 -190 -1 -270 -3l-4 48l100 30c15.333 4.66699 23.666 14.667 24.999 30c0.666992 10 1 31 1 63v419c0 82 -16 140.833 -48 176.5s-79.667 53.5 -143 53.5c-55.333 0 -112.333 -16 -171 -48v-430
c0 -83.333 0.666992 -159.666 2 -228.999c0.666992 -18 8.33398 -29 23.001 -33l104 -32l2 -48c-82.667 2 -172.667 3 -270 3c-99.333 0 -197 -1 -293 -3l-5 48l129 35c14.667 4 22.334 14 23.001 30c0.666992 42.667 1 83.667 1 123v329c0 87.333 -1.33301 168 -4 242
l-143 37z" />
    <glyph glyph-name="o" unicode="o" horiz-adv-x="1226" 
d="M390 475c0 -121.333 18.167 -219.833 54.5 -295.5s94.5 -113.5 174.5 -113.5c74.667 0 129.5 33.333 164.5 100s52.5 165.667 52.5 297c0 123.333 -18.5 220.5 -55.5 291.5s-94.833 106.5 -173.5 106.5c-73.333 0 -127.833 -32 -163.5 -96s-53.5 -160.667 -53.5 -290z
M1146 483c0 -152 -50.666 -275.167 -151.999 -369.5s-233.333 -141.5 -396 -141.5c-158 0 -284 44.5 -378 133.5s-141 205.5 -141 349.5c0 146 49.333 265.833 148 359.5s232 140.5 400 140.5c159.333 0 285.666 -43.167 378.999 -129.5s140 -200.5 140 -342.5z" />
    <glyph glyph-name="p" unicode="p" horiz-adv-x="1252" 
d="M33 841l-6.00098 41c154 22.667 295 48 423 76l15 -8v-94c103.333 66 203 99 299 99c125.333 0 224.833 -41.5 298.5 -124.5s110.5 -191.5 110.5 -325.5c0 -166 -51.833 -296.333 -155.5 -391s-240.5 -142 -410.5 -142c-45.333 0 -92.666 4.66699 -141.999 14v-211
c0 -66 0.666992 -112.333 2 -139c1.33301 -20.667 10.333 -33 27 -37l141 -37l3 -48c-110.667 2 -214.667 3 -312 3c-100 0 -198 -1 -294 -3l-5 48l126 35c16 4 24.333 14 25 30c1.33301 49.333 2 123.333 2 222v399c0 290.667 -1.33301 476 -4 556zM464.999 86
c46.667 -10 91.668 -14.999 135.001 -14.999c88 0 154.667 33.667 200 101s68 163.666 68 288.999c0 118 -21.333 207.167 -64 267.5s-104.334 90.5 -185.001 90.5c-58 0 -109.333 -11 -154 -33v-700z" />
    <glyph glyph-name="q" unicode="q" horiz-adv-x="1239" 
d="M786 838c-42.667 10.667 -84 15.999 -124 15.999c-94 0 -163.833 -33.667 -209.5 -101s-68.5 -161.666 -68.5 -282.999c0 -112 20.833 -200.333 62.5 -265s102.167 -97 181.5 -97c56 0 108.667 11.333 158 34v696zM1076 950.999
c-4.66699 -130 -7.00195 -283.667 -7.00195 -461v-654c0 -110 0.333008 -178.333 1 -205c0.666992 -18 8.66699 -29 24 -33l123 -36l4 -48c-96.667 2 -193.667 3 -291 3c-99.333 0 -197 -1 -293 -3l-5 48l126 35c16.667 4.66699 25.334 14.667 26.001 30
c1.33301 80.667 2 182 2 304v136c-92.667 -63.333 -189 -95 -289 -95c-126.667 0 -228.167 43.5 -304.5 130.5s-114.5 195.833 -114.5 326.5c0 165.333 50.5 294.333 151.5 387s239.5 139 415.5 139c76 0 156 -10.333 240 -31c50.667 8 110.334 19.667 179.001 35z" />
    <glyph glyph-name="r" unicode="r" horiz-adv-x="889" 
d="M47 882c154 22.667 294.667 48.001 422 76.001l15 -8v-108c118 75.333 241.333 113 370 113l5 -7c-21.333 -106 -41.666 -219.333 -60.999 -340l-58 -10c-17.333 66 -34.333 116.667 -51 152s-42.667 53 -78 53c-34 0 -76.333 -11.333 -127 -34v-429
c0 -103.333 0.666992 -177.333 2 -222c0.666992 -18.667 9 -30.334 25 -35.001l143 -38l3 -48c-110.667 2 -216.334 3 -317.001 3c-96 0 -192 -1 -288 -3l-5 48l127 35c16 4.66699 24.333 14.667 25 30c0.666992 28.667 1 69.667 1 123v334
c0 108.667 -1.33301 187.667 -4 237l-143 37z" />
    <glyph glyph-name="s" unicode="s" horiz-adv-x="935" 
d="M654 842c-42 10 -87.335 14.999 -136.002 14.999c-60.667 0 -110.167 -10.667 -148.5 -32s-57.5 -51.666 -57.5 -90.999c0 -30 8.33301 -53.167 25 -69.5s45.334 -31.5 86.001 -45.5l160 -56c95.333 -32.667 165 -72.167 209 -118.5s66 -100.5 66 -162.5
c0 -98 -41.167 -174.167 -123.5 -228.5s-190.5 -81.5 -324.5 -81.5c-112 0 -222 23 -330 69c22.667 89.333 41.334 176 56.001 260l51 8l72 -218c40.667 -14 91.667 -21 153 -21c58 0 105 11 141 33s54 52.667 54 92c0 32.667 -10.833 60.167 -32.5 82.5
s-64.834 44.5 -129.501 66.5l-122 42c-78 27.333 -136.667 62.833 -176 106.5s-59 97.167 -59 160.5c0 97.333 38.333 172 115 224s182.334 78 317.001 78c110.667 0 210.667 -16.333 300 -49c-20 -87.333 -37 -170 -51 -248l-55 -8z" />
    <glyph glyph-name="t" unicode="t" horiz-adv-x="798" 
d="M453 810c-4 -208 -6.00098 -384.332 -6.00098 -528.999c0 -67.333 10.333 -113.833 31 -139.5s60.334 -38.5 119.001 -38.5c45.333 0 94.666 2.66699 147.999 8l8 -60c-106 -52 -205 -78 -297 -78c-93.333 0 -165.5 19.5 -216.5 58.5s-76.5 97.833 -76.5 176.5
c0 138.667 2 341 6 607l-135 35l-9 54l167 15l95 235c56.667 10 108.334 19.667 155.001 29l14 -7c-2 -80.667 -3 -166.334 -3 -257.001h280v-109h-280z" />
    <glyph glyph-name="u" unicode="u" horiz-adv-x="1284" 
d="M816 80c-98 -72 -204.665 -108 -319.998 -108c-108 0 -189.333 26.667 -244 80s-82 128.333 -82 225v212c0 142.667 -1.33301 247.667 -4 315l-143 37l-6 41c163.333 24.667 307.333 50.334 432 77.001l11 -8c-4 -83.333 -6 -186.333 -6 -309v-308
c0 -79.333 15.5 -136.833 46.5 -172.5s74.833 -53.5 131.5 -53.5c63.333 0 121.333 13.667 174 41v426c0 93.333 -1.33301 170.333 -4 231l-135 35l-6 41c158 24.667 299 50.334 423 77.001l12 -8c-4.66699 -85.333 -7 -190.333 -7 -315c0 -242 0.333008 -389.667 1 -443
c0.666992 -26.667 2.66699 -48.167 6 -64.5s9.66602 -28.833 18.999 -37.5s23.166 -14.834 41.499 -18.501s44.5 -5.83398 78.5 -6.50098l5 -44c-96 -33.333 -178.667 -50 -248 -50c-89.333 0 -148 36 -176 108z" />
    <glyph glyph-name="v" unicode="v" horiz-adv-x="1061" 
d="M-26 932c87.333 -2 179.333 -3.00098 276 -3.00098c92 0 180 1 264 3l6 -48l-107 -30c42.667 -124.667 93 -261 151 -409c15.333 -39.333 31 -82.666 47 -129.999c16.667 46 33.334 89.333 50.001 130l157 409l-104 30l-5 48c48.667 -2 109.334 -3 182.001 -3
c60 0 119.667 1 179 3l5 -48l-108 -29c-16.667 -5.33301 -29.667 -18.333 -39 -39l-183.5 -436.5l-158.5 -388.5l-128 -14c-36.667 98 -89.834 231.667 -159.501 401l-177.5 433c-10.667 23.333 -25.334 38.333 -44.001 45l-100 28z" />
    <glyph glyph-name="w" unicode="w" horiz-adv-x="1563" 
d="M918 934l164.002 -484.999l43 -133c15.333 46 31 90.333 47 133l144 405l-104 30l-5 48c48.667 -2 109.667 -3 183 -3c59.333 0 118.666 1 177.999 3l5 -48l-108 -29c-16.667 -5.33301 -29.667 -18.333 -39 -39l-174.5 -434l-151.5 -386l-128 -14l-143 401l-48 146
c-17.333 -45.333 -35 -94 -53 -146l-149 -387l-128 -14c-35.333 97.333 -86 230.166 -152 398.499l-169 430.5c-10.667 23.333 -25.334 38.333 -44.001 45l-100 28l-3 48c87.333 -2 179.333 -3 276 -3c92 0 180 1 264 3l6 -48l-107 -30
c38.667 -123.333 85 -258.333 139 -405l43 -133c15.333 46 31.333 90.333 48 133l166 476z" />
    <glyph glyph-name="x" unicode="x" horiz-adv-x="1093" 
d="M277 650l-104 163.997c-13.333 20.667 -31 35 -53 43l-98 27l-5 48c88 -2 181.667 -3 281 -3c76 0 155 1 237 3l5 -48l-80 -22l148 -245l170 243l-75 24l-6 48c52.667 -2 104.667 -3 156 -3c63.333 0 122.333 1 177 3l5 -48l-105 -26
c-17.333 -5.33301 -33.333 -17.666 -48 -36.999c-67.333 -85.333 -140.333 -183 -219 -293l266 -416c12.667 -19.333 30 -32.666 52 -39.999l96 -27l6 -48c-88 2 -181.667 3 -281 3c-75.333 0 -154 -1 -236 -3l-5 48l79 22l-172 272l-188 -270l75 -24l5 -48
c-50.667 2 -101.667 3 -153 3c-64 0 -127 -1 -189 -3l-5 48l108 26c21.333 6.66699 41 21.334 59 44.001l234 313z" />
    <glyph glyph-name="y" unicode="y" horiz-adv-x="1049" 
d="M-36 932c88.667 -2 169.002 -3 241.002 -3c93.333 0 192.666 1 297.999 3l5 -48l-125 -32l74 -187c23.333 -59.333 54.333 -134.333 93 -225c17.333 -38 36 -82.333 56 -133l61 155l149 392l-104 30l-5 48c52 -2 113.333 -3 184 -3c61.333 0 120 1 176 3l5 -48l-96 -26
c-21.333 -6.66699 -36.666 -20.334 -45.999 -41.001l-78 -184c-86.667 -207.333 -154 -379.333 -202 -516c-30.667 -88.667 -58.334 -179.167 -83.001 -271.5s-44.334 -173.5 -59.001 -243.5c-7.33301 -38 -21 -64 -41 -78s-65 -21 -135 -21
c-73.333 0 -143.333 2.66699 -210 8l-5 46c77.333 10 131.333 31.333 162 64c44 46 111.667 170 203 372l7 19l-53 15l-327 789c-8 20.667 -23 34.334 -45 41.001l-96 27z" />
    <glyph glyph-name="z" unicode="z" horiz-adv-x="1041" 
d="M75 9l248 404l252 420h-315l-65 -204l-49 -7c-14.667 104 -31 204.333 -49 301l3 9c133.333 -2 259 -3 377 -3c182.667 0 338.334 1 467.001 3l8 -11l-245 -403.5l-247 -418.5h318l125 210l53 7c-12 -104.667 -20.333 -208.667 -25 -312l-7 -7
c-114.667 2 -242.334 3 -383.001 3c-196.667 0 -349.667 -1 -459 -3z" />
    <glyph glyph-name="braceleft" unicode="{" horiz-adv-x="740" 
d="M70 618c59.333 10.667 103.001 29.5039 131.001 56.5039s42 79.167 42 156.5v442c0 100.667 26.833 173.667 80.5 219s153.5 67.666 299.5 66.999l2 -54c-46.667 -10 -82.667 -21.833 -108 -35.5s-43.833 -30.334 -55.5 -50.001s-18.5 -43.167 -20.5 -70.5s-3 -60 -3 -98
v-324c0 -100.667 -14.833 -175 -44.5 -223s-82.834 -82.667 -159.501 -104v-6c76.667 -21.333 129.834 -56 159.501 -104s44.5 -122.333 44.5 -223v-324c0 -38 1 -70.667 3 -98s8.83301 -50.833 20.5 -70.5s30.167 -36.334 55.5 -50.001s60.666 -25.5 105.999 -35.5l2 -54
c-147.333 -0.666992 -247.833 21.666 -301.5 66.999s-80.5 118.333 -80.5 219v442c0 77.333 -14 129.5 -42 156.5s-71 45.833 -129 56.5z" />
    <glyph glyph-name="bar" unicode="|" horiz-adv-x="722" 
d="M432 1525v-2033h-142v2033h142z" />
    <glyph glyph-name="braceright" unicode="}" horiz-adv-x="740" 
d="M670 576c-59.333 -10.667 -103.001 -29.5039 -131.001 -56.5039s-42 -79.167 -42 -156.5v-442c0 -100.667 -26.833 -173.667 -80.5 -219s-153.5 -67.666 -299.5 -66.999l-2 54c46.667 10 82.667 21.833 108 35.5s43.833 30.334 55.5 50.001s18.5 43.167 20.5 70.5
s3 60 3 98v324c0 100.667 14.833 175 44.5 223s82.834 82.667 159.501 104v6c-76.667 21.333 -129.834 56 -159.501 104s-44.5 122.333 -44.5 223v324c0 38 -1 70.667 -3 98s-8.83301 50.833 -20.5 70.5s-30.167 36.334 -55.5 50.001s-60.666 25.5 -105.999 35.5l-2 54
c147.333 0.666992 247.833 -21.666 301.5 -66.999s80.5 -118.333 80.5 -219v-442c0 -77.333 14 -129.5 42 -156.5s71 -45.833 129 -56.5z" />
    <glyph glyph-name="asciitilde" unicode="~" horiz-adv-x="1130" 
d="M83 507c92 58.667 178.336 88 259.003 88c44 0 86.5 -6.66699 127.5 -20s81.833 -28 122.5 -44c38 -15.333 75 -29.333 111 -42s73.333 -19 112 -19c65.333 0 142.666 29 231.999 87v-141c-86.667 -55.333 -170.334 -83 -251.001 -83c-44 0 -86.833 6.66699 -128.5 20
s-82.834 28 -123.501 44c-38.667 14.667 -76 28 -112 40s-73 18 -111 18c-66.667 0 -146 -29.667 -238 -89v141z" />
    <glyph glyph-name="exclamdown" unicode="&#xa1;" horiz-adv-x="564" 
d="M286 511l114 -950l-312 -12l-9 8l129 950zM248 652c-44.667 0 -81.334 13.667 -110.001 41s-43 63.666 -43 108.999s14.333 82.166 43 110.499s65.334 42.5 110.001 42.5c46 0 83.167 -14.167 111.5 -42.5s42.5 -65.166 42.5 -110.499s-14.167 -81.666 -42.5 -108.999
s-65.5 -41 -111.5 -41z" />
    <glyph glyph-name="cent" unicode="&#xa2;" horiz-adv-x="929" 
d="M637 1085l-3.99902 -146.001c82 -4 165.333 -22.333 250 -55l-32 -135.5c-10 -44.333 -19.667 -91.833 -29 -142.5l-51 -8l-72 232c-20.667 5.33301 -43.334 8.33301 -68.001 9l-18 -713c30 -6 62.333 -9 97 -9c51.333 0 109 8 173 24l7 -59
c-90 -51.333 -183.333 -80.666 -280 -87.999l-3 -145l-92 -8l3 152c-132.667 10 -237.667 55.5 -315 136.5s-116 183.833 -116 308.5c0 134.667 41.333 248 124 340s192.667 145 330 159l4 140zM377.001 484.999c0 -164.667 48.333 -273.666 145 -326.999l17 668
c-108 -40.667 -162 -154.334 -162 -341.001z" />
    <glyph glyph-name="sterling" unicode="&#xa3;" horiz-adv-x="1083" 
d="M131 493l-0.00195312 104.997h149l-3 94c-1.33301 112.667 37.5 203 116.5 271s183.833 102 314.5 102c87.333 0 176.666 -13 267.999 -39l6 -10l-56 -282l-46 -9l-63 224c-32.667 15.333 -67.667 23 -105 23c-55.333 0 -99.5 -23.167 -132.5 -69.5
s-48.833 -111.833 -47.5 -196.5l2 -108h257v-105h-255c-2 -125.333 -63 -227 -183 -305l1 -6h519l74 175l58 8l-22 -361l-7 -7c-116 2 -258.333 3 -427 3c-203.333 0 -364.666 -1 -483.999 -3l-5 80c44.667 14.667 81.834 28.834 111.501 42.501s53.167 30.834 70.5 51.501
s29.333 46.834 36 78.501s9.33398 73.5 8.00098 125.5l-3 118h-152z" />
    <glyph glyph-name="currency" unicode="&#xa4;" horiz-adv-x="1142" 
d="M165 1197l153.001 -154c72.667 50 156.667 75 252 75c98 0 182.333 -25 253 -75l154 154l100 -99l-155 -155c50 -74 75 -157 75 -249s-25.667 -176 -77 -252l156 -156l-99 -100l-158 158c-75.333 -48.667 -158.333 -73 -249 -73c-94.667 0 -177.334 24 -248.001 72
l-157 -157l-99 100l155 155c-51.333 72 -77 156.333 -77 253s24.667 180 74 250l-153 154zM292.001 694c0 -88 25.501 -160.499 76.501 -217.499s118.167 -85.5 201.5 -85.5s150.666 28.667 201.999 86s77 129.666 77 216.999c0 88.667 -26 161.5 -78 218.5
s-119 85.5 -201 85.5c-80.667 0 -147.167 -27.833 -199.5 -83.5s-78.5 -129.167 -78.5 -220.5z" />
    <glyph glyph-name="yen" unicode="&#xa5;" horiz-adv-x="1076" 
d="M160 263l-0.00585938 94.998h254v112h-255v95h198l-173 285l-29.5 47.5c-8.33301 13 -16.5 23.833 -24.5 32.5s-17 16 -27 22s-22.333 11.667 -37 17l-68 26l-3 48c32 -1.33301 68 -2.33301 108 -3s89.333 -1 148 -1c62.667 0 121.334 0.333008 176.001 1
s105.334 1.66699 152.001 3l5 -48l-76 -24c-16 -5.33301 -27.333 -11.666 -34 -18.999s-10 -16.333 -10 -27c0 -13.333 4.5 -28.833 13.5 -46.5l31.5 -59.5l138 -242l111 217l38.5 77.5c10.333 20.333 15.5 37.5 15.5 51.5c0 10.667 -3.5 19.834 -10.5 27.501
s-18.5 14.167 -34.5 19.5l-65 23l-3 50c28.667 -1.33301 58.834 -2.33301 90.501 -3s65.167 -1 100.5 -1c36 0 69.5 0.333008 100.5 1s59.833 1.66699 86.5 3l5 -48l-63 -26c-13.333 -5.33301 -24.666 -11.166 -33.999 -17.499s-17.666 -13.5 -24.999 -21.5
s-14.166 -17.167 -20.499 -27.5l-21.5 -36.5l-170 -301h197v-95h-248v-112h248v-95h-248c0 -30 0.166992 -57.667 0.5 -83s0.833008 -48.333 1.5 -69c0.666992 -8.66699 3.83398 -15.5 9.50098 -20.5s13.5 -9.16699 23.5 -12.5l106 -34l3 -47c-81.333 2 -175.333 3 -282 3
c-110 0 -205.333 -1 -286 -3l-4 47l112 36c8.66699 2.66699 15.667 6.16699 21 10.5s8.66602 13.166 9.99902 26.499c1.33301 14.667 2 28.667 2 42v41v63h-254z" />
    <glyph glyph-name="brokenbar" unicode="&#xa6;" horiz-adv-x="742" 
d="M290 854v671h162v-671h-162zM290 -68v671h162v-671h-162z" />
    <glyph glyph-name="section" unicode="&#xa7;" horiz-adv-x="1154" 
d="M777 1305c-45.333 16.667 -95.333 24.999 -150 24.999c-74.667 0 -138.667 -16.5 -192 -49.5s-80 -75.833 -80 -128.5c0 -30 8.33301 -56.167 25 -78.5s38.667 -42 66 -59s59 -32.667 95 -47l111 -42.5c44 -16 87.5 -33.5 130.5 -52.5s81.667 -41.833 116 -68.5
s62.166 -58.5 83.499 -95.5s32 -81.5 32 -133.5c0 -126.667 -66.333 -226.667 -199 -300c104 -63.333 156 -148 156 -254c0 -121.333 -49 -215.666 -147 -282.999s-229.667 -101 -395 -101c-121.333 0 -240.333 19 -357 57l-6 9l53 360l62 10l75 -306
c48 -22 101.333 -33 160 -33c82.667 0 150.334 17 203.001 51s79 81 79 141c0 30.667 -8.33301 57.334 -25 80.001s-38.667 42.667 -66 60s-59 33.166 -95 47.499l-111 42.5c-43.333 16 -86.5 33.5 -129.5 52.5s-81.667 41.667 -116 68s-62.166 57.666 -83.499 93.999
s-32 80.5 -32 132.5c0 124.667 72 221.334 216 290.001c-115.333 64 -173 151.667 -173 263c0 113.333 48.667 202.833 146 268.5s224.666 98.5 381.999 98.5c104 0 220.333 -15.333 349 -46l6 -9l-61 -322l-55 -9zM767 455.999c0 24.667 -4.82812 47 -14.4951 67
s-22.834 38 -39.501 54s-36.334 30.667 -59.001 44s-47.334 25.666 -74.001 36.999c-34.667 15.333 -71 29.833 -109 43.5s-76 28.167 -114 43.5c-47.333 -33.333 -71 -74.333 -71 -123c0 -25.333 5 -47.833 15 -67.5s23.667 -37.5 41 -53.5s37.666 -30.667 60.999 -44
s48.666 -25.666 75.999 -36.999c36 -15.333 73.667 -30 113 -44s78 -29.333 116 -46c39.333 34.667 59 76.667 59 126z" />
    <glyph glyph-name="dieresis" unicode="&#xa8;" horiz-adv-x="840" 
d="M348 1294c0 -42.667 -13.5 -76.832 -40.5 -102.499s-61.833 -38.5 -104.5 -38.5c-40 0 -72.833 12.167 -98.5 36.5s-38.5 56.166 -38.5 95.499c0 42.667 13.5 76.5 40.5 101.5s62.167 37.5 105.5 37.5c40 0 72.667 -11.5 98 -34.5s38 -54.833 38 -95.5zM774 1294
c0 -42.667 -13.5 -76.832 -40.5 -102.499s-61.833 -38.5 -104.5 -38.5c-40 0 -72.833 12.167 -98.5 36.5s-38.5 56.166 -38.5 95.499c0 42.667 13.5 76.5 40.5 101.5s62.167 37.5 105.5 37.5c40 0 72.667 -11.5 98 -34.5s38 -54.833 38 -95.5zM0 930.004z" />
    <glyph glyph-name="copyright" unicode="&#xa9;" horiz-adv-x="1631" 
d="M818 1386c204.667 0 375 -67.001 511 -201.001s204 -304 204 -510c0 -197.333 -68 -362.166 -204 -494.499s-307.333 -198.5 -514 -198.5s-378.167 66.167 -514.5 198.5s-204.5 298.833 -204.5 499.5c0 205.333 69 374.333 207 507s309.667 199 515 199zM816 1291
c-178 0 -322.334 -57.001 -433.001 -171.001s-166 -259.333 -166 -436c0 -177.333 55.833 -322.833 167.5 -436.5s256.5 -170.5 434.5 -170.5c174.667 0 317.334 56 428.001 168s166 256.667 166 434c0 180.667 -56 327.834 -168 441.501s-255 170.5 -429 170.5z
M1076 780.998l-40 -5.99902l-56 211c-28 12 -57.667 18 -89 18c-77.333 0 -137.166 -27.167 -179.499 -81.5s-63.5 -126.166 -63.5 -215.499c0 -96.667 28.167 -172.334 84.5 -227.001s131.166 -82 224.499 -82c54 0 110.667 14 170 42l12 -44
c-90.667 -66 -191.667 -99 -303 -99c-122 0 -224.667 34.667 -308 104s-125 162.666 -125 279.999c0 124 45 220.833 135 290.5s206 104.5 348 104.5c76 0 154 -10 234 -30l4 -7z" />
    <glyph glyph-name="ordfeminine" unicode="&#xaa;" horiz-adv-x="723" 
d="M402 913c-54 0 -92.333 -6.66699 -115 -20s-34 -36.333 -34 -69c0 -29.333 7.33301 -50.333 22 -63s33 -19 55 -19c26 0 49.667 9.66699 71 29zM99 1143c96 46 187.669 69 275.002 69c80.667 0 140.667 -14 180 -42s59 -68 59 -120l-4 -216
c-1.33301 -25.333 -1 -45.833 1 -61.5s6.66699 -27.667 14 -36s18.166 -14.333 32.499 -18s35.166 -5.5 62.499 -5.5l4 -35c-70 -24 -130.333 -36 -181 -36c-68.667 0 -113.667 25.333 -135 76c-53.333 -50.667 -109.666 -76 -168.999 -76
c-56.667 0 -103.834 14 -141.501 42s-56.5 67 -56.5 117c0 64 30.167 110.667 90.5 140s150.833 44 271.5 44l1 35c0.666992 32 -9.83301 55.667 -31.5 71s-55.167 23 -100.5 23c-42 0 -92.333 -10.333 -151 -31zM50.002 402v91h645v-91h-645z" />
    <glyph glyph-name="guillemotleft" unicode="&#xab;" horiz-adv-x="1058" 
d="M466 61c-128 154.667 -253.667 284.668 -377 390.001l-4 37c126.667 106 253.667 236.333 381 391l56 -29c-56.667 -124 -125 -249 -205 -375c80 -130.667 148.667 -259.334 206 -386.001zM886 61.001c-128 154.667 -253.667 284.668 -377 390.001l-4 37
c126.667 106 253.667 236.333 381 391l56 -29c-56.667 -124 -125 -249 -205 -375c80 -130.667 148.667 -259.334 206 -386.001z" />
    <glyph glyph-name="logicalnot" unicode="&#xac;" horiz-adv-x="1130" 
d="M83 532h964v-542h-141v401h-823v141z" />
    <glyph glyph-name="registered" unicode="&#xae;" horiz-adv-x="848" 
d="M436 1409c107.333 0 193.666 -31 258.999 -93s98 -146.333 98 -253c0 -108.667 -33.167 -195.167 -99.5 -259.5s-154.166 -96.5 -263.499 -96.5c-106.667 0 -192.5 32.167 -257.5 96.5s-97.5 149.833 -97.5 256.5c0 105.333 34.167 189.833 102.5 253.5
s154.5 95.5 258.5 95.5zM431 1357c-83.333 0 -151.168 -26.333 -203.501 -79s-78.5 -125 -78.5 -217c0 -93.333 26 -167 78 -221s120.667 -81 206 -81c86.667 0 155.834 25.833 207.501 77.5s77.5 126.5 77.5 224.5c0 90.667 -26.333 162.667 -79 216s-122 80 -208 80z
M389.998 1021l-0.00195312 -43.9971c0 -13.333 0.333008 -25.333 1 -36c0.666992 -10 3.66699 -15.667 9 -17l40 -11l1 -19c-16.667 0.666992 -32.5 1 -47.5 1h-45.5h-54.5c-18.333 0 -36.166 -0.333008 -53.499 -1l-2 19l49 14c6.66699 2.66699 10.334 7 11.001 13
c0.666992 10.667 1 23 1 37v45v102v39c0 11.333 -0.333008 21.666 -1 30.999c-0.666992 8 -4.66699 13 -12 15l-47 13l-1 21c17.333 -0.666992 34.333 -1.16699 51 -1.5s33.334 -0.5 50.001 -0.5c10 0 25.833 0.666992 47.5 2s39.834 2 54.501 2c98 0 147 -29.333 147 -88
c0 -40.667 -26.333 -71 -79 -91c19.333 -28.667 35.166 -53.834 47.499 -75.501s26.166 -39.834 41.499 -54.501c8 -8 15 -13.5 21 -16.5s16 -5.83301 30 -8.5l2 -18c-18.667 -4 -38.667 -6 -60 -6c-18.667 0 -33.667 1.5 -45 4.5s-22 8.5 -32 16.5
c-8.66699 7.33301 -19.5 21.833 -32.5 43.5l-37.5 62.5c-7.33301 14.667 -13 23.667 -17 27s-10.667 5 -20 5h-17v-25zM389.996 1080c6 -0.666992 14.333 -1.00098 25 -1.00098c53.333 0 80 22 80 66c0 22.667 -6 39.334 -18 50.001s-31.333 16 -58 16
c-7.33301 0 -17 -0.666992 -29 -2v-129z" />
    <glyph glyph-name="macron" unicode="&#xaf;" horiz-adv-x="840" 
d="M133 1184v122h573v-122h-573zM0 930z" />
    <glyph glyph-name="macron" unicode="&#x2c9;" horiz-adv-x="840" 
d="M133 1184v122h573v-122h-573zM0 930z" />
    <glyph glyph-name="degree" unicode="&#xb0;" horiz-adv-x="702" 
d="M165 1095c0 -60 17.999 -109.001 53.999 -147.001v1c36.667 -36.667 84 -55 142 -55c28.667 0 55 5 79 15s44.667 23.833 62 41.5s30.833 38.834 40.5 63.501s14.5 51.667 14.5 81c0 30 -4.83301 57.333 -14.5 82s-23 46 -40 64s-37.667 32 -62 42s-50.833 15 -79.5 15
c-29.333 0 -56 -5 -80 -15s-44.667 -23.833 -62 -41.5s-30.666 -39 -39.999 -64s-14 -52.5 -14 -82.5zM49.999 1094c0 44.667 8 86.166 24 124.499s38 71.333 66 99s60.833 49.334 98.5 65.001s78.5 23.5 122.5 23.5s84.833 -7.5 122.5 -22.5s70.5 -36.167 98.5 -63.5
s50 -60 66 -98s24 -80 24 -126c0 -90.667 -30 -165 -90 -223h1c-30 -30 -63.5 -52 -100.5 -66s-77.5 -21 -121.5 -21c-43.333 0 -83.833 7.66699 -121.5 23s-70.5 36.666 -98.5 63.999s-50.167 59.833 -66.5 97.5s-24.5 78.834 -24.5 123.501z" />
    <glyph glyph-name="plusminus" unicode="&#xb1;" horiz-adv-x="1130" 
d="M83 703h412v322h141v-322h411v-141h-411v-321h-141v321h-412v141zM83 141h964v-141h-964v141z" />
    <glyph glyph-name="uni00B2" unicode="&#xb2;" horiz-adv-x="738" 
d="M616 1261c0 -42 -7.83594 -81.332 -23.5029 -117.999s-40.167 -73.334 -73.5 -110.001s-75.666 -75 -126.999 -115s-113 -84.667 -185 -134l1 -4h370l57 121l37 7l-13 -243l-8 -9c-60.667 1.33301 -160.667 2 -300 2c-145.333 0 -245.666 -0.666992 -300.999 -2l-4 79
c42 32 82.167 64.167 120.5 96.5l102.5 88.5c30.667 27.333 56 53.333 76 78s35.833 48.667 47.5 72s19.834 46.5 24.501 69.5s7 46.833 7 71.5c0 60 -15 105.833 -45 137.5s-72.333 47.5 -127 47.5c-54 0 -108.333 -13.667 -163 -41l-28 56
c37.333 22.667 76.833 41.5 118.5 56.5s90.5 22.5 146.5 22.5c84.667 0 154.167 -20.667 208.5 -62s81.5 -97 81.5 -167z" />
    <glyph glyph-name="uni00B3" unicode="&#xb3;" horiz-adv-x="738" 
d="M141 1124c89.333 3.33301 157.833 17.8291 205.5 43.4961s71.5 62.5 71.5 110.5c0 37.333 -12.5 67.166 -37.5 89.499s-60.833 33.5 -107.5 33.5c-69.333 0 -136.333 -15.667 -201 -47l-28 57c94.667 52.667 194.667 79 300 79c90 0 157.833 -15.333 203.5 -46
s68.5 -73 68.5 -127c0 -41.333 -19 -78.833 -57 -112.5s-93.333 -58.5 -166 -74.5v-4c84.667 -1.33301 150.5 -18.666 197.5 -51.999s70.5 -76.666 70.5 -129.999c0 -44 -12.333 -84.833 -37 -122.5s-62.5 -70.167 -113.5 -97.5s-115.5 -48.666 -193.5 -63.999
s-170 -22.666 -276 -21.999l-5 63c82.667 0 151.167 6.66699 205.5 20s97.5 30.333 129.5 51s54.333 44.167 67 70.5s19 52.5 19 78.5c0 46.667 -16.833 82.834 -50.5 108.501s-85.5 38.5 -155.5 38.5c-29.333 0 -64.333 -3 -105 -9z" />
    <glyph glyph-name="acute" unicode="&#xb4;" horiz-adv-x="840" 
d="M445 1422h242l-248 -378h-84zM0 930z" />
    <glyph glyph-name="uni00B5" unicode="&#xb5;" horiz-adv-x="1267" 
d="M170 -494l-0.000976562 1136c0 94.667 -3.66699 182.334 -11 263.001c101.333 14.667 196.333 32.667 285 54l12 -8c-4.66699 -87.333 -7 -182.333 -7 -285v-318c0 -70 15 -119.833 45 -149.5s69.667 -44.5 119 -44.5c34.667 0 68.334 8.33301 101.001 25
s60.667 40 84 70v393c0 96 -4 183.667 -12 263c102 14.667 197.333 32.667 286 54l12 -8c-4.66699 -87.333 -7 -182.333 -7 -285v-184c0 -134 1 -230.667 3 -290c2 -38 9 -64 21 -78c13.333 -13.333 33 -22.333 59 -27s62 -7.33398 108 -8.00098l6 -49
c-112 -36.667 -205 -55 -279 -55c-58.667 0 -104.5 12.167 -137.5 36.5s-52.833 64.833 -59.5 121.5c-25.333 -54 -57 -95.333 -95 -124s-77.667 -43 -119 -43c-62 0 -115.333 31.667 -160 95c5.33301 -155.333 19.666 -330 42.999 -524
c-99.333 -10.667 -193.666 -23.334 -282.999 -38.001z" />
    <glyph glyph-name="paragraph" unicode="&#xb6;" horiz-adv-x="1228" 
d="M949 -308l-190.002 -10l-9 8l61 1614l-90 3l-35 -810c-26 -2.66699 -53.333 -4 -82 -4c-184 0 -327.333 41.667 -430 125s-154 201.333 -154 354c0 138 45.167 244.5 135.5 319.5s221.166 112.5 392.499 112.5c47.333 0 98.333 -1.33301 153 -4s110.334 -4 167.001 -4
c40.667 0 82.834 0.333008 126.501 1s85.834 1.66699 126.501 3l5 -51l-170 -42c-16 -3.33301 -24.667 -14 -26 -32c-0.666992 -20.667 -1 -43.167 -1 -67.5v-88.5z" />
    <glyph glyph-name="periodcentered" unicode="&#xb7;" horiz-adv-x="585" 
d="M294 665c46 0 84.333 -14.667 115 -44s46 -68 46 -116c0 -46.667 -15.333 -85.167 -46 -115.5s-69 -45.5 -115 -45.5c-48.667 0 -88.167 15.167 -118.5 45.5s-45.5 68.833 -45.5 115.5c0 48 15.167 86.667 45.5 116s69.833 44 118.5 44z" />
    <glyph glyph-name="periodcentered" unicode="&#x2219;" horiz-adv-x="585" 
d="M294 665c46 0 84.333 -14.667 115 -44s46 -68 46 -116c0 -46.667 -15.333 -85.167 -46 -115.5s-69 -45.5 -115 -45.5c-48.667 0 -88.167 15.167 -118.5 45.5s-45.5 68.833 -45.5 115.5c0 48 15.167 86.667 45.5 116s69.833 44 118.5 44z" />
    <glyph glyph-name="cedilla" unicode="&#xb8;" horiz-adv-x="840" 
d="M239 -192l148 192.001h91l-78 -105c78 -33.333 117 -78 117 -134c0 -74.667 -71 -159.667 -213 -255l-38 41c65.333 53.333 98 102.666 98 147.999c0 49.333 -40.333 84.333 -121 105z" />
    <glyph glyph-name="uni00B9" unicode="&#xb9;" horiz-adv-x="738" 
d="M468 744c0 -10.667 5.66699 -17.667 17 -21l139 -29l2 -38c-86 1.33301 -170.333 2 -253 2c-88 0 -171.667 -0.666992 -251 -2l-2 38l143 29c10 2.66699 15 9 15 19c0.666992 19.333 1 41.833 1 67.5v73.5v228c0 52.667 -0.166992 99.5 -0.5 140.5
s-1.16602 81.5 -2.49902 121.5l-171 20l-4 43c131.333 14 252.666 27.667 363.999 41l9 -9c-2.66699 -44 -4.5 -89.5 -5.5 -136.5s-1.5 -95.5 -1.5 -145.5v-280v-91c0 -26 0.333008 -49.667 1 -71z" />
    <glyph glyph-name="ordmasculine" unicode="&#xba;" horiz-adv-x="791" 
d="M68 401v91h653v-91h-653zM277 933c0 -65.333 9.5 -118.333 28.5 -159s49.833 -61 92.5 -61c40 0 69.333 17.833 88 53.5s28 89.167 28 160.5c0 66 -10 118.167 -30 156.5s-50.333 57.5 -91 57.5c-40 0 -69.333 -17.333 -88 -52s-28 -86.667 -28 -156zM742 938
c0 -88 -33.167 -159.333 -99.5 -214s-151.5 -82 -255.5 -82c-103.333 0 -185.5 25.833 -246.5 77.5s-91.5 119.167 -91.5 202.5c0 84.667 32.167 154.167 96.5 208.5s150.5 81.5 258.5 81.5c104 0 186.333 -25.167 247 -75.5s91 -116.5 91 -198.5z" />
    <glyph glyph-name="guillemotright" unicode="&#xbb;" horiz-adv-x="1058" 
d="M172 879c128 -154.667 253.667 -284.668 377 -390.001l4 -37c-126.667 -106 -253.667 -236.333 -381 -391l-56 29c56.667 124 125 249 205 375c-80 130.667 -148.667 259.334 -206 386.001zM592 878.999c128 -154.667 253.667 -284.668 377 -390.001l4 -37
c-126.667 -106 -253.667 -236.333 -381 -391l-56 29c56.667 124 125 249 205 375c-80 130.667 -148.667 259.334 -206 386.001z" />
    <glyph glyph-name="onequarter" unicode="&#xbc;" horiz-adv-x="1687" 
d="M488 744c0 -10.667 5.66699 -17.667 17 -21l139 -29l2 -38c-86 1.33301 -170.333 2 -253 2c-88 0 -171.667 -0.666992 -251 -2l-2 38l143 29c10 2.66699 15 9 15 19c0.666992 19.333 1 41.833 1 67.5v73.5v228c0 52.667 -0.166992 99.5 -0.5 140.5
s-1.16602 81.5 -2.49902 121.5l-171 20l-4 43c131.333 14 252.666 27.667 363.999 41l9 -9c-2.66699 -44 -4.5 -89.5 -5.5 -136.5s-1.5 -95.5 -1.5 -145.5v-280v-91c0 -26 0.333008 -49.667 1 -71zM388 10l946 1477l95 -67l-947 -1477zM1316 310v295l-59.5 -69.5l-65.5 -78
l-63 -78l-53 -69.5h241zM1523 62c18 -4 36.333 -8.33301 55 -13s37 -9 55 -13l1 -38c-66 1.33301 -140.333 2 -223 2c-92 -0 -166.333 -0.666992 -223 -2l-5 38l117 26c10 2 15 8.33301 15 19c0.666992 22 1 44.333 1 67v70h-161h-90c-34.667 0 -70.667 -0.333008 -108 -1
l-4 65l107.5 126.5l113 140.5l110.5 143l99 134l126 5c-1.33301 -42.667 -2.33301 -85 -3 -127s-1 -81.667 -1 -119v-275h135l3 -93c-20 0.666992 -42 1 -66 1h-72v-76c0 -19.333 0.333008 -39 1 -59c1.33301 -11.333 7 -18.333 17 -21z" />
    <glyph glyph-name="onehalf" unicode="&#xbd;" horiz-adv-x="1687" 
d="M488 744c0 -10.667 5.66699 -17.667 17 -21l139 -29l2 -38c-86 1.33301 -170.333 2 -253 2c-88 0 -171.667 -0.666992 -251 -2l-2 38l143 29c10 2.66699 15 9 15 19c0.666992 19.333 1 41.833 1 67.5v73.5v228c0 52.667 -0.166992 99.5 -0.5 140.5
s-1.16602 81.5 -2.49902 121.5l-171 20l-4 43c131.333 14 252.666 27.667 363.999 41l9 -9c-2.66699 -44 -4.5 -89.5 -5.5 -136.5s-1.5 -95.5 -1.5 -145.5v-280v-91c0 -26 0.333008 -49.667 1 -71zM338 10l946 1477l95 -67l-947 -1477zM1565 603
c0 -42 -7.83594 -81.332 -23.5029 -117.999s-40.167 -73.334 -73.5 -110.001s-75.666 -75 -126.999 -115s-113 -84.667 -185 -134l1 -4h370l57 121l37 7l-13 -243l-8 -9c-60.667 1.33301 -160.667 2 -300 2c-145.333 -0 -245.666 -0.666992 -300.999 -2l-4 79
c42 32 82.167 64.167 120.5 96.5l102.5 88.5c30.667 27.333 56 53.333 76 78s35.833 48.667 47.5 72s19.834 46.5 24.501 69.5s7 46.833 7 71.5c0 60 -15 105.833 -45 137.5s-72.333 47.5 -127 47.5c-54 0 -108.333 -13.667 -163 -41l-28 56
c37.333 22.667 76.833 41.5 118.5 56.5s90.5 22.5 146.5 22.5c84.667 0 154.167 -20.667 208.5 -62s81.5 -97 81.5 -167z" />
    <glyph glyph-name="threequarters" unicode="&#xbe;" horiz-adv-x="1687" 
d="M161 1124c89.333 3.33301 157.833 17.8291 205.5 43.4961s71.5 62.5 71.5 110.5c0 37.333 -12.5 67.166 -37.5 89.499s-60.833 33.5 -107.5 33.5c-69.333 0 -136.333 -15.667 -201 -47l-28 57c94.667 52.667 194.667 79 300 79c90 0 157.833 -15.333 203.5 -46
s68.5 -73 68.5 -127c0 -41.333 -19 -78.833 -57 -112.5s-93.333 -58.5 -166 -74.5v-4c84.667 -1.33301 150.5 -18.666 197.5 -51.999s70.5 -76.666 70.5 -129.999c0 -44 -12.333 -84.833 -37 -122.5s-62.5 -70.167 -113.5 -97.5s-115.5 -48.666 -193.5 -63.999
s-170 -22.666 -276 -21.999l-5 63c82.667 0 151.167 6.66699 205.5 20s97.5 30.333 129.5 51s54.333 44.167 67 70.5s19 52.5 19 78.5c0 46.667 -16.833 82.834 -50.5 108.501s-85.5 38.5 -155.5 38.5c-29.333 0 -64.333 -3 -105 -9zM368 9.99609l946 1477l95 -67
l-947 -1477zM1316 309.996v295l-59.5 -69.5l-65.5 -78l-63 -78l-53 -69.5h241zM1523 61.9961c18 -4 36.333 -8.33301 55 -13s37 -9 55 -13l1 -38c-66 1.33301 -140.333 2 -223 2c-92 0 -166.333 -0.666992 -223 -2l-5 38l117 26c10 2 15 8.33301 15 19
c0.666992 22 1 44.333 1 67v70h-161h-90c-34.667 0 -70.667 -0.333008 -108 -1l-4 65l107.5 126.5l113 140.5l110.5 143l99 134l126 5c-1.33301 -42.667 -2.33301 -85 -3 -127s-1 -81.667 -1 -119v-275h135l3 -93c-20 0.666992 -42 1 -66 1h-72v-76
c0 -19.333 0.333008 -39 1 -59c1.33301 -11.333 7 -18.333 17 -21z" />
    <glyph glyph-name="questiondown" unicode="&#xbf;" horiz-adv-x="915" 
d="M678 -97l55 8.99805l67 -306l-6 -9c-135.333 -38.667 -254.333 -58 -357 -58c-115.333 0 -207 26 -275 78s-102 126 -102 222c0 41.333 5.66699 78.166 17 110.499s26.666 61.833 45.999 88.5s41.833 51.5 67.5 74.5s52.834 45.5 81.501 67.5l75 58
c21.333 16.667 39 32.334 53 47.001s24.5 29.5 31.5 44.5s10.5 32.167 10.5 51.5c0 28.667 -14.667 63.667 -44 105l60 38c128.667 -116 193 -208.333 193 -277c0 -23.333 -3.83301 -44.666 -11.5 -63.999s-19.167 -38.166 -34.5 -56.499s-34 -37.166 -56 -56.499l-77 -65
l-81 -68.5c-22 -19 -40 -36.833 -54 -53.5s-24 -33.334 -30 -50.001s-9 -36 -9 -58c0 -42.667 16.833 -77 50.5 -103s76.5 -39 128.5 -39c45.333 0 91.333 8.66699 138 26zM464 651.998c-44.667 0 -81.334 13.667 -110.001 41s-43 63.666 -43 108.999
s14.333 82.166 43 110.499s65.334 42.5 110.001 42.5c46 0 83.167 -14.167 111.5 -42.5s42.5 -65.166 42.5 -110.499s-14.167 -81.666 -42.5 -108.999s-65.5 -41 -111.5 -41z" />
    <glyph glyph-name="Agrave" unicode="&#xc0;" horiz-adv-x="1371" 
d="M380 444l-70.999 -187.001c-14 -36.667 -24.833 -66.167 -32.5 -88.5s-11.5 -39.5 -11.5 -51.5c0 -11.333 3 -20 9 -26s15.333 -10.667 28 -14l96 -28l3 -52c-96.667 2 -175.334 3 -236.001 3c-63.333 0 -135.666 -1 -216.999 -3l-5 50l107 32
c25.333 7.33301 44 19.5 56 36.5s25.333 42.833 40 77.5l498 1213l108 16l431 -1216c16.667 -46.667 31.834 -78.167 45.501 -94.5s33.167 -28.166 58.5 -35.499l98 -29l3 -50c-90 2 -180.667 3 -272 3c-120.667 0 -238.334 -1 -353.001 -3l-5 50l99 29c13.333 4 23 9 29 15
s9 15 9 27c0 13.333 -3.33301 30.833 -10 52.5s-16.334 50.167 -29.001 85.5l-66 188h-410zM596.001 1018l-39 -108l-137 -362h334l-123 361zM413.001 1662l156 138l350 -275l-31 -52l-475 174v15zM275.001 1400z" />
    <glyph glyph-name="Aacute" unicode="&#xc1;" horiz-adv-x="1371" 
d="M380 444l-70.999 -187.001c-14 -36.667 -24.833 -66.167 -32.5 -88.5s-11.5 -39.5 -11.5 -51.5c0 -11.333 3 -20 9 -26s15.333 -10.667 28 -14l96 -28l3 -52c-96.667 2 -175.334 3 -236.001 3c-63.333 0 -135.666 -1 -216.999 -3l-5 50l107 32
c25.333 7.33301 44 19.5 56 36.5s25.333 42.833 40 77.5l498 1213l108 16l431 -1216c16.667 -46.667 31.834 -78.167 45.501 -94.5s33.167 -28.166 58.5 -35.499l98 -29l3 -50c-90 2 -180.667 3 -272 3c-120.667 0 -238.334 -1 -353.001 -3l-5 50l99 29c13.333 4 23 9 29 15
s9 15 9 27c0 13.333 -3.33301 30.833 -10 52.5s-16.334 50.167 -29.001 85.5l-66 188h-410zM596.001 1018l-39 -108l-137 -362h334l-123 361zM977.001 1647l-475 -174l-31 52l350 275l156 -138v-15zM275.001 1400z" />
    <glyph glyph-name="Acircumflex" unicode="&#xc2;" horiz-adv-x="1371" 
d="M380 444l-70.999 -187.001c-14 -36.667 -24.833 -66.167 -32.5 -88.5s-11.5 -39.5 -11.5 -51.5c0 -11.333 3 -20 9 -26s15.333 -10.667 28 -14l96 -28l3 -52c-96.667 2 -175.334 3 -236.001 3c-63.333 0 -135.666 -1 -216.999 -3l-5 50l107 32
c25.333 7.33301 44 19.5 56 36.5s25.333 42.833 40 77.5l498 1213l108 16l431 -1216c16.667 -46.667 31.834 -78.167 45.501 -94.5s33.167 -28.166 58.5 -35.499l98 -29l3 -50c-90 2 -180.667 3 -272 3c-120.667 0 -238.334 -1 -353.001 -3l-5 50l99 29c13.333 4 23 9 29 15
s9 15 9 27c0 13.333 -3.33301 30.833 -10 52.5s-16.334 50.167 -29.001 85.5l-66 188h-410zM596.001 1018l-39 -108l-137 -362h334l-123 361zM695.001 1620l-324 -147l-32 52l272 251h168l272 -251l-32 -52zM275.001 1400z" />
    <glyph glyph-name="Atilde" unicode="&#xc3;" horiz-adv-x="1371" 
d="M380 444l-70.999 -187.001c-14 -36.667 -24.833 -66.167 -32.5 -88.5s-11.5 -39.5 -11.5 -51.5c0 -11.333 3 -20 9 -26s15.333 -10.667 28 -14l96 -28l3 -52c-96.667 2 -175.334 3 -236.001 3c-63.333 0 -135.666 -1 -216.999 -3l-5 50l107 32
c25.333 7.33301 44 19.5 56 36.5s25.333 42.833 40 77.5l498 1213l108 16l431 -1216c16.667 -46.667 31.834 -78.167 45.501 -94.5s33.167 -28.166 58.5 -35.499l98 -29l3 -50c-90 2 -180.667 3 -272 3c-120.667 0 -238.334 -1 -353.001 -3l-5 50l99 29c13.333 4 23 9 29 15
s9 15 9 27c0 13.333 -3.33301 30.833 -10 52.5s-16.334 50.167 -29.001 85.5l-66 188h-410zM596.001 1018l-39 -108l-137 -362h334l-123 361zM1041 1736c-77.333 -142 -153.335 -213 -228.002 -213c-25.333 0 -48.666 5 -69.999 15s-45.333 22.667 -72 38l-32 19
c-9.33301 5.33301 -18.333 10 -27 14s-17 7 -25 9s-16 3 -24 3c-20 0 -38.167 -5.5 -54.5 -16.5s-44.166 -37.833 -83.499 -80.5l-51 43c47.333 76 87.5 129.5 120.5 160.5s67.833 46.5 104.5 46.5c20 0 39 -3.33301 57 -10c18 -7.33301 43.333 -20.333 76 -39l38.5 -21.5
c11 -6.33301 21 -11.5 30 -15.5s17.5 -7 25.5 -9s16.333 -3 25 -3c21.333 0 39.5 5.33301 54.5 16s42.167 37.667 81.5 81zM274.999 1400z" />
    <glyph glyph-name="Adieresis" unicode="&#xc4;" horiz-adv-x="1371" 
d="M380 444l-70.999 -187.001c-14 -36.667 -24.833 -66.167 -32.5 -88.5s-11.5 -39.5 -11.5 -51.5c0 -11.333 3 -20 9 -26s15.333 -10.667 28 -14l96 -28l3 -52c-96.667 2 -175.334 3 -236.001 3c-63.333 0 -135.666 -1 -216.999 -3l-5 50l107 32
c25.333 7.33301 44 19.5 56 36.5s25.333 42.833 40 77.5l498 1213l108 16l431 -1216c16.667 -46.667 31.834 -78.167 45.501 -94.5s33.167 -28.166 58.5 -35.499l98 -29l3 -50c-90 2 -180.667 3 -272 3c-120.667 0 -238.334 -1 -353.001 -3l-5 50l99 29c13.333 4 23 9 29 15
s9 15 9 27c0 13.333 -3.33301 30.833 -10 52.5s-16.334 50.167 -29.001 85.5l-66 188h-410zM596.001 1018l-39 -108l-137 -362h334l-123 361zM618.001 1655c0 -40.667 -12.5 -73.167 -37.5 -97.5s-57.5 -36.5 -97.5 -36.5c-38.667 0 -70 11.5 -94 34.5s-36 53.167 -36 90.5
c0 40.667 12.667 72.5 38 95.5s58.333 34.5 99 34.5c38 0 68.833 -10.5 92.5 -31.5s35.5 -50.833 35.5 -89.5zM1037 1655c0 -40.667 -12.668 -73.167 -38.001 -97.5s-58 -36.5 -98 -36.5c-38 0 -69 11.5 -93 34.5s-36 53.167 -36 90.5c0 40.667 12.5 72.5 37.5 95.5
s57.833 34.5 98.5 34.5c38.667 0 69.834 -10.5 93.501 -31.5s35.5 -50.833 35.5 -89.5zM275 1400z" />
    <glyph glyph-name="Aring" unicode="&#xc5;" horiz-adv-x="1371" 
d="M380 444l-70.999 -187.001c-14 -36.667 -24.833 -66.167 -32.5 -88.5s-11.5 -39.5 -11.5 -51.5c0 -11.333 3 -20 9 -26s15.333 -10.667 28 -14l96 -28l3 -52c-96.667 2 -175.334 3 -236.001 3c-63.333 0 -135.666 -1 -216.999 -3l-5 50l107 32
c25.333 7.33301 44 19.5 56 36.5s25.333 42.833 40 77.5l498 1213l108 16l431 -1216c16.667 -46.667 31.834 -78.167 45.501 -94.5s33.167 -28.166 58.5 -35.499l98 -29l3 -50c-90 2 -180.667 3 -272 3c-120.667 0 -238.334 -1 -353.001 -3l-5 50l99 29c13.333 4 23 9 29 15
s9 15 9 27c0 13.333 -3.33301 30.833 -10 52.5s-16.334 50.167 -29.001 85.5l-66 188h-410zM596.001 1018l-39 -108l-137 -362h334l-123 361zM690.001 1468c-67.333 0 -121 15.168 -161 45.501s-60 73.166 -60 128.499c0 58.667 22.667 105.667 68 141s99.666 53 162.999 53
s116 -16.5 158 -49.5s63 -77.5 63 -133.5c0 -56.667 -21.667 -101.667 -65 -135s-98.666 -50 -165.999 -50zM695.001 1534c28.667 0 52.332 9 70.999 27s28 46.333 28 85s-9.16699 69 -27.5 91s-42.166 33 -71.499 33s-53.166 -9.5 -71.499 -28.5s-27.5 -47.5 -27.5 -85.5
c0 -38.667 9.16699 -68.667 27.5 -90s42.166 -32 71.499 -32zM274.999 1400z" />
    <glyph glyph-name="AE" unicode="&#xc6;" horiz-adv-x="1897" 
d="M384 -3c-99.333 2 -178.999 2.99902 -238.999 2.99902c-32 0 -67.5 -0.166992 -106.5 -0.5s-74.833 -1.16602 -107.5 -2.49902l-5 50l105 32c16 4.66699 29.333 10.167 40 16.5s20 14 28 23s15.5 19.5 22.5 31.5s14.5 25.667 22.5 41l573 1073
c4 7.33301 6.5 12.5 7.5 15.5s1.5 5.83301 1.5 8.5c0 9.33301 -6.33301 16 -19 20l-141 41l-3 51c46.667 -1.33301 92.167 -2.33301 136.5 -3s87.5 -1 129.5 -1h461c74.667 0 152 0.333008 232 1s164 1.66699 252 3l7 -8l-62 -333l-54 -8l-64 243h-367v-551h34
c30 0 60.167 0.166992 90.5 0.5s62.5 0.833008 96.5 1.5c17.333 0.666992 28.666 9.66699 33.999 27l36 137l66 3c-2 -97.333 -3 -169.666 -3 -216.999c0 -46.667 1 -118 3 -214l-66 -5l-37 141c-5.33301 18 -15.666 27.333 -30.999 28
c-34 0.666992 -66.667 1.16699 -98 1.5s-62 0.5 -92 0.5h-33v-323c0 -36.667 0.166992 -73.167 0.5 -109.5s0.833008 -72.5 1.5 -108.5h380l126 263l61 9l-24 -374l-7 -7c-166 2 -327.667 3 -485 3h-245c-86.667 0 -175.334 -1 -266.001 -3l-5 50l134 37
c16.667 4.66699 25.667 15 27 31c0.666992 26.667 1.16699 56.5 1.5 89.5s0.5 69.5 0.5 109.5v333h-415l-218 -432c-13.333 -25.333 -23.5 -46.333 -30.5 -63s-10.5 -30.334 -10.5 -41.001c0 -9.33301 2.5 -16.5 7.5 -21.5s13.167 -9.16699 24.5 -12.5l89 -28zM934.001 1294
h-87l-279 -551h366v551z" />
    <glyph glyph-name="Ccedilla" unicode="&#xc7;" horiz-adv-x="1351" 
d="M649 -192l121.002 158c-200.667 12 -362.667 82.333 -486 211s-185 296.334 -185 503.001c0 228.667 73.667 409.667 221 543s339.666 200 576.999 200c117.333 0 237.333 -13.667 360 -41l6 -10l-65 -350l-55 -9l-76 287c-52.667 16.667 -109.667 25 -171 25
c-147.333 0 -261.333 -55.167 -342 -165.5s-121 -254.833 -121 -433.5c0 -190.667 47.5 -342.667 142.5 -456s226.833 -170 395.5 -170c94 0 193 19 297 57l13 -57c-124.667 -84.667 -264.334 -129.667 -419.001 -135l-52 -70c78 -33.333 117 -78 117 -134
c0 -74.667 -71 -159.667 -213 -255l-38 41c65.333 53.333 98 102.666 98 147.999c0 49.333 -40.333 84.333 -121 105z" />
    <glyph glyph-name="Egrave" unicode="&#xc8;" horiz-adv-x="1233" 
d="M353 1396l253 0.000976562c162 0 330 1.33301 504 4l7 -8l-62 -333l-54 -8l-64 243h-387v-531h54c58 0 120.333 0.666992 187 2c17.333 0.666992 28.666 9.66699 33.999 27l36 137l66 3c-2 -96.667 -3 -169 -3 -217c0 -46.667 1 -118 3 -214l-66 -5l-37 141
c-5.33301 18 -15.666 27.333 -30.999 28c-68 1.33301 -131.333 2 -190 2h-53v-343c0 -73.333 0.666992 -146 2 -218h400l126 263l61 9l-24 -374l-7 -7c-166 2 -327.667 3 -485 3h-265c-86 0 -174.667 -1 -266 -3l-5 50l134 37c16.667 4.66699 25.667 15 27 31
c0.666992 26.667 1.16699 56.5 1.5 89.5s0.5 69.5 0.5 109.5v797c0 33.333 -0.166992 63.666 -0.5 90.999s-0.833008 52.333 -1.5 75c-0.666992 17.333 -8.66699 28.333 -24 33l-134 39l-3 51c93.333 -2.66699 182 -4 266 -4zM355 1662l156 138l350 -275l-31 -52l-475 174
v15zM217 1400z" />
    <glyph glyph-name="Eacute" unicode="&#xc9;" horiz-adv-x="1233" 
d="M353 1396l253 0.000976562c162 0 330 1.33301 504 4l7 -8l-62 -333l-54 -8l-64 243h-387v-531h54c58 0 120.333 0.666992 187 2c17.333 0.666992 28.666 9.66699 33.999 27l36 137l66 3c-2 -96.667 -3 -169 -3 -217c0 -46.667 1 -118 3 -214l-66 -5l-37 141
c-5.33301 18 -15.666 27.333 -30.999 28c-68 1.33301 -131.333 2 -190 2h-53v-343c0 -73.333 0.666992 -146 2 -218h400l126 263l61 9l-24 -374l-7 -7c-166 2 -327.667 3 -485 3h-265c-86 0 -174.667 -1 -266 -3l-5 50l134 37c16.667 4.66699 25.667 15 27 31
c0.666992 26.667 1.16699 56.5 1.5 89.5s0.5 69.5 0.5 109.5v797c0 33.333 -0.166992 63.666 -0.5 90.999s-0.833008 52.333 -1.5 75c-0.666992 17.333 -8.66699 28.333 -24 33l-134 39l-3 51c93.333 -2.66699 182 -4 266 -4zM919 1647l-475 -174l-31 52l350 275l156 -138
v-15zM217 1400z" />
    <glyph glyph-name="Ecircumflex" unicode="&#xca;" horiz-adv-x="1233" 
d="M353 1396l253 0.000976562c162 0 330 1.33301 504 4l7 -8l-62 -333l-54 -8l-64 243h-387v-531h54c58 0 120.333 0.666992 187 2c17.333 0.666992 28.666 9.66699 33.999 27l36 137l66 3c-2 -96.667 -3 -169 -3 -217c0 -46.667 1 -118 3 -214l-66 -5l-37 141
c-5.33301 18 -15.666 27.333 -30.999 28c-68 1.33301 -131.333 2 -190 2h-53v-343c0 -73.333 0.666992 -146 2 -218h400l126 263l61 9l-24 -374l-7 -7c-166 2 -327.667 3 -485 3h-265c-86 0 -174.667 -1 -266 -3l-5 50l134 37c16.667 4.66699 25.667 15 27 31
c0.666992 26.667 1.16699 56.5 1.5 89.5s0.5 69.5 0.5 109.5v797c0 33.333 -0.166992 63.666 -0.5 90.999s-0.833008 52.333 -1.5 75c-0.666992 17.333 -8.66699 28.333 -24 33l-134 39l-3 51c93.333 -2.66699 182 -4 266 -4zM637 1620l-324 -147l-32 52l272 251h168
l272 -251l-32 -52zM217 1400z" />
    <glyph glyph-name="Edieresis" unicode="&#xcb;" horiz-adv-x="1233" 
d="M353 1396l253 0.000976562c162 0 330 1.33301 504 4l7 -8l-62 -333l-54 -8l-64 243h-387v-531h54c58 0 120.333 0.666992 187 2c17.333 0.666992 28.666 9.66699 33.999 27l36 137l66 3c-2 -96.667 -3 -169 -3 -217c0 -46.667 1 -118 3 -214l-66 -5l-37 141
c-5.33301 18 -15.666 27.333 -30.999 28c-68 1.33301 -131.333 2 -190 2h-53v-343c0 -73.333 0.666992 -146 2 -218h400l126 263l61 9l-24 -374l-7 -7c-166 2 -327.667 3 -485 3h-265c-86 0 -174.667 -1 -266 -3l-5 50l134 37c16.667 4.66699 25.667 15 27 31
c0.666992 26.667 1.16699 56.5 1.5 89.5s0.5 69.5 0.5 109.5v797c0 33.333 -0.166992 63.666 -0.5 90.999s-0.833008 52.333 -1.5 75c-0.666992 17.333 -8.66699 28.333 -24 33l-134 39l-3 51c93.333 -2.66699 182 -4 266 -4zM560 1655c0 -40.667 -12.5 -73.167 -37.5 -97.5
s-57.5 -36.5 -97.5 -36.5c-38.667 0 -70 11.5 -94 34.5s-36 53.167 -36 90.5c0 40.667 12.667 72.5 38 95.5s58.333 34.5 99 34.5c38 0 68.833 -10.5 92.5 -31.5s35.5 -50.833 35.5 -89.5zM979 1655c0 -40.667 -12.668 -73.167 -38.001 -97.5s-58 -36.5 -98 -36.5
c-38 0 -69 11.5 -93 34.5s-36 53.167 -36 90.5c0 40.667 12.5 72.5 37.5 95.5s57.833 34.5 98.5 34.5c38.667 0 69.834 -10.5 93.501 -31.5s35.5 -50.833 35.5 -89.5zM216.999 1400z" />
    <glyph glyph-name="Igrave" unicode="&#xcc;" horiz-adv-x="800" 
d="M550 314c0 -40 0.166992 -76.332 0.5 -108.999s0.833008 -62 1.5 -88c0.666992 -17.333 12 -29 34 -35l123 -35l3 -50c-92.667 2 -195.334 3 -308.001 3c-116.667 0 -220.667 -1 -312 -3l-5 50l134 37c16.667 4.66699 25.667 15 27 31
c0.666992 26.667 1.16699 56.5 1.5 89.5s0.5 69.5 0.5 109.5v797c0 33.333 -0.166992 63.666 -0.5 90.999s-0.833008 52.333 -1.5 75c-0.666992 17.333 -8.66699 28.333 -24 33l-134 39l-3 51c92.667 -2.66699 195.334 -4 308.001 -4c116 0 220 1.33301 312 4l5 -51
l-134 -37c-16 -4 -24.667 -14 -26 -30c-0.666992 -24 -1.16699 -49.833 -1.5 -77.5s-0.5 -57.5 -0.5 -89.5v-801zM119 1662l156 138l350 -275l-31 -52l-475 174v15zM-19 1400z" />
    <glyph glyph-name="Iacute" unicode="&#xcd;" horiz-adv-x="800" 
d="M550 314c0 -40 0.166992 -76.332 0.5 -108.999s0.833008 -62 1.5 -88c0.666992 -17.333 12 -29 34 -35l123 -35l3 -50c-92.667 2 -195.334 3 -308.001 3c-116.667 0 -220.667 -1 -312 -3l-5 50l134 37c16.667 4.66699 25.667 15 27 31
c0.666992 26.667 1.16699 56.5 1.5 89.5s0.5 69.5 0.5 109.5v797c0 33.333 -0.166992 63.666 -0.5 90.999s-0.833008 52.333 -1.5 75c-0.666992 17.333 -8.66699 28.333 -24 33l-134 39l-3 51c92.667 -2.66699 195.334 -4 308.001 -4c116 0 220 1.33301 312 4l5 -51
l-134 -37c-16 -4 -24.667 -14 -26 -30c-0.666992 -24 -1.16699 -49.833 -1.5 -77.5s-0.5 -57.5 -0.5 -89.5v-801zM683 1647l-475 -174l-31 52l350 275l156 -138v-15zM-19 1400z" />
    <glyph glyph-name="Icircumflex" unicode="&#xce;" horiz-adv-x="800" 
d="M550 314c0 -40 0.166992 -76.332 0.5 -108.999s0.833008 -62 1.5 -88c0.666992 -17.333 12 -29 34 -35l123 -35l3 -50c-92.667 2 -195.334 3 -308.001 3c-116.667 0 -220.667 -1 -312 -3l-5 50l134 37c16.667 4.66699 25.667 15 27 31
c0.666992 26.667 1.16699 56.5 1.5 89.5s0.5 69.5 0.5 109.5v797c0 33.333 -0.166992 63.666 -0.5 90.999s-0.833008 52.333 -1.5 75c-0.666992 17.333 -8.66699 28.333 -24 33l-134 39l-3 51c92.667 -2.66699 195.334 -4 308.001 -4c116 0 220 1.33301 312 4l5 -51
l-134 -37c-16 -4 -24.667 -14 -26 -30c-0.666992 -24 -1.16699 -49.833 -1.5 -77.5s-0.5 -57.5 -0.5 -89.5v-801zM401 1620l-324 -147l-32 52l272 251h168l272 -251l-32 -52zM-19 1400z" />
    <glyph glyph-name="Idieresis" unicode="&#xcf;" horiz-adv-x="800" 
d="M550 314c0 -40 0.166992 -76.332 0.5 -108.999s0.833008 -62 1.5 -88c0.666992 -17.333 12 -29 34 -35l123 -35l3 -50c-92.667 2 -195.334 3 -308.001 3c-116.667 0 -220.667 -1 -312 -3l-5 50l134 37c16.667 4.66699 25.667 15 27 31
c0.666992 26.667 1.16699 56.5 1.5 89.5s0.5 69.5 0.5 109.5v797c0 33.333 -0.166992 63.666 -0.5 90.999s-0.833008 52.333 -1.5 75c-0.666992 17.333 -8.66699 28.333 -24 33l-134 39l-3 51c92.667 -2.66699 195.334 -4 308.001 -4c116 0 220 1.33301 312 4l5 -51
l-134 -37c-16 -4 -24.667 -14 -26 -30c-0.666992 -24 -1.16699 -49.833 -1.5 -77.5s-0.5 -57.5 -0.5 -89.5v-801zM324 1655c0 -40.667 -12.5 -73.167 -37.5 -97.5s-57.5 -36.5 -97.5 -36.5c-38.667 0 -70 11.5 -94 34.5s-36 53.167 -36 90.5c0 40.667 12.667 72.5 38 95.5
s58.333 34.5 99 34.5c38 0 68.833 -10.5 92.5 -31.5s35.5 -50.833 35.5 -89.5zM743 1655c0 -40.667 -12.668 -73.167 -38.001 -97.5s-58 -36.5 -98 -36.5c-38 0 -69 11.5 -93 34.5s-36 53.167 -36 90.5c0 40.667 12.5 72.5 37.5 95.5s57.833 34.5 98.5 34.5
c38.667 0 69.834 -10.5 93.501 -31.5s35.5 -50.833 35.5 -89.5zM-19.001 1400z" />
    <glyph glyph-name="Eth" unicode="&#xd0;" horiz-adv-x="1569" 
d="M358 0c-86 0 -174.666 -0.999023 -265.999 -2.99902l-5 50l134 37c17.333 5.33301 26.333 15.666 27 30.999c0.666992 26.667 1.16699 56.5 1.5 89.5s0.5 69.5 0.5 109.5v371h-160v106h160v320c0 33.333 -0.166992 63.666 -0.5 90.999s-0.833008 52.333 -1.5 75
c-0.666992 17.333 -8.66699 28.333 -24 33l-134 39l-3 51c93.333 -2.66699 182.666 -4 267.999 -4c72 0 141 1.66699 207 5s134.333 5 205 5c248.667 0 435.667 -53.167 561 -159.5s188 -264.166 188 -473.499c0 -246.667 -69.5 -438.167 -208.5 -574.5
s-334.5 -204.5 -586.5 -204.5c-69.333 0 -131 1 -185 3s-113.333 3 -178 3zM550.001 102.001c32 -6 63.333 -9.83203 94 -11.499s61.667 -2.5 93 -2.5c144.667 0 254.667 51 330 153s113 257.333 113 466c0 203.333 -36 354.166 -108 452.499s-185.333 147.5 -340 147.5
c-24 0 -51 -0.666992 -81 -2s-63.667 -3.33301 -101 -6v-508h273v-106h-273v-583z" />
    <glyph glyph-name="Ntilde" unicode="&#xd1;" horiz-adv-x="1548" 
d="M358 119c0.666992 -19.333 9.00098 -31.001 25.001 -35.001l128 -35l3 -52c-90 2 -164 3 -222 3c-57.333 0 -132.333 -1 -225 -3l-5 50l134 37c17.333 5.33301 26.333 15.666 27 30.999c1.33301 54 2 120.333 2 199v797c0 66.667 -0.666992 122 -2 166
c-0.666992 17.333 -8.66699 28.333 -24 33l-134 39l-3 51c93.333 -2.66699 165 -4 215 -4c65.333 0 127.333 1.33301 186 4l665 -833l82 -106c-1.33301 46 -2 90.333 -2 133v521c0 64.667 -0.666992 120.334 -2 167.001c-0.666992 15.333 -9.33398 25.333 -26.001 30
l-128 35l-3 53c92 -2.66699 166.667 -4 224 -4c58.667 0 133 1.33301 223 4l5 -51l-136 -39c-15.333 -4.66699 -23.333 -15.667 -24 -33c-2 -44 -3 -99.333 -3 -166v-1111l-115 -11l-788 987l-81 107c1.33301 -49.333 2 -94.666 2 -135.999v-633
c0 -78.667 0.666992 -143.667 2 -195zM1131 1736c-77.333 -142 -153.335 -213 -228.002 -213c-25.333 0 -48.666 5 -69.999 15s-45.333 22.667 -72 38l-32 19c-9.33301 5.33301 -18.333 10 -27 14s-17 7 -25 9s-16 3 -24 3c-20 0 -38.167 -5.5 -54.5 -16.5
s-44.166 -37.833 -83.499 -80.5l-51 43c47.333 76 87.5 129.5 120.5 160.5s67.833 46.5 104.5 46.5c20 0 39 -3.33301 57 -10c18 -7.33301 43.333 -20.333 76 -39l38.5 -21.5c11 -6.33301 21 -11.5 30 -15.5s17.5 -7 25.5 -9s16.333 -3 25 -3c21.333 0 39.5 5.33301 54.5 16
s42.167 37.667 81.5 81zM364.999 1400z" />
    <glyph glyph-name="Ograve" unicode="&#xd2;" horiz-adv-x="1697" 
d="M435 717c0 -213.333 36 -376.5 108 -489.5s177.667 -169.5 317 -169.5c137.333 0 238.833 51.333 304.5 154s98.5 264 98.5 484c0 206.667 -34.667 365.5 -104 476.5s-176.666 166.5 -321.999 166.5c-140.667 0 -242.834 -51.5 -306.501 -154.5
s-95.5 -258.833 -95.5 -467.5zM1599 730c0 -230.667 -68 -416.167 -204 -556.5s-325.333 -210.5 -568 -210.5c-232 0 -411.333 64.833 -538 194.5s-190 305.167 -190 526.5c0 230.667 68.333 413.167 205 547.5s325.667 201.5 567 201.5c232 0 411.333 -62.833 538 -188.5
s190 -297.167 190 -514.5zM568 1662l156 138l350 -275l-31 -52l-475 174v15zM430 1400z" />
    <glyph glyph-name="Oacute" unicode="&#xd3;" horiz-adv-x="1697" 
d="M435 717c0 -213.333 36 -376.5 108 -489.5s177.667 -169.5 317 -169.5c137.333 0 238.833 51.333 304.5 154s98.5 264 98.5 484c0 206.667 -34.667 365.5 -104 476.5s-176.666 166.5 -321.999 166.5c-140.667 0 -242.834 -51.5 -306.501 -154.5
s-95.5 -258.833 -95.5 -467.5zM1599 730c0 -230.667 -68 -416.167 -204 -556.5s-325.333 -210.5 -568 -210.5c-232 0 -411.333 64.833 -538 194.5s-190 305.167 -190 526.5c0 230.667 68.333 413.167 205 547.5s325.667 201.5 567 201.5c232 0 411.333 -62.833 538 -188.5
s190 -297.167 190 -514.5zM1132 1647l-475 -174l-31 52l350 275l156 -138v-15zM430 1400z" />
    <glyph glyph-name="Ocircumflex" unicode="&#xd4;" horiz-adv-x="1697" 
d="M435 717c0 -213.333 36 -376.5 108 -489.5s177.667 -169.5 317 -169.5c137.333 0 238.833 51.333 304.5 154s98.5 264 98.5 484c0 206.667 -34.667 365.5 -104 476.5s-176.666 166.5 -321.999 166.5c-140.667 0 -242.834 -51.5 -306.501 -154.5
s-95.5 -258.833 -95.5 -467.5zM1599 730c0 -230.667 -68 -416.167 -204 -556.5s-325.333 -210.5 -568 -210.5c-232 0 -411.333 64.833 -538 194.5s-190 305.167 -190 526.5c0 230.667 68.333 413.167 205 547.5s325.667 201.5 567 201.5c232 0 411.333 -62.833 538 -188.5
s190 -297.167 190 -514.5zM850 1620l-324 -147l-32 52l272 251h168l272 -251l-32 -52zM430 1400z" />
    <glyph glyph-name="Otilde" unicode="&#xd5;" horiz-adv-x="1697" 
d="M435 717c0 -213.333 36 -376.5 108 -489.5s177.667 -169.5 317 -169.5c137.333 0 238.833 51.333 304.5 154s98.5 264 98.5 484c0 206.667 -34.667 365.5 -104 476.5s-176.666 166.5 -321.999 166.5c-140.667 0 -242.834 -51.5 -306.501 -154.5
s-95.5 -258.833 -95.5 -467.5zM1599 730c0 -230.667 -68 -416.167 -204 -556.5s-325.333 -210.5 -568 -210.5c-232 0 -411.333 64.833 -538 194.5s-190 305.167 -190 526.5c0 230.667 68.333 413.167 205 547.5s325.667 201.5 567 201.5c232 0 411.333 -62.833 538 -188.5
s190 -297.167 190 -514.5zM1196 1736c-77.333 -142 -153.335 -213 -228.002 -213c-25.333 0 -48.666 5 -69.999 15s-45.333 22.667 -72 38l-32 19c-9.33301 5.33301 -18.333 10 -27 14s-17 7 -25 9s-16 3 -24 3c-20 0 -38.167 -5.5 -54.5 -16.5
s-44.166 -37.833 -83.499 -80.5l-51 43c47.333 76 87.5 129.5 120.5 160.5s67.833 46.5 104.5 46.5c20 0 39 -3.33301 57 -10c18 -7.33301 43.333 -20.333 76 -39l38.5 -21.5c11 -6.33301 21 -11.5 30 -15.5s17.5 -7 25.5 -9s16.333 -3 25 -3c21.333 0 39.5 5.33301 54.5 16
s42.167 37.667 81.5 81zM429.998 1400z" />
    <glyph glyph-name="Odieresis" unicode="&#xd6;" horiz-adv-x="1697" 
d="M435 717c0 -213.333 36 -376.5 108 -489.5s177.667 -169.5 317 -169.5c137.333 0 238.833 51.333 304.5 154s98.5 264 98.5 484c0 206.667 -34.667 365.5 -104 476.5s-176.666 166.5 -321.999 166.5c-140.667 0 -242.834 -51.5 -306.501 -154.5
s-95.5 -258.833 -95.5 -467.5zM1599 730c0 -230.667 -68 -416.167 -204 -556.5s-325.333 -210.5 -568 -210.5c-232 0 -411.333 64.833 -538 194.5s-190 305.167 -190 526.5c0 230.667 68.333 413.167 205 547.5s325.667 201.5 567 201.5c232 0 411.333 -62.833 538 -188.5
s190 -297.167 190 -514.5zM773 1655c0 -40.667 -12.5 -73.167 -37.5 -97.5s-57.5 -36.5 -97.5 -36.5c-38.667 0 -70 11.5 -94 34.5s-36 53.167 -36 90.5c0 40.667 12.667 72.5 38 95.5s58.333 34.5 99 34.5c38 0 68.833 -10.5 92.5 -31.5s35.5 -50.833 35.5 -89.5z
M1192 1655c0 -40.667 -12.668 -73.167 -38.001 -97.5s-58 -36.5 -98 -36.5c-38 0 -69 11.5 -93 34.5s-36 53.167 -36 90.5c0 40.667 12.5 72.5 37.5 95.5s57.833 34.5 98.5 34.5c38.667 0 69.834 -10.5 93.501 -31.5s35.5 -50.833 35.5 -89.5zM429.999 1400z" />
    <glyph glyph-name="multiply" unicode="&#xd7;" horiz-adv-x="1130" 
d="M199 927l366 -366l366 366l100 -99l-366 -367l365 -365l-99 -100l-366 366l-366 -366l-99 100l365 365l-366 367z" />
    <glyph glyph-name="Oslash" unicode="&#xd8;" horiz-adv-x="1697" 
d="M1599 730c0 -230.667 -68.001 -416.166 -204.001 -556.499s-325.333 -210.5 -568 -210.5c-162 0 -298 31.333 -408 94l-127 -165l-86 67l123 161c-153.333 131.333 -230 319.333 -230 564c0 230.667 68.333 413.167 205 547.5s325.667 201.5 567 201.5
c156.667 0 289.334 -28.667 398.001 -86l110 143l90 -62l-108 -141c158.667 -128.667 238 -314.334 238 -557.001zM859.999 58.001c137.333 0 238.833 51.333 304.5 154s98.5 264 98.5 484c0 155.333 -19.667 284 -59 386l-658 -859c72 -110 176.667 -165 314 -165z
M434.999 717.001c0 -154.667 19.001 -283 57.001 -385l656 857c-69.333 100 -173 150 -311 150c-140.667 0 -242.834 -51.5 -306.501 -154.5s-95.5 -258.833 -95.5 -467.5z" />
    <glyph glyph-name="Ugrave" unicode="&#xd9;" horiz-adv-x="1570" 
d="M50 1400c92.667 -2.66699 195.333 -4 308 -4c116 0 218.667 1.33301 308 4l5 -51l-130 -37c-16 -4 -24.667 -14 -26 -30c-0.666992 -24 -1.16699 -49.833 -1.5 -77.5s-0.5 -57.5 -0.5 -89.5v-551c0 -182 27.333 -307.833 82 -377.5s143.334 -104.5 266.001 -104.5
c120.667 0 211.167 36.833 271.5 110.5s90.5 193.167 90.5 358.5v564c0 32 -0.333008 61.833 -1 89.5s-1.33398 53.5 -2.00098 77.5c-0.666992 15.333 -9.33398 25.333 -26.001 30l-124 35l-3 53c88.667 -2.66699 165.334 -4 230.001 -4c60 0 135.333 1.33301 226 4l5 -51
l-136 -39c-16 -4.66699 -24.333 -15.667 -25 -33c-0.666992 -22.667 -1.16699 -47.667 -1.5 -75s-0.5 -57.666 -0.5 -90.999v-508c0 -229.333 -47.167 -393.833 -141.5 -493.5s-231.5 -149.5 -411.5 -149.5c-204.667 0 -355.667 47.5 -453 142.5s-146 247.167 -146 456.5
v552c0 33.333 -0.166992 63.666 -0.5 90.999s-0.833008 52.333 -1.5 75c-0.666992 17.333 -8.66699 28.333 -24 33l-134 39zM557.999 1662l156 138l350 -275l-31 -52l-475 174v15zM419.999 1400z" />
    <glyph glyph-name="Uacute" unicode="&#xda;" horiz-adv-x="1570" 
d="M50 1400c92.667 -2.66699 195.333 -4 308 -4c116 0 218.667 1.33301 308 4l5 -51l-130 -37c-16 -4 -24.667 -14 -26 -30c-0.666992 -24 -1.16699 -49.833 -1.5 -77.5s-0.5 -57.5 -0.5 -89.5v-551c0 -182 27.333 -307.833 82 -377.5s143.334 -104.5 266.001 -104.5
c120.667 0 211.167 36.833 271.5 110.5s90.5 193.167 90.5 358.5v564c0 32 -0.333008 61.833 -1 89.5s-1.33398 53.5 -2.00098 77.5c-0.666992 15.333 -9.33398 25.333 -26.001 30l-124 35l-3 53c88.667 -2.66699 165.334 -4 230.001 -4c60 0 135.333 1.33301 226 4l5 -51
l-136 -39c-16 -4.66699 -24.333 -15.667 -25 -33c-0.666992 -22.667 -1.16699 -47.667 -1.5 -75s-0.5 -57.666 -0.5 -90.999v-508c0 -229.333 -47.167 -393.833 -141.5 -493.5s-231.5 -149.5 -411.5 -149.5c-204.667 0 -355.667 47.5 -453 142.5s-146 247.167 -146 456.5
v552c0 33.333 -0.166992 63.666 -0.5 90.999s-0.833008 52.333 -1.5 75c-0.666992 17.333 -8.66699 28.333 -24 33l-134 39zM1122 1647l-475 -174l-31 52l350 275l156 -138v-15zM419.999 1400z" />
    <glyph glyph-name="Ucircumflex" unicode="&#xdb;" horiz-adv-x="1570" 
d="M50 1400c92.667 -2.66699 195.333 -4 308 -4c116 0 218.667 1.33301 308 4l5 -51l-130 -37c-16 -4 -24.667 -14 -26 -30c-0.666992 -24 -1.16699 -49.833 -1.5 -77.5s-0.5 -57.5 -0.5 -89.5v-551c0 -182 27.333 -307.833 82 -377.5s143.334 -104.5 266.001 -104.5
c120.667 0 211.167 36.833 271.5 110.5s90.5 193.167 90.5 358.5v564c0 32 -0.333008 61.833 -1 89.5s-1.33398 53.5 -2.00098 77.5c-0.666992 15.333 -9.33398 25.333 -26.001 30l-124 35l-3 53c88.667 -2.66699 165.334 -4 230.001 -4c60 0 135.333 1.33301 226 4l5 -51
l-136 -39c-16 -4.66699 -24.333 -15.667 -25 -33c-0.666992 -22.667 -1.16699 -47.667 -1.5 -75s-0.5 -57.666 -0.5 -90.999v-508c0 -229.333 -47.167 -393.833 -141.5 -493.5s-231.5 -149.5 -411.5 -149.5c-204.667 0 -355.667 47.5 -453 142.5s-146 247.167 -146 456.5
v552c0 33.333 -0.166992 63.666 -0.5 90.999s-0.833008 52.333 -1.5 75c-0.666992 17.333 -8.66699 28.333 -24 33l-134 39zM839.999 1620l-324 -147l-32 52l272 251h168l272 -251l-32 -52zM419.999 1400z" />
    <glyph glyph-name="Udieresis" unicode="&#xdc;" horiz-adv-x="1570" 
d="M50 1400c92.667 -2.66699 195.333 -4 308 -4c116 0 218.667 1.33301 308 4l5 -51l-130 -37c-16 -4 -24.667 -14 -26 -30c-0.666992 -24 -1.16699 -49.833 -1.5 -77.5s-0.5 -57.5 -0.5 -89.5v-551c0 -182 27.333 -307.833 82 -377.5s143.334 -104.5 266.001 -104.5
c120.667 0 211.167 36.833 271.5 110.5s90.5 193.167 90.5 358.5v564c0 32 -0.333008 61.833 -1 89.5s-1.33398 53.5 -2.00098 77.5c-0.666992 15.333 -9.33398 25.333 -26.001 30l-124 35l-3 53c88.667 -2.66699 165.334 -4 230.001 -4c60 0 135.333 1.33301 226 4l5 -51
l-136 -39c-16 -4.66699 -24.333 -15.667 -25 -33c-0.666992 -22.667 -1.16699 -47.667 -1.5 -75s-0.5 -57.666 -0.5 -90.999v-508c0 -229.333 -47.167 -393.833 -141.5 -493.5s-231.5 -149.5 -411.5 -149.5c-204.667 0 -355.667 47.5 -453 142.5s-146 247.167 -146 456.5
v552c0 33.333 -0.166992 63.666 -0.5 90.999s-0.833008 52.333 -1.5 75c-0.666992 17.333 -8.66699 28.333 -24 33l-134 39zM762.999 1655c0 -40.667 -12.5 -73.167 -37.5 -97.5s-57.5 -36.5 -97.5 -36.5c-38.667 0 -70 11.5 -94 34.5s-36 53.167 -36 90.5
c0 40.667 12.667 72.5 38 95.5s58.333 34.5 99 34.5c38 0 68.833 -10.5 92.5 -31.5s35.5 -50.833 35.5 -89.5zM1182 1655c0 -40.667 -12.668 -73.167 -38.001 -97.5s-58 -36.5 -98 -36.5c-38 0 -69 11.5 -93 34.5s-36 53.167 -36 90.5c0 40.667 12.5 72.5 37.5 95.5
s57.833 34.5 98.5 34.5c38.667 0 69.834 -10.5 93.501 -31.5s35.5 -50.833 35.5 -89.5zM419.998 1400z" />
    <glyph glyph-name="Yacute" unicode="&#xdd;" horiz-adv-x="1264" 
d="M744 757l191.999 381.999c18 33.333 32.333 61.666 43 84.999s16 42.333 16 57c0 20 -15 34 -45 42l-90 24l-3 53c74 -2.66699 151.667 -4 233 -4c74 0 147 1.33301 219 4l5 -51l-106 -31c-24 -8 -42.5 -19.833 -55.5 -35.5s-26.167 -35.5 -39.5 -59.5l-316 -585v-324
c0 -40 0.166992 -76.333 0.5 -109s0.833008 -62 1.5 -88c0.666992 -17.333 12.334 -29 35.001 -35l112 -35l3 -50c-86 2 -185.333 3 -298 3c-116 0 -216.667 -1 -302 -3l-5 50l124 37c16.667 4.66699 25.667 15 27 31c0.666992 26.667 1.33398 56.5 2.00098 89.5
s1 69.5 1 109.5v300l-325 582c-24.667 40.667 -44.834 69.834 -60.501 87.501s-36.5 30.5 -62.5 38.5l-96 27l-4 51c66 -2.66699 159.667 -4 281 -4c133.333 0 259.666 1.33301 378.999 4l5 -51l-102 -25c-15.333 -3.33301 -26.666 -8.16602 -33.999 -14.499
s-11 -14.5 -11 -24.5c0 -14 4.66699 -31 14 -51s22.333 -43.667 39 -71zM970.999 1647l-475 -174l-31 52l350 275l156 -138v-15zM268.999 1400z" />
    <glyph glyph-name="Thorn" unicode="&#xde;" horiz-adv-x="1326" 
d="M550 314c0 -40 0.166016 -76.332 0.499023 -108.999s0.833008 -62 1.5 -88c0.666992 -17.333 12 -29 34 -35l123 -35l3 -50c-92.667 2 -195.334 3 -308.001 3c-116.667 0 -220.667 -1 -312 -3l-5 50l134 37c16.667 4.66699 25.667 15 27 31
c0.666992 26.667 1.16699 56.5 1.5 89.5s0.5 69.5 0.5 109.5v797c0 33.333 -0.166992 63.666 -0.5 90.999s-0.833008 52.333 -1.5 75c-0.666992 17.333 -8.66699 28.333 -24 33l-134 39l-3 51c92.667 -2.66699 195.334 -4 308.001 -4c116 0 220 1.33301 312 4l5 -51
l-134 -37c-16 -4 -24.667 -14 -26 -30c-0.666992 -24 -1.33398 -50 -2.00098 -78v-56c57.333 2.66699 110 4 158 4c180 0 316.333 -31.167 409 -93.5s139 -154.833 139 -277.5c0 -144.667 -48.167 -257.167 -144.5 -337.5s-232.166 -120.5 -407.499 -120.5
c-47.333 0 -98.666 4.33301 -153.999 13v-22zM549.999 430.001c38 -7.33301 75.666 -11.001 112.999 -11.001c87.333 0 153.833 26.833 199.5 80.5s68.5 134.834 68.5 243.501c0 105.333 -21.667 183.833 -65 235.5s-111.666 77.5 -204.999 77.5
c-28.667 0 -65.667 -2 -111 -6v-620z" />
    <glyph glyph-name="germandbls" unicode="&#xdf;" horiz-adv-x="1386" 
d="M631 290l46.0029 8l72 -207c38 -14 86 -21 144 -21c55.333 0 99.833 11 133.5 33s50.5 55 50.5 99c0 23.333 -5.16699 44.333 -15.5 63s-24.333 36 -42 52s-37.834 31.167 -60.501 45.5s-46.334 28.5 -71.001 42.5l-90.5 54.5c-30.333 19 -57.666 40.5 -81.999 64.5
s-44.166 51.333 -59.499 82s-23 66 -23 106c0 122.667 82.333 218.667 247 288c4.66699 40.667 7 72.334 7 95.001c0 95.333 -16.167 172 -48.5 230s-77.833 87 -136.5 87c-74.667 0 -129.834 -30.5 -165.501 -91.5s-53.5 -187.5 -53.5 -379.5v-625
c0 -54 0.333008 -107.333 1 -160s1.66699 -105 3 -157c-43.333 0.666992 -91 1 -143 1c-99.333 0 -197.333 -1 -294 -3l-5 48l123 33c18 4.66699 27.667 15.334 29 32.001c2 40.667 3 84.334 3 131.001v574l-146 35l-9 54l156 13c-2 185.333 41 330 129 434
s213.667 156 377 156c146 0 256.833 -33.833 332.5 -101.5s113.5 -167.834 113.5 -300.501c0 -32 -2.66699 -64 -8 -96c-166.667 -43.333 -250 -114.666 -250 -213.999c0 -26.667 6.16699 -50.334 18.5 -71.001s28.166 -39.5 47.499 -56.5s41 -32.667 65 -47l72 -42.5
l86 -54.5c28.667 -19 54.167 -40.333 76.5 -64s40.333 -50.334 54 -80.001s20.5 -63.834 20.5 -102.501c0 -93.333 -40.167 -167.5 -120.5 -222.5s-187.166 -82.5 -320.499 -82.5c-110 0 -216.333 23 -319 69c11.333 44.667 21.666 87.667 30.999 129
s17.666 81.333 24.999 120z" />
    <glyph glyph-name="agrave" unicode="&#xe0;" horiz-adv-x="1097" 
d="M635 445c-104.667 0 -179.333 -13.332 -224 -39.999s-67 -72.334 -67 -137.001c0 -58.667 15.833 -100.5 47.5 -125.5s69.167 -37.5 112.5 -37.5c49.333 0 92.333 12.667 129 38zM146.001 858.001c142 64.667 278.666 97.001 409.999 97.001
c120 0 209.833 -26.833 269.5 -80.5s89.167 -130.834 88.5 -231.501l-5 -416c-1.33301 -34 -0.666016 -61.333 2.00098 -82s8.83398 -36.5 18.501 -47.5s24 -18.833 43 -23.5s46.5 -7.33398 82.5 -8.00098l6 -46c-93.333 -32 -173.666 -48 -240.999 -48
c-90.667 0 -150.334 35.667 -179.001 107c-84.667 -71.333 -174.334 -107 -269.001 -107c-92.667 0 -169 23.167 -229 69.5s-90 111.5 -90 195.5c0 104.667 48.5 181.334 145.5 230.001s242.5 73 436.5 73l1 75c0.666992 71.333 -16.5 123.833 -51.5 157.5
s-89.5 50.5 -163.5 50.5c-68.667 0 -151 -15 -247 -45zM596 1044h-84l-248 378h242zM115 930.002z" />
    <glyph glyph-name="aacute" unicode="&#xe1;" horiz-adv-x="1097" 
d="M635 445c-104.667 0 -179.333 -13.332 -224 -39.999s-67 -72.334 -67 -137.001c0 -58.667 15.833 -100.5 47.5 -125.5s69.167 -37.5 112.5 -37.5c49.333 0 92.333 12.667 129 38zM146.001 858.001c142 64.667 278.666 97.001 409.999 97.001
c120 0 209.833 -26.833 269.5 -80.5s89.167 -130.834 88.5 -231.501l-5 -416c-1.33301 -34 -0.666016 -61.333 2.00098 -82s8.83398 -36.5 18.501 -47.5s24 -18.833 43 -23.5s46.5 -7.33398 82.5 -8.00098l6 -46c-93.333 -32 -173.666 -48 -240.999 -48
c-90.667 0 -150.334 35.667 -179.001 107c-84.667 -71.333 -174.334 -107 -269.001 -107c-92.667 0 -169 23.167 -229 69.5s-90 111.5 -90 195.5c0 104.667 48.5 181.334 145.5 230.001s242.5 73 436.5 73l1 75c0.666992 71.333 -16.5 123.833 -51.5 157.5
s-89.5 50.5 -163.5 50.5c-68.667 0 -151 -15 -247 -45zM560 1422h242l-248 -378h-84zM115 930.002z" />
    <glyph glyph-name="acircumflex" unicode="&#xe2;" horiz-adv-x="1097" 
d="M635 445c-104.667 0 -179.333 -13.332 -224 -39.999s-67 -72.334 -67 -137.001c0 -58.667 15.833 -100.5 47.5 -125.5s69.167 -37.5 112.5 -37.5c49.333 0 92.333 12.667 129 38zM146.001 858.001c142 64.667 278.666 97.001 409.999 97.001
c120 0 209.833 -26.833 269.5 -80.5s89.167 -130.834 88.5 -231.501l-5 -416c-1.33301 -34 -0.666016 -61.333 2.00098 -82s8.83398 -36.5 18.501 -47.5s24 -18.833 43 -23.5s46.5 -7.33398 82.5 -8.00098l6 -46c-93.333 -32 -173.666 -48 -240.999 -48
c-90.667 0 -150.334 35.667 -179.001 107c-84.667 -71.333 -174.334 -107 -269.001 -107c-92.667 0 -169 23.167 -229 69.5s-90 111.5 -90 195.5c0 104.667 48.5 181.334 145.5 230.001s242.5 73 436.5 73l1 75c0.666992 71.333 -16.5 123.833 -51.5 157.5
s-89.5 50.5 -163.5 50.5c-68.667 0 -151 -15 -247 -45zM837 1044h-90l-214 224l-214 -224h-90l200 378h208zM115 930.002z" />
    <glyph glyph-name="atilde" unicode="&#xe3;" horiz-adv-x="1097" 
d="M635 445c-104.667 0 -179.333 -13.332 -224 -39.999s-67 -72.334 -67 -137.001c0 -58.667 15.833 -100.5 47.5 -125.5s69.167 -37.5 112.5 -37.5c49.333 0 92.333 12.667 129 38zM146.001 858.001c142 64.667 278.666 97.001 409.999 97.001
c120 0 209.833 -26.833 269.5 -80.5s89.167 -130.834 88.5 -231.501l-5 -416c-1.33301 -34 -0.666016 -61.333 2.00098 -82s8.83398 -36.5 18.501 -47.5s24 -18.833 43 -23.5s46.5 -7.33398 82.5 -8.00098l6 -46c-93.333 -32 -173.666 -48 -240.999 -48
c-90.667 0 -150.334 35.667 -179.001 107c-84.667 -71.333 -174.334 -107 -269.001 -107c-92.667 0 -169 23.167 -229 69.5s-90 111.5 -90 195.5c0 104.667 48.5 181.334 145.5 230.001s242.5 73 436.5 73l1 75c0.666992 71.333 -16.5 123.833 -51.5 157.5
s-89.5 50.5 -163.5 50.5c-68.667 0 -151 -15 -247 -45zM895 1332c-80 -146.667 -158.664 -220.002 -235.997 -220.002c-26 0 -50 5.16699 -72 15.5s-46.667 23.5 -74 39.5l-33.5 19.5c-9.66699 5.66699 -19 10.5 -28 14.5s-17.5 7 -25.5 9s-16.333 3 -25 3
c-20.667 0 -39.334 -5.66699 -56.001 -17s-45.334 -39 -86.001 -83l-53 44c48.667 78.667 90.167 134 124.5 166s70.166 48 107.499 48c20.667 0 40.334 -3.33301 59.001 -10c18.667 -7.33301 45 -20.666 79 -39.999l40 -22.5
c11.333 -6.33301 21.666 -11.666 30.999 -15.999s18 -7.5 26 -9.5s16.667 -3 26 -3c22 0 40.667 5.5 56 16.5s43.333 38.833 84 83.5zM115.003 930z" />
    <glyph glyph-name="adieresis" unicode="&#xe4;" horiz-adv-x="1097" 
d="M635 445c-104.667 0 -179.333 -13.332 -224 -39.999s-67 -72.334 -67 -137.001c0 -58.667 15.833 -100.5 47.5 -125.5s69.167 -37.5 112.5 -37.5c49.333 0 92.333 12.667 129 38zM146.001 858.001c142 64.667 278.666 97.001 409.999 97.001
c120 0 209.833 -26.833 269.5 -80.5s89.167 -130.834 88.5 -231.501l-5 -416c-1.33301 -34 -0.666016 -61.333 2.00098 -82s8.83398 -36.5 18.501 -47.5s24 -18.833 43 -23.5s46.5 -7.33398 82.5 -8.00098l6 -46c-93.333 -32 -173.666 -48 -240.999 -48
c-90.667 0 -150.334 35.667 -179.001 107c-84.667 -71.333 -174.334 -107 -269.001 -107c-92.667 0 -169 23.167 -229 69.5s-90 111.5 -90 195.5c0 104.667 48.5 181.334 145.5 230.001s242.5 73 436.5 73l1 75c0.666992 71.333 -16.5 123.833 -51.5 157.5
s-89.5 50.5 -163.5 50.5c-68.667 0 -151 -15 -247 -45zM463 1294c0 -42.667 -13.5 -76.832 -40.5 -102.499s-61.833 -38.5 -104.5 -38.5c-40 0 -72.833 12.167 -98.5 36.5s-38.5 56.166 -38.5 95.499c0 42.667 13.5 76.5 40.5 101.5s62.167 37.5 105.5 37.5
c40 0 72.667 -11.5 98 -34.5s38 -54.833 38 -95.5zM889 1294c0 -42.667 -13.5 -76.832 -40.5 -102.499s-61.833 -38.5 -104.5 -38.5c-40 0 -72.833 12.167 -98.5 36.5s-38.5 56.166 -38.5 95.499c0 42.667 13.5 76.5 40.5 101.5s62.167 37.5 105.5 37.5
c40 0 72.667 -11.5 98 -34.5s38 -54.833 38 -95.5zM115 930.006z" />
    <glyph glyph-name="aring" unicode="&#xe5;" horiz-adv-x="1097" 
d="M635 445c-104.667 0 -179.333 -13.332 -224 -39.999s-67 -72.334 -67 -137.001c0 -58.667 15.833 -100.5 47.5 -125.5s69.167 -37.5 112.5 -37.5c49.333 0 92.333 12.667 129 38zM146.001 858.001c142 64.667 278.666 97.001 409.999 97.001
c120 0 209.833 -26.833 269.5 -80.5s89.167 -130.834 88.5 -231.501l-5 -416c-1.33301 -34 -0.666016 -61.333 2.00098 -82s8.83398 -36.5 18.501 -47.5s24 -18.833 43 -23.5s46.5 -7.33398 82.5 -8.00098l6 -46c-93.333 -32 -173.666 -48 -240.999 -48
c-90.667 0 -150.334 35.667 -179.001 107c-84.667 -71.333 -174.334 -107 -269.001 -107c-92.667 0 -169 23.167 -229 69.5s-90 111.5 -90 195.5c0 104.667 48.5 181.334 145.5 230.001s242.5 73 436.5 73l1 75c0.666992 71.333 -16.5 123.833 -51.5 157.5
s-89.5 50.5 -163.5 50.5c-68.667 0 -151 -15 -247 -45zM530 1044c-70 0 -126 16.167 -168 48.5s-63 78.166 -63 137.499c0 62 23.667 111.833 71 149.5s104 56.5 170 56.5s121 -17.667 165 -53s66 -82.666 66 -141.999c0 -60 -22.667 -107.833 -68 -143.5
s-103 -53.5 -173 -53.5zM535 1114c30 0 54.667 9.49902 74 28.499s29 49.5 29 91.5c0 40.667 -9.5 72.834 -28.5 96.501s-43.833 35.5 -74.5 35.5s-55.5 -10 -74.5 -30s-28.5 -50.667 -28.5 -92c0 -40.667 9.5 -72.5 28.5 -95.5s43.833 -34.5 74.5 -34.5zM115 930.001z" />
    <glyph glyph-name="ae" unicode="&#xe6;" horiz-adv-x="1640" 
d="M146 858c142 64.667 278.333 97.001 409 97.001c127.333 0 220.666 -34 279.999 -102c88.667 68 194.667 102 318 102c131.333 0 232.833 -37.833 304.5 -113.5s107.5 -180.167 107.5 -313.5c0 -20.667 -1 -41.667 -3 -63h-639c0 -126.667 32.833 -217.5 98.5 -272.5
s173.5 -82.5 323.5 -82.5c72.667 0 142 6.33301 208 19l8 -63c-121.333 -62.667 -249 -94 -383 -94c-187.333 0 -333.333 50 -438 150c-111.333 -100 -229.666 -150 -354.999 -150c-100.667 0 -181.167 24.167 -241.5 72.5s-90.5 116.166 -90.5 203.499
c0 108.667 48.5 188.167 145.5 238.5s242.5 75.5 436.5 75.5l1 69c0.666992 66 -16.5 114.5 -51.5 145.5s-89.5 46.5 -163.5 46.5c-68.667 0 -151 -15 -247 -45zM635 465.001c-104.667 0 -179.332 -14.167 -223.999 -42.5s-67 -77.166 -67 -146.499
c0 -62.667 16.167 -106.834 48.5 -132.501s70.166 -38.5 113.499 -38.5c71.333 0 135 24 191 72c-41.333 72 -62 162.333 -62 271v17zM1261 562.001l0.000976562 25.999c0 98 -11.667 168.167 -35 210.5s-58.333 63.5 -105 63.5c-56.667 0 -101.834 -29.167 -135.501 -87.5
s-53.167 -129.166 -58.5 -212.499h334z" />
    <glyph glyph-name="ccedilla" unicode="&#xe7;" horiz-adv-x="992" 
d="M401 -192l128 166c-130 8.66699 -237.667 54.5 -323 137.5s-128 191.833 -128 326.5c0 154 51.167 278.667 153.5 374s232.833 143 391.5 143c100.667 0 197.667 -19 291 -57c-24 -94 -45 -192.667 -63 -296l-55 -9l-77 250c-18 6.66699 -42.333 10 -73 10
c-76 0 -138.333 -33.167 -187 -99.5s-73 -155.166 -73 -266.499c0 -130 30.833 -225.833 92.5 -287.5s149.5 -92.5 263.5 -92.5c54.667 0 112 6.33301 172 19l8 -60c-98 -55.333 -199 -86 -303 -92l-57 -79c78 -33.333 117 -78 117 -134c0 -74.667 -71 -159.667 -213 -255
l-38 41c65.333 53.333 98 102.666 98 147.999c0 49.333 -40.333 84.333 -121 105z" />
    <glyph glyph-name="egrave" unicode="&#xe8;" horiz-adv-x="1101" 
d="M1022 66c-123.333 -62.667 -253.333 -94 -390 -94c-162.667 0 -295.5 40.167 -398.5 120.5s-154.5 198.833 -154.5 355.5c0 149.333 49.5 271.166 148.5 365.499s225.167 141.5 378.5 141.5c134 0 237.5 -36.167 310.5 -108.5s109.5 -172.166 109.5 -299.499
c0 -19.333 -1 -39.333 -3 -60h-639c0 -134 32.833 -230.333 98.5 -289s173.5 -88 323.5 -88c72.667 0 142 6.33301 208 19zM722 584l0.000976562 24c0 90.667 -11.5 155.667 -34.5 195s-58.167 59 -105.5 59c-56.667 0 -101.834 -27.167 -135.501 -81.5
s-53.167 -119.833 -58.5 -196.5h334zM651.001 1044h-84l-248 378h242zM170.001 930z" />
    <glyph glyph-name="eacute" unicode="&#xe9;" horiz-adv-x="1101" 
d="M1022 66c-123.333 -62.667 -253.333 -94 -390 -94c-162.667 0 -295.5 40.167 -398.5 120.5s-154.5 198.833 -154.5 355.5c0 149.333 49.5 271.166 148.5 365.499s225.167 141.5 378.5 141.5c134 0 237.5 -36.167 310.5 -108.5s109.5 -172.166 109.5 -299.499
c0 -19.333 -1 -39.333 -3 -60h-639c0 -134 32.833 -230.333 98.5 -289s173.5 -88 323.5 -88c72.667 0 142 6.33301 208 19zM722 584l0.000976562 24c0 90.667 -11.5 155.667 -34.5 195s-58.167 59 -105.5 59c-56.667 0 -101.834 -27.167 -135.501 -81.5
s-53.167 -119.833 -58.5 -196.5h334zM615.001 1422h242l-248 -378h-84zM170.001 930z" />
    <glyph glyph-name="ecircumflex" unicode="&#xea;" horiz-adv-x="1101" 
d="M1022 66c-123.333 -62.667 -253.333 -94 -390 -94c-162.667 0 -295.5 40.167 -398.5 120.5s-154.5 198.833 -154.5 355.5c0 149.333 49.5 271.166 148.5 365.499s225.167 141.5 378.5 141.5c134 0 237.5 -36.167 310.5 -108.5s109.5 -172.166 109.5 -299.499
c0 -19.333 -1 -39.333 -3 -60h-639c0 -134 32.833 -230.333 98.5 -289s173.5 -88 323.5 -88c72.667 0 142 6.33301 208 19zM722 584l0.000976562 24c0 90.667 -11.5 155.667 -34.5 195s-58.167 59 -105.5 59c-56.667 0 -101.834 -27.167 -135.501 -81.5
s-53.167 -119.833 -58.5 -196.5h334zM892.001 1044h-90l-214 224l-214 -224h-90l200 378h208zM170.001 930z" />
    <glyph glyph-name="edieresis" unicode="&#xeb;" horiz-adv-x="1101" 
d="M1022 66c-123.333 -62.667 -253.333 -94 -390 -94c-162.667 0 -295.5 40.167 -398.5 120.5s-154.5 198.833 -154.5 355.5c0 149.333 49.5 271.166 148.5 365.499s225.167 141.5 378.5 141.5c134 0 237.5 -36.167 310.5 -108.5s109.5 -172.166 109.5 -299.499
c0 -19.333 -1 -39.333 -3 -60h-639c0 -134 32.833 -230.333 98.5 -289s173.5 -88 323.5 -88c72.667 0 142 6.33301 208 19zM722 584l0.000976562 24c0 90.667 -11.5 155.667 -34.5 195s-58.167 59 -105.5 59c-56.667 0 -101.834 -27.167 -135.501 -81.5
s-53.167 -119.833 -58.5 -196.5h334zM518.001 1294c0 -42.667 -13.5 -76.832 -40.5 -102.499s-61.833 -38.5 -104.5 -38.5c-40 0 -72.833 12.167 -98.5 36.5s-38.5 56.166 -38.5 95.499c0 42.667 13.5 76.5 40.5 101.5s62.167 37.5 105.5 37.5c40 0 72.667 -11.5 98 -34.5
s38 -54.833 38 -95.5zM944.001 1294c0 -42.667 -13.5 -76.832 -40.5 -102.499s-61.833 -38.5 -104.5 -38.5c-40 0 -72.833 12.167 -98.5 36.5s-38.5 56.166 -38.5 95.499c0 42.667 13.5 76.5 40.5 101.5s62.167 37.5 105.5 37.5c40 0 72.667 -11.5 98 -34.5
s38 -54.833 38 -95.5zM170.001 930.004z" />
    <glyph glyph-name="igrave" unicode="&#xec;" horiz-adv-x="679" 
d="M47 882c164 24.667 308.002 50.333 432.002 77l11 -8c-4 -92 -6 -190 -6 -294v-377c0 -79.333 0.666992 -134.666 2 -165.999c1.33301 -18 9.66602 -29.333 24.999 -34l125 -35l3 -48c-98.667 2 -196.667 3 -294 3c-99.333 0 -197.333 -1 -294 -3l-5 48l127 35
c15.333 4 23.666 14 24.999 30c1.33301 26 2 69.667 2 131v322c0 87.333 -1.33301 167.666 -4 240.999l-143 37zM392.002 1044h-84l-248 378h242zM-88.998 929.999z" />
    <glyph glyph-name="iacute" unicode="&#xed;" horiz-adv-x="679" 
d="M47 882c164 24.667 308.002 50.333 432.002 77l11 -8c-4 -92 -6 -190 -6 -294v-377c0 -79.333 0.666992 -134.666 2 -165.999c1.33301 -18 9.66602 -29.333 24.999 -34l125 -35l3 -48c-98.667 2 -196.667 3 -294 3c-99.333 0 -197.333 -1 -294 -3l-5 48l127 35
c15.333 4 23.666 14 24.999 30c1.33301 26 2 69.667 2 131v322c0 87.333 -1.33301 167.666 -4 240.999l-143 37zM356.002 1422h242l-248 -378h-84zM-88.998 929.999z" />
    <glyph glyph-name="icircumflex" unicode="&#xee;" horiz-adv-x="679" 
d="M47 882c164 24.667 308.002 50.333 432.002 77l11 -8c-4 -92 -6 -190 -6 -294v-377c0 -79.333 0.666992 -134.666 2 -165.999c1.33301 -18 9.66602 -29.333 24.999 -34l125 -35l3 -48c-98.667 2 -196.667 3 -294 3c-99.333 0 -197.333 -1 -294 -3l-5 48l127 35
c15.333 4 23.666 14 24.999 30c1.33301 26 2 69.667 2 131v322c0 87.333 -1.33301 167.666 -4 240.999l-143 37zM633.002 1044h-90l-214 224l-214 -224h-90l200 378h208zM-88.998 929.999z" />
    <glyph glyph-name="idieresis" unicode="&#xef;" horiz-adv-x="679" 
d="M47 882c164 24.667 308.002 50.333 432.002 77l11 -8c-4 -92 -6 -190 -6 -294v-377c0 -79.333 0.666992 -134.666 2 -165.999c1.33301 -18 9.66602 -29.333 24.999 -34l125 -35l3 -48c-98.667 2 -196.667 3 -294 3c-99.333 0 -197.333 -1 -294 -3l-5 48l127 35
c15.333 4 23.666 14 24.999 30c1.33301 26 2 69.667 2 131v322c0 87.333 -1.33301 167.666 -4 240.999l-143 37zM259.002 1294c0 -42.667 -13.5 -76.832 -40.5 -102.499s-61.833 -38.5 -104.5 -38.5c-40 0 -72.833 12.167 -98.5 36.5s-38.5 56.166 -38.5 95.499
c0 42.667 13.5 76.5 40.5 101.5s62.167 37.5 105.5 37.5c40 0 72.667 -11.5 98 -34.5s38 -54.833 38 -95.5zM685.002 1294c0 -42.667 -13.5 -76.832 -40.5 -102.499s-61.833 -38.5 -104.5 -38.5c-40 0 -72.833 12.167 -98.5 36.5s-38.5 56.166 -38.5 95.499
c0 42.667 13.5 76.5 40.5 101.5s62.167 37.5 105.5 37.5c40 0 72.667 -11.5 98 -34.5s38 -54.833 38 -95.5zM-88.998 930.003z" />
    <glyph glyph-name="eth" unicode="&#xf0;" horiz-adv-x="1234" 
d="M350 1026l-47 83.001l254 126c-86 82 -195.667 156 -329 222l2 19h352c70 -38.667 134.667 -82.667 194 -132l242 121l48 -80l-217 -109c192.667 -206.667 289 -446 289 -718c0 -182 -48.5 -325.167 -145.5 -429.5s-230.833 -156.5 -401.5 -156.5
c-150 0 -272.833 43.667 -368.5 131s-143.5 202.666 -143.5 345.999c0 146.667 45.167 266.167 135.5 358.5s204.833 138.5 343.5 138.5c98 0 179 -30.333 243 -91l8 3c-41.333 116 -102.333 218 -183 306zM833 502.001c0 113.333 -18.8311 199.334 -56.498 258.001
s-89.5 88 -155.5 88c-72.667 0 -129.334 -32.167 -170.001 -96.5s-61 -155.833 -61 -274.5c0 -124.667 19.167 -224.334 57.5 -299.001s93.166 -112 164.499 -112c74.667 0 130.167 38.833 166.5 116.5s54.5 184.167 54.5 319.5z" />
    <glyph glyph-name="ntilde" unicode="&#xf1;" horiz-adv-x="1310" 
d="M47 882c154 22.667 294.666 47.999 421.999 75.999l15 -8v-107c112.667 74.667 224 112 334 112c97.333 0 173.666 -26.5 228.999 -79.5s83 -128.167 83 -225.5v-351c0 -83.333 0.666992 -145 2 -185c0.666992 -18 9.33398 -29.333 26.001 -34l121 -35l3 -48
c-95.333 2 -191.333 3 -288 3c-100 0 -190 -1 -270 -3l-4 48l100 30c15.333 4.66699 23.666 14.667 24.999 30c0.666992 10 1 31 1 63v419c0 82 -16 140.833 -48 176.5s-79.667 53.5 -143 53.5c-55.333 0 -112.333 -16 -171 -48v-430
c0 -83.333 0.666992 -159.666 2 -228.999c0.666992 -18 8.33398 -29 23.001 -33l104 -32l2 -48c-82.667 2 -172.667 3 -270 3c-99.333 0 -197 -1 -293 -3l-5 48l129 35c14.667 4 22.334 14 23.001 30c0.666992 42.667 1 83.667 1 123v329c0 87.333 -1.33301 168 -4 242
l-143 37zM1010 1332c-80 -146.667 -158.664 -220.002 -235.997 -220.002c-26 0 -50 5.16699 -72 15.5s-46.667 23.5 -74 39.5l-33.5 19.5c-9.66699 5.66699 -19 10.5 -28 14.5s-17.5 7 -25.5 9s-16.333 3 -25 3c-20.667 0 -39.334 -5.66699 -56.001 -17
s-45.334 -39 -86.001 -83l-53 44c48.667 78.667 90.167 134 124.5 166s70.166 48 107.499 48c20.667 0 40.334 -3.33301 59.001 -10c18.667 -7.33301 45 -20.666 79 -39.999l40 -22.5c11.333 -6.33301 21.666 -11.666 30.999 -15.999s18 -7.5 26 -9.5s16.667 -3 26 -3
c22 0 40.667 5.5 56 16.5s43.333 38.833 84 83.5zM230.002 929.997z" />
    <glyph glyph-name="ograve" unicode="&#xf2;" horiz-adv-x="1226" 
d="M390 475c0 -121.333 18.167 -219.833 54.5 -295.5s94.5 -113.5 174.5 -113.5c74.667 0 129.5 33.333 164.5 100s52.5 165.667 52.5 297c0 123.333 -18.5 220.5 -55.5 291.5s-94.833 106.5 -173.5 106.5c-73.333 0 -127.833 -32 -163.5 -96s-53.5 -160.667 -53.5 -290z
M1146 483c0 -152 -50.666 -275.167 -151.999 -369.5s-233.333 -141.5 -396 -141.5c-158 0 -284 44.5 -378 133.5s-141 205.5 -141 349.5c0 146 49.333 265.833 148 359.5s232 140.5 400 140.5c159.333 0 285.666 -43.167 378.999 -129.5s140 -200.5 140 -342.5z
M675.001 1044h-84l-248 378h242zM194.001 930z" />
    <glyph glyph-name="oacute" unicode="&#xf3;" horiz-adv-x="1226" 
d="M390 475c0 -121.333 18.167 -219.833 54.5 -295.5s94.5 -113.5 174.5 -113.5c74.667 0 129.5 33.333 164.5 100s52.5 165.667 52.5 297c0 123.333 -18.5 220.5 -55.5 291.5s-94.833 106.5 -173.5 106.5c-73.333 0 -127.833 -32 -163.5 -96s-53.5 -160.667 -53.5 -290z
M1146 483c0 -152 -50.666 -275.167 -151.999 -369.5s-233.333 -141.5 -396 -141.5c-158 0 -284 44.5 -378 133.5s-141 205.5 -141 349.5c0 146 49.333 265.833 148 359.5s232 140.5 400 140.5c159.333 0 285.666 -43.167 378.999 -129.5s140 -200.5 140 -342.5z
M639.001 1422h242l-248 -378h-84zM194.001 930z" />
    <glyph glyph-name="ocircumflex" unicode="&#xf4;" horiz-adv-x="1226" 
d="M390 475c0 -121.333 18.167 -219.833 54.5 -295.5s94.5 -113.5 174.5 -113.5c74.667 0 129.5 33.333 164.5 100s52.5 165.667 52.5 297c0 123.333 -18.5 220.5 -55.5 291.5s-94.833 106.5 -173.5 106.5c-73.333 0 -127.833 -32 -163.5 -96s-53.5 -160.667 -53.5 -290z
M1146 483c0 -152 -50.666 -275.167 -151.999 -369.5s-233.333 -141.5 -396 -141.5c-158 0 -284 44.5 -378 133.5s-141 205.5 -141 349.5c0 146 49.333 265.833 148 359.5s232 140.5 400 140.5c159.333 0 285.666 -43.167 378.999 -129.5s140 -200.5 140 -342.5z
M916.001 1044h-90l-214 224l-214 -224h-90l200 378h208zM194.001 930z" />
    <glyph glyph-name="otilde" unicode="&#xf5;" horiz-adv-x="1226" 
d="M390 475c0 -121.333 18.167 -219.833 54.5 -295.5s94.5 -113.5 174.5 -113.5c74.667 0 129.5 33.333 164.5 100s52.5 165.667 52.5 297c0 123.333 -18.5 220.5 -55.5 291.5s-94.833 106.5 -173.5 106.5c-73.333 0 -127.833 -32 -163.5 -96s-53.5 -160.667 -53.5 -290z
M1146 483c0 -152 -50.666 -275.167 -151.999 -369.5s-233.333 -141.5 -396 -141.5c-158 0 -284 44.5 -378 133.5s-141 205.5 -141 349.5c0 146 49.333 265.833 148 359.5s232 140.5 400 140.5c159.333 0 285.666 -43.167 378.999 -129.5s140 -200.5 140 -342.5z
M974.001 1332c-80 -146.667 -158.664 -220.002 -235.997 -220.002c-26 0 -50 5.16699 -72 15.5s-46.667 23.5 -74 39.5l-33.5 19.5c-9.66699 5.66699 -19 10.5 -28 14.5s-17.5 7 -25.5 9s-16.333 3 -25 3c-20.667 0 -39.334 -5.66699 -56.001 -17s-45.334 -39 -86.001 -83
l-53 44c48.667 78.667 90.167 134 124.5 166s70.166 48 107.499 48c20.667 0 40.334 -3.33301 59.001 -10c18.667 -7.33301 45 -20.666 79 -39.999l40 -22.5c11.333 -6.33301 21.666 -11.666 30.999 -15.999s18 -7.5 26 -9.5s16.667 -3 26 -3c22 0 40.667 5.5 56 16.5
s43.333 38.833 84 83.5zM194.004 929.998z" />
    <glyph glyph-name="odieresis" unicode="&#xf6;" horiz-adv-x="1226" 
d="M390 475c0 -121.333 18.167 -219.833 54.5 -295.5s94.5 -113.5 174.5 -113.5c74.667 0 129.5 33.333 164.5 100s52.5 165.667 52.5 297c0 123.333 -18.5 220.5 -55.5 291.5s-94.833 106.5 -173.5 106.5c-73.333 0 -127.833 -32 -163.5 -96s-53.5 -160.667 -53.5 -290z
M1146 483c0 -152 -50.666 -275.167 -151.999 -369.5s-233.333 -141.5 -396 -141.5c-158 0 -284 44.5 -378 133.5s-141 205.5 -141 349.5c0 146 49.333 265.833 148 359.5s232 140.5 400 140.5c159.333 0 285.666 -43.167 378.999 -129.5s140 -200.5 140 -342.5z
M542.001 1294c0 -42.667 -13.5 -76.832 -40.5 -102.499s-61.833 -38.5 -104.5 -38.5c-40 0 -72.833 12.167 -98.5 36.5s-38.5 56.166 -38.5 95.499c0 42.667 13.5 76.5 40.5 101.5s62.167 37.5 105.5 37.5c40 0 72.667 -11.5 98 -34.5s38 -54.833 38 -95.5zM968.001 1294
c0 -42.667 -13.5 -76.832 -40.5 -102.499s-61.833 -38.5 -104.5 -38.5c-40 0 -72.833 12.167 -98.5 36.5s-38.5 56.166 -38.5 95.499c0 42.667 13.5 76.5 40.5 101.5s62.167 37.5 105.5 37.5c40 0 72.667 -11.5 98 -34.5s38 -54.833 38 -95.5zM194.001 930.004z" />
    <glyph glyph-name="divide" unicode="&#xf7;" horiz-adv-x="1130" 
d="M566 916c35.333 0 64.333 -11 87 -33s34 -51 34 -87s-11.333 -65.167 -34 -87.5s-51.667 -33.5 -87 -33.5c-36.667 0 -66.167 11.167 -88.5 33.5s-33.5 51.5 -33.5 87.5s11.167 65 33.5 87s51.833 33 88.5 33zM83 532h964v-141h-964v141zM566 258
c35.333 0 64.333 -11 87 -33s34 -51 34 -87s-11.333 -65.167 -34 -87.5s-51.667 -33.5 -87 -33.5c-36.667 0 -66.167 11.167 -88.5 33.5s-33.5 51.5 -33.5 87.5s11.167 65 33.5 87s51.833 33 88.5 33z" />
    <glyph glyph-name="oslash" unicode="&#xf8;" horiz-adv-x="1226" 
d="M1146 483c0 -152 -50.667 -275.167 -152 -369.5s-233.333 -141.5 -396 -141.5c-101.333 0 -189.666 18 -264.999 54l-75 -97l-77 54l73 94c-116.667 92 -175 218 -175 378c0 146 49.333 265.833 148 359.5s232 140.5 400 140.5c103.333 0 192.666 -18.333 267.999 -55
l74 94l75 -52l-70 -90c114.667 -88 172 -211 172 -369zM385 475c0 -76.667 6.99902 -144 20.999 -202l378 484c-38 71.333 -97 107 -177 107c-75.333 0 -131.166 -32.167 -167.499 -96.5s-54.5 -161.833 -54.5 -292.5zM618.999 63c76.667 0 133 33.667 169 101
s54 167 54 299c0 72.667 -6.66699 136.667 -20 192l-377 -486c36.667 -70.667 94.667 -106 174 -106z" />
    <glyph glyph-name="ugrave" unicode="&#xf9;" horiz-adv-x="1284" 
d="M816 80c-98 -72 -204.665 -108 -319.998 -108c-108 0 -189.333 26.667 -244 80s-82 128.333 -82 225v212c0 142.667 -1.33301 247.667 -4 315l-143 37l-6 41c163.333 24.667 307.333 50.334 432 77.001l11 -8c-4 -83.333 -6 -186.333 -6 -309v-308
c0 -79.333 15.5 -136.833 46.5 -172.5s74.833 -53.5 131.5 -53.5c63.333 0 121.333 13.667 174 41v426c0 93.333 -1.33301 170.333 -4 231l-135 35l-6 41c158 24.667 299 50.334 423 77.001l12 -8c-4.66699 -85.333 -7 -190.333 -7 -315c0 -242 0.333008 -389.667 1 -443
c0.666992 -26.667 2.66699 -48.167 6 -64.5s9.66602 -28.833 18.999 -37.5s23.166 -14.834 41.499 -18.501s44.5 -5.83398 78.5 -6.50098l5 -44c-96 -33.333 -178.667 -50 -248 -50c-89.333 0 -148 36 -176 108zM681.002 1044h-84l-248 378h242zM200.002 930z" />
    <glyph glyph-name="uacute" unicode="&#xfa;" horiz-adv-x="1284" 
d="M816 80c-98 -72 -204.665 -108 -319.998 -108c-108 0 -189.333 26.667 -244 80s-82 128.333 -82 225v212c0 142.667 -1.33301 247.667 -4 315l-143 37l-6 41c163.333 24.667 307.333 50.334 432 77.001l11 -8c-4 -83.333 -6 -186.333 -6 -309v-308
c0 -79.333 15.5 -136.833 46.5 -172.5s74.833 -53.5 131.5 -53.5c63.333 0 121.333 13.667 174 41v426c0 93.333 -1.33301 170.333 -4 231l-135 35l-6 41c158 24.667 299 50.334 423 77.001l12 -8c-4.66699 -85.333 -7 -190.333 -7 -315c0 -242 0.333008 -389.667 1 -443
c0.666992 -26.667 2.66699 -48.167 6 -64.5s9.66602 -28.833 18.999 -37.5s23.166 -14.834 41.499 -18.501s44.5 -5.83398 78.5 -6.50098l5 -44c-96 -33.333 -178.667 -50 -248 -50c-89.333 0 -148 36 -176 108zM645.002 1422h242l-248 -378h-84zM200.002 930z" />
    <glyph glyph-name="ucircumflex" unicode="&#xfb;" horiz-adv-x="1284" 
d="M816 80c-98 -72 -204.665 -108 -319.998 -108c-108 0 -189.333 26.667 -244 80s-82 128.333 -82 225v212c0 142.667 -1.33301 247.667 -4 315l-143 37l-6 41c163.333 24.667 307.333 50.334 432 77.001l11 -8c-4 -83.333 -6 -186.333 -6 -309v-308
c0 -79.333 15.5 -136.833 46.5 -172.5s74.833 -53.5 131.5 -53.5c63.333 0 121.333 13.667 174 41v426c0 93.333 -1.33301 170.333 -4 231l-135 35l-6 41c158 24.667 299 50.334 423 77.001l12 -8c-4.66699 -85.333 -7 -190.333 -7 -315c0 -242 0.333008 -389.667 1 -443
c0.666992 -26.667 2.66699 -48.167 6 -64.5s9.66602 -28.833 18.999 -37.5s23.166 -14.834 41.499 -18.501s44.5 -5.83398 78.5 -6.50098l5 -44c-96 -33.333 -178.667 -50 -248 -50c-89.333 0 -148 36 -176 108zM922.002 1044h-90l-214 224l-214 -224h-90l200 378h208z
M200.002 930z" />
    <glyph glyph-name="udieresis" unicode="&#xfc;" horiz-adv-x="1284" 
d="M816 80c-98 -72 -204.665 -108 -319.998 -108c-108 0 -189.333 26.667 -244 80s-82 128.333 -82 225v212c0 142.667 -1.33301 247.667 -4 315l-143 37l-6 41c163.333 24.667 307.333 50.334 432 77.001l11 -8c-4 -83.333 -6 -186.333 -6 -309v-308
c0 -79.333 15.5 -136.833 46.5 -172.5s74.833 -53.5 131.5 -53.5c63.333 0 121.333 13.667 174 41v426c0 93.333 -1.33301 170.333 -4 231l-135 35l-6 41c158 24.667 299 50.334 423 77.001l12 -8c-4.66699 -85.333 -7 -190.333 -7 -315c0 -242 0.333008 -389.667 1 -443
c0.666992 -26.667 2.66699 -48.167 6 -64.5s9.66602 -28.833 18.999 -37.5s23.166 -14.834 41.499 -18.501s44.5 -5.83398 78.5 -6.50098l5 -44c-96 -33.333 -178.667 -50 -248 -50c-89.333 0 -148 36 -176 108zM548.002 1294c0 -42.667 -13.5 -76.832 -40.5 -102.499
s-61.833 -38.5 -104.5 -38.5c-40 0 -72.833 12.167 -98.5 36.5s-38.5 56.166 -38.5 95.499c0 42.667 13.5 76.5 40.5 101.5s62.167 37.5 105.5 37.5c40 0 72.667 -11.5 98 -34.5s38 -54.833 38 -95.5zM974.002 1294c0 -42.667 -13.5 -76.832 -40.5 -102.499
s-61.833 -38.5 -104.5 -38.5c-40 0 -72.833 12.167 -98.5 36.5s-38.5 56.166 -38.5 95.499c0 42.667 13.5 76.5 40.5 101.5s62.167 37.5 105.5 37.5c40 0 72.667 -11.5 98 -34.5s38 -54.833 38 -95.5zM200.002 930.004z" />
    <glyph glyph-name="yacute" unicode="&#xfd;" horiz-adv-x="1049" 
d="M-36 932c88.667 -2 169.002 -3 241.002 -3c93.333 0 192.666 1 297.999 3l5 -48l-125 -32l74 -187c23.333 -59.333 54.333 -134.333 93 -225c17.333 -38 36 -82.333 56 -133l61 155l149 392l-104 30l-5 48c52 -2 113.333 -3 184 -3c61.333 0 120 1 176 3l5 -48l-96 -26
c-21.333 -6.66699 -36.666 -20.334 -45.999 -41.001l-78 -184c-86.667 -207.333 -154 -379.333 -202 -516c-30.667 -88.667 -58.334 -179.167 -83.001 -271.5s-44.334 -173.5 -59.001 -243.5c-7.33301 -38 -21 -64 -41 -78s-65 -21 -135 -21
c-73.333 0 -143.333 2.66699 -210 8l-5 46c77.333 10 131.333 31.333 162 64c44 46 111.667 170 203 372l7 19l-53 15l-327 789c-8 20.667 -23 34.334 -45 41.001l-96 27zM580.002 1422h242l-248 -378h-84zM135.002 930z" />
    <glyph glyph-name="thorn" unicode="&#xfe;" horiz-adv-x="1247" 
d="M465 1499c-4 -99.333 -6.00098 -248.334 -6.00098 -447.001v-191c102 62.667 201.333 94 298 94c126.667 0 226.834 -42.167 300.501 -126.5s110.5 -194.5 110.5 -330.5c0 -161.333 -51.833 -289.333 -155.5 -384s-240.5 -142 -410.5 -142c-43.333 0 -91 4.66699 -143 14
v-211c0 -66 0.666992 -112.333 2 -139c1.33301 -20.667 10.333 -33 27 -37l141 -37l3 -48c-110.667 2 -214.667 3 -312 3c-99.333 0 -197 -1 -293 -3l-5 48l126 35c16 4 24.333 14 25 30c1.33301 49.333 2 123.333 2 222v508v593c0 147.333 -1.33301 280.333 -4 399l-147 40
l-6 41c166 24.667 311.333 50.334 436 77.001zM458.999 85.999c44 -10 88 -14.999 132 -14.999c90.667 0 158.5 33.667 203.5 101s67.5 163 67.5 287c0 113.333 -21 201.666 -63 264.999s-104 95 -186 95c-52 0 -103.333 -11 -154 -33v-700z" />
    <glyph glyph-name="ydieresis" unicode="&#xff;" horiz-adv-x="1049" 
d="M-36 932c88.667 -2 169.002 -3 241.002 -3c93.333 0 192.666 1 297.999 3l5 -48l-125 -32l74 -187c23.333 -59.333 54.333 -134.333 93 -225c17.333 -38 36 -82.333 56 -133l61 155l149 392l-104 30l-5 48c52 -2 113.333 -3 184 -3c61.333 0 120 1 176 3l5 -48l-96 -26
c-21.333 -6.66699 -36.666 -20.334 -45.999 -41.001l-78 -184c-86.667 -207.333 -154 -379.333 -202 -516c-30.667 -88.667 -58.334 -179.167 -83.001 -271.5s-44.334 -173.5 -59.001 -243.5c-7.33301 -38 -21 -64 -41 -78s-65 -21 -135 -21
c-73.333 0 -143.333 2.66699 -210 8l-5 46c77.333 10 131.333 31.333 162 64c44 46 111.667 170 203 372l7 19l-53 15l-327 789c-8 20.667 -23 34.334 -45 41.001l-96 27zM483.002 1294c0 -42.667 -13.5 -76.832 -40.5 -102.499s-61.833 -38.5 -104.5 -38.5
c-40 0 -72.833 12.167 -98.5 36.5s-38.5 56.166 -38.5 95.499c0 42.667 13.5 76.5 40.5 101.5s62.167 37.5 105.5 37.5c40 0 72.667 -11.5 98 -34.5s38 -54.833 38 -95.5zM909.002 1294c0 -42.667 -13.5 -76.832 -40.5 -102.499s-61.833 -38.5 -104.5 -38.5
c-40 0 -72.833 12.167 -98.5 36.5s-38.5 56.166 -38.5 95.499c0 42.667 13.5 76.5 40.5 101.5s62.167 37.5 105.5 37.5c40 0 72.667 -11.5 98 -34.5s38 -54.833 38 -95.5zM135.002 930.004z" />
    <glyph glyph-name="Amacron" unicode="&#x100;" horiz-adv-x="1371" 
d="M380 444l-70.999 -187.001c-14 -36.667 -24.833 -66.167 -32.5 -88.5s-11.5 -39.5 -11.5 -51.5c0 -11.333 3 -20 9 -26s15.333 -10.667 28 -14l96 -28l3 -52c-96.667 2 -175.334 3 -236.001 3c-63.333 0 -135.666 -1 -216.999 -3l-5 50l107 32
c25.333 7.33301 44 19.5 56 36.5s25.333 42.833 40 77.5l498 1213l108 16l431 -1216c16.667 -46.667 31.834 -78.167 45.501 -94.5s33.167 -28.166 58.5 -35.499l98 -29l3 -50c-90 2 -180.667 3 -272 3c-120.667 0 -238.334 -1 -353.001 -3l-5 50l99 29c13.333 4 23 9 29 15
s9 15 9 27c0 13.333 -3.33301 30.833 -10 52.5s-16.334 50.167 -29.001 85.5l-66 188h-410zM596.001 1018l-39 -108l-137 -362h334l-123 361zM414.001 1557v122h561v-122h-561zM275.001 1400z" />
    <glyph glyph-name="amacron" unicode="&#x101;" horiz-adv-x="1097" 
d="M635 445c-104.667 0 -179.333 -13.332 -224 -39.999s-67 -72.334 -67 -137.001c0 -58.667 15.833 -100.5 47.5 -125.5s69.167 -37.5 112.5 -37.5c49.333 0 92.333 12.667 129 38zM146.001 858.001c142 64.667 278.666 97.001 409.999 97.001
c120 0 209.833 -26.833 269.5 -80.5s89.167 -130.834 88.5 -231.501l-5 -416c-1.33301 -34 -0.666016 -61.333 2.00098 -82s8.83398 -36.5 18.501 -47.5s24 -18.833 43 -23.5s46.5 -7.33398 82.5 -8.00098l6 -46c-93.333 -32 -173.666 -48 -240.999 -48
c-90.667 0 -150.334 35.667 -179.001 107c-84.667 -71.333 -174.334 -107 -269.001 -107c-92.667 0 -169 23.167 -229 69.5s-90 111.5 -90 195.5c0 104.667 48.5 181.334 145.5 230.001s242.5 73 436.5 73l1 75c0.666992 71.333 -16.5 123.833 -51.5 157.5
s-89.5 50.5 -163.5 50.5c-68.667 0 -151 -15 -247 -45zM248 1184v122h573v-122h-573zM115 930.002z" />
    <glyph glyph-name="Abreve" unicode="&#x102;" horiz-adv-x="1371" 
d="M380 444l-70.999 -187.001c-14 -36.667 -24.833 -66.167 -32.5 -88.5s-11.5 -39.5 -11.5 -51.5c0 -11.333 3 -20 9 -26s15.333 -10.667 28 -14l96 -28l3 -52c-96.667 2 -175.334 3 -236.001 3c-63.333 0 -135.666 -1 -216.999 -3l-5 50l107 32
c25.333 7.33301 44 19.5 56 36.5s25.333 42.833 40 77.5l498 1213l108 16l431 -1216c16.667 -46.667 31.834 -78.167 45.501 -94.5s33.167 -28.166 58.5 -35.499l98 -29l3 -50c-90 2 -180.667 3 -272 3c-120.667 0 -238.334 -1 -353.001 -3l-5 50l99 29c13.333 4 23 9 29 15
s9 15 9 27c0 13.333 -3.33301 30.833 -10 52.5s-16.334 50.167 -29.001 85.5l-66 188h-410zM596.001 1018l-39 -108l-137 -362h334l-123 361zM481.001 1822c10 -53.333 33.6689 -94.333 71.002 -123s85.666 -43 144.999 -43c60 0 108.333 14 145 42s61.667 67 75 117l71 7
c0 -96 -26 -173.333 -78 -232s-125.333 -88 -220 -88c-88.667 0 -157.834 26 -207.501 78s-74.5 130.333 -74.5 235zM275.003 1400z" />
    <glyph glyph-name="abreve" unicode="&#x103;" horiz-adv-x="1097" 
d="M635 445c-104.667 0 -179.333 -13.332 -224 -39.999s-67 -72.334 -67 -137.001c0 -58.667 15.833 -100.5 47.5 -125.5s69.167 -37.5 112.5 -37.5c49.333 0 92.333 12.667 129 38zM146.001 858.001c142 64.667 278.666 97.001 409.999 97.001
c120 0 209.833 -26.833 269.5 -80.5s89.167 -130.834 88.5 -231.501l-5 -416c-1.33301 -34 -0.666016 -61.333 2.00098 -82s8.83398 -36.5 18.501 -47.5s24 -18.833 43 -23.5s46.5 -7.33398 82.5 -8.00098l6 -46c-93.333 -32 -173.666 -48 -240.999 -48
c-90.667 0 -150.334 35.667 -179.001 107c-84.667 -71.333 -174.334 -107 -269.001 -107c-92.667 0 -169 23.167 -229 69.5s-90 111.5 -90 195.5c0 104.667 48.5 181.334 145.5 230.001s242.5 73 436.5 73l1 75c0.666992 71.333 -16.5 123.833 -51.5 157.5
s-89.5 50.5 -163.5 50.5c-68.667 0 -151 -15 -247 -45zM336 1399c9.33301 -63.333 31.332 -111 65.999 -143s79.667 -48 135 -48c56 0 101 15.667 135 47s57.333 77 70 137l76 7c0 -105.333 -25.167 -190 -75.5 -254s-121.166 -96 -212.499 -96
c-85.333 0 -152 28.5 -200 85.5s-72 142.833 -72 257.5zM114.999 930.002z" />
    <glyph glyph-name="Aogonek" unicode="&#x104;" horiz-adv-x="1371" 
d="M1042 0c-77.333 0 -133.333 -19.833 -168 -59.5s-52 -87.834 -52 -144.501c0 -60 20.833 -105.167 62.5 -135.5s96.5 -45.5 164.5 -45.5c10 0 24 0.666992 42 2l7 -52c-106.667 -36.667 -194 -55 -262 -55c-84.667 0 -148 18.333 -190 55s-63 84.667 -63 144
c0 122.667 85 236 255 340c38 23.333 57 44.666 57 63.999c0 16.667 -3.33301 35.834 -10 57.501s-16.334 50.167 -29.001 85.5l-66 188h-410l-71 -187c-14 -36.667 -24.833 -66.167 -32.5 -88.5s-11.5 -39.5 -11.5 -51.5c0 -11.333 3 -20 9 -26s15.333 -10.667 28 -14
l96 -28l3 -52c-96.667 2 -175.334 3 -236.001 3c-63.333 0 -135.666 -1 -216.999 -3l-5 50l107 32c25.333 7.33301 44 19.5 56 36.5s25.333 42.833 40 77.5l498 1213l108 16l431 -1216c16.667 -46.667 31.834 -78.167 45.501 -94.5s33.167 -28.166 58.5 -35.499l98 -29
l3 -50c-90 2 -180.667 3 -272 3h-74zM596 1018l-39 -108l-137 -362h334l-123 361z" />
    <glyph glyph-name="aogonek" unicode="&#x105;" horiz-adv-x="1102" 
d="M146 858c142 64.667 278.666 96.999 409.999 96.999c120 0 209.833 -26.833 269.5 -80.5s89.167 -130.834 88.5 -231.501l-5 -416c-1.33301 -34 -0.666016 -61.333 2.00098 -82s8.83398 -36.5 18.501 -47.5s24 -18.833 43 -23.5s46.5 -7.33398 82.5 -8.00098l6 -46
c-62 -21.333 -118.333 -35.666 -169 -42.999c-68 -43.333 -102 -103.666 -102 -180.999c0 -60 20.833 -105.167 62.5 -135.5s96.5 -45.5 164.5 -45.5c10 0 24 0.666992 42 2l7 -52c-106.667 -36.667 -194 -55 -262 -55c-84.667 0 -148 17.5 -190 52.5s-63 82.167 -63 141.5
c0 96.667 69 188 207 274c-56 14 -95 47.667 -117 101c-84.667 -71.333 -174.334 -107 -269.001 -107c-92.667 0 -169 23.167 -229 69.5s-90 111.5 -90 195.5c0 104.667 48.5 181.334 145.5 230.001s242.5 73 436.5 73l1 75c0.666992 71.333 -16.5 123.833 -51.5 157.5
s-89.5 50.5 -163.5 50.5c-68.667 0 -151 -15 -247 -45zM634.999 444.999c-104.667 0 -179.333 -13.332 -224 -39.999s-67 -72.334 -67 -137.001c0 -58.667 15.833 -100.5 47.5 -125.5s69.167 -37.5 112.5 -37.5c49.333 0 92.333 12.667 129 38z" />
    <glyph glyph-name="Cacute" unicode="&#x106;" horiz-adv-x="1351" 
d="M1198 1022l-54.999 -9l-76 287c-52.667 16.667 -109.667 25 -171 25c-147.333 0 -261.333 -55.167 -342 -165.5s-121 -254.833 -121 -433.5c0 -190.667 47.5 -342.667 142.5 -456s226.833 -170 395.5 -170c94 0 193 19 297 57l13 -57
c-133.333 -90.667 -284 -136 -452 -136c-218 0 -394.167 65.667 -528.5 197s-201.5 304.333 -201.5 519c0 228.667 73.667 409.667 221 543s339.666 200 576.999 200c117.333 0 237.333 -13.667 360 -41l6 -10zM1127 1647l-475 -174l-31 52l350 275l156 -138v-15z
M425.001 1400z" />
    <glyph glyph-name="cacute" unicode="&#x107;" horiz-adv-x="992" 
d="M922 66c-110.667 -62.667 -225 -94.001 -343 -94.001c-146 0 -266 42.333 -360 127s-141 197.667 -141 339c0 154 51.167 278.667 153.5 374s232.833 143 391.5 143c100.667 0 197.667 -19 291 -57c-24 -94 -45 -192.667 -63 -296l-55 -9l-77 250
c-18 6.66699 -42.333 10 -73 10c-76 0 -138.333 -33.167 -187 -99.5s-73 -155.166 -73 -266.499c0 -130 30.833 -225.833 92.5 -287.5s149.5 -92.5 263.5 -92.5c54.667 0 112 6.33301 172 19zM620 1422h242l-248 -378h-84zM175 929.999z" />
    <glyph glyph-name="Ccircumflex" unicode="&#x108;" horiz-adv-x="1351" 
d="M1198 1022l-54.999 -9l-76 287c-52.667 16.667 -109.667 25 -171 25c-147.333 0 -261.333 -55.167 -342 -165.5s-121 -254.833 -121 -433.5c0 -190.667 47.5 -342.667 142.5 -456s226.833 -170 395.5 -170c94 0 193 19 297 57l13 -57
c-133.333 -90.667 -284 -136 -452 -136c-218 0 -394.167 65.667 -528.5 197s-201.5 304.333 -201.5 519c0 228.667 73.667 409.667 221 543s339.666 200 576.999 200c117.333 0 237.333 -13.667 360 -41l6 -10zM845.001 1620l-324 -147l-32 52l272 251h168l272 -251l-32 -52
zM425.001 1400z" />
    <glyph glyph-name="ccircumflex" unicode="&#x109;" horiz-adv-x="992" 
d="M922 66c-110.667 -62.667 -225 -94.001 -343 -94.001c-146 0 -266 42.333 -360 127s-141 197.667 -141 339c0 154 51.167 278.667 153.5 374s232.833 143 391.5 143c100.667 0 197.667 -19 291 -57c-24 -94 -45 -192.667 -63 -296l-55 -9l-77 250
c-18 6.66699 -42.333 10 -73 10c-76 0 -138.333 -33.167 -187 -99.5s-73 -155.166 -73 -266.499c0 -130 30.833 -225.833 92.5 -287.5s149.5 -92.5 263.5 -92.5c54.667 0 112 6.33301 172 19zM897 1044h-90l-214 224l-214 -224h-90l200 378h208zM175 929.999z" />
    <glyph glyph-name="Cdotaccent" unicode="&#x10a;" horiz-adv-x="1351" 
d="M1198 1022l-54.999 -9l-76 287c-52.667 16.667 -109.667 25 -171 25c-147.333 0 -261.333 -55.167 -342 -165.5s-121 -254.833 -121 -433.5c0 -190.667 47.5 -342.667 142.5 -456s226.833 -170 395.5 -170c94 0 193 19 297 57l13 -57
c-133.333 -90.667 -284 -136 -452 -136c-218 0 -394.167 65.667 -528.5 197s-201.5 304.333 -201.5 519c0 228.667 73.667 409.667 221 543s339.666 200 576.999 200c117.333 0 237.333 -13.667 360 -41l6 -10zM988.001 1660c0 -41.333 -13.667 -75.168 -41 -101.501
s-63 -39.5 -107 -39.5c-40.667 0 -74 12.333 -100 37s-39 57 -39 97c0 42.667 13.667 76.334 41 101.001s63 37 107 37c41.333 0 74.833 -11.333 100.5 -34s38.5 -55 38.5 -97zM425.001 1400z" />
    <glyph glyph-name="cdotaccent" unicode="&#x10b;" horiz-adv-x="992" 
d="M922 66c-110.667 -62.667 -225 -94.001 -343 -94.001c-146 0 -266 42.333 -360 127s-141 197.667 -141 339c0 154 51.167 278.667 153.5 374s232.833 143 391.5 143c100.667 0 197.667 -19 291 -57c-24 -94 -45 -192.667 -63 -296l-55 -9l-77 250
c-18 6.66699 -42.333 10 -73 10c-76 0 -138.333 -33.167 -187 -99.5s-73 -155.166 -73 -266.499c0 -130 30.833 -225.833 92.5 -287.5s149.5 -92.5 263.5 -92.5c54.667 0 112 6.33301 172 19zM744 1290c0 -45.333 -14.333 -82.002 -43 -110.002s-65.667 -42 -111 -42
c-42 0 -76.667 13.167 -104 39.5s-41 60.833 -41 103.5c0 46.667 14.333 83.334 43 110.001s66 40 112 40c42 0 76.5 -12.167 103.5 -36.5s40.5 -59.166 40.5 -104.499zM175 929.997z" />
    <glyph glyph-name="Ccaron" unicode="&#x10c;" horiz-adv-x="1351" 
d="M1198 1022l-54.999 -9l-76 287c-52.667 16.667 -109.667 25 -171 25c-147.333 0 -261.333 -55.167 -342 -165.5s-121 -254.833 -121 -433.5c0 -190.667 47.5 -342.667 142.5 -456s226.833 -170 395.5 -170c94 0 193 19 297 57l13 -57
c-133.333 -90.667 -284 -136 -452 -136c-218 0 -394.167 65.667 -528.5 197s-201.5 304.333 -201.5 519c0 228.667 73.667 409.667 221 543s339.666 200 576.999 200c117.333 0 237.333 -13.667 360 -41l6 -10zM845.001 1648l324 147l32 -52l-272 -251h-168l-272 251l32 52z
M425.001 1400z" />
    <glyph glyph-name="ccaron" unicode="&#x10d;" horiz-adv-x="992" 
d="M922 66c-110.667 -62.667 -225 -94.001 -343 -94.001c-146 0 -266 42.333 -360 127s-141 197.667 -141 339c0 154 51.167 278.667 153.5 374s232.833 143 391.5 143c100.667 0 197.667 -19 291 -57c-24 -94 -45 -192.667 -63 -296l-55 -9l-77 250
c-18 6.66699 -42.333 10 -73 10c-76 0 -138.333 -33.167 -187 -99.5s-73 -155.166 -73 -266.499c0 -130 30.833 -225.833 92.5 -287.5s149.5 -92.5 263.5 -92.5c54.667 0 112 6.33301 172 19zM293 1422h90l214 -224l214 224h90l-200 -378h-208zM175 929.999z" />
    <glyph glyph-name="Dcaron" unicode="&#x10e;" horiz-adv-x="1617" 
d="M358 0c-86 0 -174.666 -0.999023 -265.999 -2.99902l-5 50l134 37c17.333 5.33301 26.333 15.666 27 30.999c0.666992 26.667 1.16699 56.5 1.5 89.5s0.5 69.5 0.5 109.5v797c0 33.333 -0.166992 63.666 -0.5 90.999s-0.833008 52.333 -1.5 75
c-0.666992 17.333 -8.66699 28.333 -24 33l-134 39l-3 51c93.333 -2.66699 182.666 -4 267.999 -4c72 0 141 1.66699 207 5s134.333 5 205 5c248.667 0 435.667 -53.167 561 -159.5s188 -264.166 188 -473.499c0 -246.667 -69.5 -438.167 -208.5 -574.5
s-334.5 -204.5 -586.5 -204.5c-69.333 0 -131 1 -185 3s-113.333 3 -178 3zM550.001 102.001c32 -6 63.333 -9.83203 94 -11.499s61.667 -2.5 93 -2.5c144.667 0 254.667 51 330 153s113 257.333 113 466c0 203.333 -36 354.166 -108 452.499s-185.333 147.5 -340 147.5
c-57.333 0 -118 -2.66699 -182 -8v-1197zM757.001 1648l324 147l32 -52l-272 -251h-168l-272 251l32 52zM337.001 1400z" />
    <glyph glyph-name="dcaron" unicode="&#x10f;" horiz-adv-x="1412" 
d="M787 831c-36 12.667 -76.333 19 -121 19c-91.333 0 -161 -31.5 -209 -94.5s-72 -157.833 -72 -284.5c0 -110 21.333 -198 64 -264s102.667 -99 180 -99c57.333 0 110 12.333 158 37v686zM629 1430c162.667 24.667 308 50.333 436 77l12 -8
c-4.66699 -142.667 -7 -296 -7 -460v-544c0 -87.333 0.333008 -177.333 1 -270c0 -34 1.33301 -61.333 4 -82s8.5 -36.5 17.5 -47.5s22.833 -18.5 41.5 -22.5s46 -6.33301 82 -7l6 -44c-97.333 -33.333 -180.333 -50 -249 -50c-89.333 0 -148 36.333 -176 109
c-87.333 -72.667 -184 -109 -290 -109c-132 0 -236.333 43.5 -313 130.5s-115 195.833 -115 326.5c0 166.667 49.5 295.5 148.5 386.5s237.5 136.5 415.5 136.5c44 0 92 -3.66699 144 -11c0 140.667 -1.33301 276.667 -4 408l-147 40zM1176 1010
c72 72 108 142.001 108 210.001c0 61.333 -34.667 109.666 -104 144.999c0 36 11.5 64.667 34.5 86s53.167 32 90.5 32c40.667 0 73.667 -14.167 99 -42.5s38 -67.833 38 -118.5c0 -126.667 -75 -245 -225 -355zM1270 930z" />
    <glyph glyph-name="Dcroat" unicode="&#x110;" horiz-adv-x="1617" 
d="M358 0c-86 0 -174.666 -0.999023 -265.999 -2.99902l-5 50l134 37c17.333 5.33301 26.333 15.666 27 30.999c0.666992 26.667 1.16699 56.5 1.5 89.5s0.5 69.5 0.5 109.5v371h-160v106h160v320c0 33.333 -0.166992 63.666 -0.5 90.999s-0.833008 52.333 -1.5 75
c-0.666992 17.333 -8.66699 28.333 -24 33l-134 39l-3 51c93.333 -2.66699 182.666 -4 267.999 -4c72 0 141 1.66699 207 5s134.333 5 205 5c248.667 0 435.667 -53.167 561 -159.5s188 -264.166 188 -473.499c0 -246.667 -69.5 -438.167 -208.5 -574.5
s-334.5 -204.5 -586.5 -204.5c-69.333 0 -131 1 -185 3s-113.333 3 -178 3zM550.001 102.001c32 -6 63.333 -9.83203 94 -11.499s61.667 -2.5 93 -2.5c144.667 0 254.667 51 330 153s113 257.333 113 466c0 203.333 -36 354.166 -108 452.499s-185.333 147.5 -340 147.5
c-24 0 -51 -0.666992 -81 -2s-63.667 -3.33301 -101 -6v-508h273v-106h-273v-583z" />
    <glyph glyph-name="dcroat" unicode="&#x111;" horiz-adv-x="1269" 
d="M628 1430c162.667 24.667 307.998 50.334 435.998 77.001l12 -8c-3.33301 -98.667 -5.66602 -200 -6.99902 -304h158v-97h-158v-603c0 -87.333 0.333008 -177.333 1 -270c0 -34 1.33301 -61.333 4 -82s8.5 -36.5 17.5 -47.5s22.833 -18.5 41.5 -22.5
s44.334 -6.33301 77.001 -7l5 -44c-93.333 -33.333 -174.333 -50 -243 -50c-89.333 0 -148 36.333 -176 109c-87.333 -72.667 -184 -109 -290 -109c-132 0 -236.333 42.667 -313 128s-115 192 -115 320c0 163.333 49.5 289.333 148.5 378s237.5 133 415.5 133
c44 0 92 -3.66699 144 -11v178h-359v97h358c-0.666992 51.333 -1.66699 102.666 -3 153.999l-147 40zM785.998 811c-36 12 -76.333 18 -121 18c-91.333 0 -161 -30.5 -209 -91.5s-72 -153.167 -72 -276.5c0 -107.333 21.333 -193 64 -257s102.667 -96 180 -96
c57.333 0 110 12 158 36v667z" />
    <glyph glyph-name="Emacron" unicode="&#x112;" horiz-adv-x="1233" 
d="M353 1396l253 0.000976562c162 0 330 1.33301 504 4l7 -8l-62 -333l-54 -8l-64 243h-387v-531h54c58 0 120.333 0.666992 187 2c17.333 0.666992 28.666 9.66699 33.999 27l36 137l66 3c-2 -96.667 -3 -169 -3 -217c0 -46.667 1 -118 3 -214l-66 -5l-37 141
c-5.33301 18 -15.666 27.333 -30.999 28c-68 1.33301 -131.333 2 -190 2h-53v-343c0 -73.333 0.666992 -146 2 -218h400l126 263l61 9l-24 -374l-7 -7c-166 2 -327.667 3 -485 3h-265c-86 0 -174.667 -1 -266 -3l-5 50l134 37c16.667 4.66699 25.667 15 27 31
c0.666992 26.667 1.16699 56.5 1.5 89.5s0.5 69.5 0.5 109.5v797c0 33.333 -0.166992 63.666 -0.5 90.999s-0.833008 52.333 -1.5 75c-0.666992 17.333 -8.66699 28.333 -24 33l-134 39l-3 51c93.333 -2.66699 182 -4 266 -4zM356 1557v122h561v-122h-561zM217 1400z" />
    <glyph glyph-name="emacron" unicode="&#x113;" horiz-adv-x="1101" 
d="M1022 66c-123.333 -62.667 -253.333 -94 -390 -94c-162.667 0 -295.5 40.167 -398.5 120.5s-154.5 198.833 -154.5 355.5c0 149.333 49.5 271.166 148.5 365.499s225.167 141.5 378.5 141.5c134 0 237.5 -36.167 310.5 -108.5s109.5 -172.166 109.5 -299.499
c0 -19.333 -1 -39.333 -3 -60h-639c0 -134 32.833 -230.333 98.5 -289s173.5 -88 323.5 -88c72.667 0 142 6.33301 208 19zM722 584l0.000976562 24c0 90.667 -11.5 155.667 -34.5 195s-58.167 59 -105.5 59c-56.667 0 -101.834 -27.167 -135.501 -81.5
s-53.167 -119.833 -58.5 -196.5h334zM303.001 1184v122h573v-122h-573zM170.001 930z" />
    <glyph glyph-name="Ebreve" unicode="&#x114;" horiz-adv-x="1233" 
d="M353 1396l253 0.000976562c162 0 330 1.33301 504 4l7 -8l-62 -333l-54 -8l-64 243h-387v-531h54c58 0 120.333 0.666992 187 2c17.333 0.666992 28.666 9.66699 33.999 27l36 137l66 3c-2 -96.667 -3 -169 -3 -217c0 -46.667 1 -118 3 -214l-66 -5l-37 141
c-5.33301 18 -15.666 27.333 -30.999 28c-68 1.33301 -131.333 2 -190 2h-53v-343c0 -73.333 0.666992 -146 2 -218h400l126 263l61 9l-24 -374l-7 -7c-166 2 -327.667 3 -485 3h-265c-86 0 -174.667 -1 -266 -3l-5 50l134 37c16.667 4.66699 25.667 15 27 31
c0.666992 26.667 1.16699 56.5 1.5 89.5s0.5 69.5 0.5 109.5v797c0 33.333 -0.166992 63.666 -0.5 90.999s-0.833008 52.333 -1.5 75c-0.666992 17.333 -8.66699 28.333 -24 33l-134 39l-3 51c93.333 -2.66699 182 -4 266 -4zM423 1822
c10 -53.333 33.6689 -94.333 71.002 -123s85.666 -43 144.999 -43c60 0 108.333 14 145 42s61.667 67 75 117l71 7c0 -96 -26 -173.333 -78 -232s-125.333 -88 -220 -88c-88.667 0 -157.834 26 -207.501 78s-74.5 130.333 -74.5 235zM217.002 1400z" />
    <glyph glyph-name="ebreve" unicode="&#x115;" horiz-adv-x="1101" 
d="M1022 66c-123.333 -62.667 -253.333 -94 -390 -94c-162.667 0 -295.5 40.167 -398.5 120.5s-154.5 198.833 -154.5 355.5c0 149.333 49.5 271.166 148.5 365.499s225.167 141.5 378.5 141.5c134 0 237.5 -36.167 310.5 -108.5s109.5 -172.166 109.5 -299.499
c0 -19.333 -1 -39.333 -3 -60h-639c0 -134 32.833 -230.333 98.5 -289s173.5 -88 323.5 -88c72.667 0 142 6.33301 208 19zM722 584l0.000976562 24c0 90.667 -11.5 155.667 -34.5 195s-58.167 59 -105.5 59c-56.667 0 -101.834 -27.167 -135.501 -81.5
s-53.167 -119.833 -58.5 -196.5h334zM391.001 1399c9.33301 -63.333 31.332 -111 65.999 -143s79.667 -48 135 -48c56 0 101 15.667 135 47s57.333 77 70 137l76 7c0 -105.333 -25.167 -190 -75.5 -254s-121.166 -96 -212.499 -96c-85.333 0 -152 28.5 -200 85.5
s-72 142.833 -72 257.5zM170 930z" />
    <glyph glyph-name="Edotaccent" unicode="&#x116;" horiz-adv-x="1233" 
d="M353 1396l253 0.000976562c162 0 330 1.33301 504 4l7 -8l-62 -333l-54 -8l-64 243h-387v-531h54c58 0 120.333 0.666992 187 2c17.333 0.666992 28.666 9.66699 33.999 27l36 137l66 3c-2 -96.667 -3 -169 -3 -217c0 -46.667 1 -118 3 -214l-66 -5l-37 141
c-5.33301 18 -15.666 27.333 -30.999 28c-68 1.33301 -131.333 2 -190 2h-53v-343c0 -73.333 0.666992 -146 2 -218h400l126 263l61 9l-24 -374l-7 -7c-166 2 -327.667 3 -485 3h-265c-86 0 -174.667 -1 -266 -3l-5 50l134 37c16.667 4.66699 25.667 15 27 31
c0.666992 26.667 1.16699 56.5 1.5 89.5s0.5 69.5 0.5 109.5v797c0 33.333 -0.166992 63.666 -0.5 90.999s-0.833008 52.333 -1.5 75c-0.666992 17.333 -8.66699 28.333 -24 33l-134 39l-3 51c93.333 -2.66699 182 -4 266 -4zM780 1660
c0 -41.333 -13.667 -75.168 -41 -101.501s-63 -39.5 -107 -39.5c-40.667 0 -74 12.333 -100 37s-39 57 -39 97c0 42.667 13.667 76.334 41 101.001s63 37 107 37c41.333 0 74.833 -11.333 100.5 -34s38.5 -55 38.5 -97zM217 1400z" />
    <glyph glyph-name="edotaccent" unicode="&#x117;" horiz-adv-x="1101" 
d="M1022 66c-123.333 -62.667 -253.333 -94 -390 -94c-162.667 0 -295.5 40.167 -398.5 120.5s-154.5 198.833 -154.5 355.5c0 149.333 49.5 271.166 148.5 365.499s225.167 141.5 378.5 141.5c134 0 237.5 -36.167 310.5 -108.5s109.5 -172.166 109.5 -299.499
c0 -19.333 -1 -39.333 -3 -60h-639c0 -134 32.833 -230.333 98.5 -289s173.5 -88 323.5 -88c72.667 0 142 6.33301 208 19zM722 584l0.000976562 24c0 90.667 -11.5 155.667 -34.5 195s-58.167 59 -105.5 59c-56.667 0 -101.834 -27.167 -135.501 -81.5
s-53.167 -119.833 -58.5 -196.5h334zM739.001 1290c0 -45.333 -14.333 -82.002 -43 -110.002s-65.667 -42 -111 -42c-42 0 -76.667 13.167 -104 39.5s-41 60.833 -41 103.5c0 46.667 14.333 83.334 43 110.001s66 40 112 40c42 0 76.5 -12.167 103.5 -36.5
s40.5 -59.166 40.5 -104.499zM170.001 929.998z" />
    <glyph glyph-name="Eogonek" unicode="&#x118;" horiz-adv-x="1233" 
d="M353 1396l253 0.000976562c162 0 330 1.33301 504 4l7 -8l-62 -333l-54 -8l-64 243h-387v-531h54c58 0 120.333 0.666992 187 2c17.333 0.666992 28.666 9.66699 33.999 27l36 137l66 3c-2 -96.667 -3 -169 -3 -217c0 -46.667 1 -118 3 -214l-66 -5l-37 141
c-5.33301 18 -15.666 27.333 -30.999 28c-68 1.33301 -131.333 2 -190 2h-53v-343c0 -73.333 0.666992 -146 2 -218h400l126 263l61 9l-24 -374l-7 -7l-51 1c-63.333 0 -114.5 -19.5 -153.5 -58.5s-58.5 -86.833 -58.5 -143.5c0 -60 20.833 -105.167 62.5 -135.5
s96.5 -45.5 164.5 -45.5c9.33301 0 23.333 0.666992 42 2l7 -52c-107.333 -36.667 -195 -55 -263 -55c-84.667 0 -148 17.5 -190 52.5s-63 82.167 -63 141.5c0 104 81.667 202.667 245 296h-492c-86 0 -174.667 -1 -266 -3l-5 50l134 37c16.667 4.66699 25.667 15 27 31
c0.666992 26.667 1.16699 56.5 1.5 89.5s0.5 69.5 0.5 109.5v797c0 33.333 -0.166992 63.666 -0.5 90.999s-0.833008 52.333 -1.5 75c-0.666992 17.333 -8.66699 28.333 -24 33l-134 39l-3 51c93.333 -2.66699 182 -4 266 -4z" />
    <glyph glyph-name="eogonek" unicode="&#x119;" horiz-adv-x="1101" 
d="M1022 66c-28 -14.667 -57 -27.667 -87 -39c-123.333 -51.333 -185 -128.333 -185 -231c0 -60 20.833 -105.167 62.5 -135.5s96.5 -45.5 164.5 -45.5c10 0 24 0.666992 42 2l7 -52c-106.667 -36.667 -194 -55 -262 -55c-84.667 0 -148 17.5 -190 52.5
s-63 82.167 -63 141.5c0 95.333 68.333 186 205 272c-27.333 -2.66699 -54.666 -4 -81.999 -4c-162.667 0 -295.834 40.167 -399.501 120.5s-155.5 198.833 -155.5 355.5c0 149.333 49.5 271.166 148.5 365.499s225.167 141.5 378.5 141.5c134 0 237.5 -36.167 310.5 -108.5
s109.5 -172.166 109.5 -299.499c0 -19.333 -1 -39.333 -3 -60h-639c0 -134 32.833 -230.333 98.5 -289s173.5 -88 323.5 -88c72.667 0 142 6.33301 208 19zM722 584l0.000976562 24c0 90.667 -11.5 155.667 -34.5 195s-58.167 59 -105.5 59
c-56.667 0 -101.834 -27.167 -135.501 -81.5s-53.167 -119.833 -58.5 -196.5h334z" />
    <glyph glyph-name="Ecaron" unicode="&#x11a;" horiz-adv-x="1233" 
d="M353 1396l253 0.000976562c162 0 330 1.33301 504 4l7 -8l-62 -333l-54 -8l-64 243h-387v-531h54c58 0 120.333 0.666992 187 2c17.333 0.666992 28.666 9.66699 33.999 27l36 137l66 3c-2 -96.667 -3 -169 -3 -217c0 -46.667 1 -118 3 -214l-66 -5l-37 141
c-5.33301 18 -15.666 27.333 -30.999 28c-68 1.33301 -131.333 2 -190 2h-53v-343c0 -73.333 0.666992 -146 2 -218h400l126 263l61 9l-24 -374l-7 -7c-166 2 -327.667 3 -485 3h-265c-86 0 -174.667 -1 -266 -3l-5 50l134 37c16.667 4.66699 25.667 15 27 31
c0.666992 26.667 1.16699 56.5 1.5 89.5s0.5 69.5 0.5 109.5v797c0 33.333 -0.166992 63.666 -0.5 90.999s-0.833008 52.333 -1.5 75c-0.666992 17.333 -8.66699 28.333 -24 33l-134 39l-3 51c93.333 -2.66699 182 -4 266 -4zM637 1648l324 147l32 -52l-272 -251h-168
l-272 251l32 52zM217 1400z" />
    <glyph glyph-name="ecaron" unicode="&#x11b;" horiz-adv-x="1101" 
d="M1022 66c-123.333 -62.667 -253.333 -94 -390 -94c-162.667 0 -295.5 40.167 -398.5 120.5s-154.5 198.833 -154.5 355.5c0 149.333 49.5 271.166 148.5 365.499s225.167 141.5 378.5 141.5c134 0 237.5 -36.167 310.5 -108.5s109.5 -172.166 109.5 -299.499
c0 -19.333 -1 -39.333 -3 -60h-639c0 -134 32.833 -230.333 98.5 -289s173.5 -88 323.5 -88c72.667 0 142 6.33301 208 19zM722 584l0.000976562 24c0 90.667 -11.5 155.667 -34.5 195s-58.167 59 -105.5 59c-56.667 0 -101.834 -27.167 -135.501 -81.5
s-53.167 -119.833 -58.5 -196.5h334zM288.001 1422h90l214 -224l214 224h90l-200 -378h-208zM170.001 930z" />
    <glyph glyph-name="Gcircumflex" unicode="&#x11c;" horiz-adv-x="1516" 
d="M1230 1031l-56.002 -7.99805l-70 276c-56 18 -121.333 27 -196 27c-149.333 0 -265.833 -55.5 -349.5 -166.5s-125.5 -263.5 -125.5 -457.5c0 -202.667 42 -360.667 126 -474s201.667 -170 353 -170c36 0 74.667 3 116 9v263c0 33.333 -0.166992 63.666 -0.5 90.999
s-0.833008 52.333 -1.5 75c-0.666992 17.333 -9 28.333 -25 33l-136 39l-3 50c94.667 -2 197.334 -3 308.001 -3c114 0 211.667 1 293 3l6 -50l-119 -33c-16 -4.66699 -24.667 -14.667 -26 -30c-0.666992 -26.667 -1.16699 -53.834 -1.5 -81.501s-0.5 -57.5 -0.5 -89.5v-315
l-7 -7c-143.333 -32.667 -279.666 -49 -408.999 -49c-242.667 0 -437.834 62 -585.501 186s-221.5 297 -221.5 519c0 236 73.833 420.833 221.5 554.5s349.167 200.5 604.5 200.5c122.667 0 243.334 -13.667 362.001 -41l7 -9zM869.998 1620l-324 -147l-32 52l272 251h168
l272 -251l-32 -52zM449.998 1400z" />
    <glyph glyph-name="gcircumflex" unicode="&#x11d;" horiz-adv-x="1117" 
d="M1107 877l-231.999 -58.999c49.333 -56.667 74 -120.667 74 -192c0 -107.333 -38.833 -192.833 -116.5 -256.5s-179.834 -95.5 -306.501 -95.5c-78.667 0 -148 11.333 -208 34c-26 -47.333 -39 -86.666 -39 -117.999c0 -17.333 8.83301 -29 26.5 -35s54.167 -9 109.5 -9
c40 0 89 0.5 147 1.5s110.667 1.5 158 1.5c112.667 0 199.334 -20.833 260.001 -62.5s91 -104.834 91 -189.501c0 -124.667 -61.833 -224.5 -185.5 -299.5s-263.5 -112.5 -419.5 -112.5c-128.667 0 -230.5 19.167 -305.5 57.5s-112.5 87.833 -112.5 148.5
c0 78.667 52 160 156 244c-68.667 28 -103 69.333 -103 124c0 66 50.333 159.333 151 280c-101.333 59.333 -152 147.666 -152 264.999c0 104 38.833 187.667 116.5 251s182.5 95 314.5 95c34.667 0 81.667 -4 141 -12c57.333 -9.33301 101.666 -14 132.999 -14
c109.333 0 208 1 296 3zM291.001 -77.999c-32 -59.333 -47.998 -114.333 -47.998 -165c0 -52 24.167 -92.833 72.5 -122.5s114.166 -44.5 197.499 -44.5c100 0 186.667 19.5 260 58.5s110 91.5 110 157.5c0 36 -15 64.667 -45 86s-96 32 -198 32
c-40 0.666992 -83.333 0 -130 -2s-90 -3 -130 -3c-28.667 0 -58.334 1 -89.001 3zM384.003 621.001c0 -86.667 10.999 -153.666 32.999 -200.999s59.333 -71 112 -71c53.333 0 89.833 22.167 109.5 66.5s29.5 109.166 29.5 194.499c0 82 -10.667 146.667 -32 194
s-59.333 71 -114 71c-53.333 0 -89.666 -21.667 -108.999 -65s-29 -106.333 -29 -189zM842.002 1044h-90l-214 224l-214 -224h-90l200 378h208zM120.002 930.002z" />
    <glyph glyph-name="Gbreve" unicode="&#x11e;" horiz-adv-x="1516" 
d="M1230 1031l-56.002 -7.99805l-70 276c-56 18 -121.333 27 -196 27c-149.333 0 -265.833 -55.5 -349.5 -166.5s-125.5 -263.5 -125.5 -457.5c0 -202.667 42 -360.667 126 -474s201.667 -170 353 -170c36 0 74.667 3 116 9v263c0 33.333 -0.166992 63.666 -0.5 90.999
s-0.833008 52.333 -1.5 75c-0.666992 17.333 -9 28.333 -25 33l-136 39l-3 50c94.667 -2 197.334 -3 308.001 -3c114 0 211.667 1 293 3l6 -50l-119 -33c-16 -4.66699 -24.667 -14.667 -26 -30c-0.666992 -26.667 -1.16699 -53.834 -1.5 -81.501s-0.5 -57.5 -0.5 -89.5v-315
l-7 -7c-143.333 -32.667 -279.666 -49 -408.999 -49c-242.667 0 -437.834 62 -585.501 186s-221.5 297 -221.5 519c0 236 73.833 420.833 221.5 554.5s349.167 200.5 604.5 200.5c122.667 0 243.334 -13.667 362.001 -41l7 -9zM655.998 1822
c10 -53.333 33.6689 -94.333 71.002 -123s85.666 -43 144.999 -43c60 0 108.333 14 145 42s61.667 67 75 117l71 7c0 -96 -26 -173.333 -78 -232s-125.333 -88 -220 -88c-88.667 0 -157.834 26 -207.501 78s-74.5 130.333 -74.5 235zM450 1400z" />
    <glyph glyph-name="gbreve" unicode="&#x11f;" horiz-adv-x="1117" 
d="M1107 877l-231.999 -58.999c49.333 -56.667 74 -120.667 74 -192c0 -107.333 -38.833 -192.833 -116.5 -256.5s-179.834 -95.5 -306.501 -95.5c-78.667 0 -148 11.333 -208 34c-26 -47.333 -39 -86.666 -39 -117.999c0 -17.333 8.83301 -29 26.5 -35s54.167 -9 109.5 -9
c40 0 89 0.5 147 1.5s110.667 1.5 158 1.5c112.667 0 199.334 -20.833 260.001 -62.5s91 -104.834 91 -189.501c0 -124.667 -61.833 -224.5 -185.5 -299.5s-263.5 -112.5 -419.5 -112.5c-128.667 0 -230.5 19.167 -305.5 57.5s-112.5 87.833 -112.5 148.5
c0 78.667 52 160 156 244c-68.667 28 -103 69.333 -103 124c0 66 50.333 159.333 151 280c-101.333 59.333 -152 147.666 -152 264.999c0 104 38.833 187.667 116.5 251s182.5 95 314.5 95c34.667 0 81.667 -4 141 -12c57.333 -9.33301 101.666 -14 132.999 -14
c109.333 0 208 1 296 3zM291.001 -77.999c-32 -59.333 -47.998 -114.333 -47.998 -165c0 -52 24.167 -92.833 72.5 -122.5s114.166 -44.5 197.499 -44.5c100 0 186.667 19.5 260 58.5s110 91.5 110 157.5c0 36 -15 64.667 -45 86s-96 32 -198 32
c-40 0.666992 -83.333 0 -130 -2s-90 -3 -130 -3c-28.667 0 -58.334 1 -89.001 3zM384.003 621.001c0 -86.667 10.999 -153.666 32.999 -200.999s59.333 -71 112 -71c53.333 0 89.833 22.167 109.5 66.5s29.5 109.166 29.5 194.499c0 82 -10.667 146.667 -32 194
s-59.333 71 -114 71c-53.333 0 -89.666 -21.667 -108.999 -65s-29 -106.333 -29 -189zM341.002 1399c9.33301 -63.333 31.332 -111 65.999 -143s79.667 -48 135 -48c56 0 101 15.667 135 47s57.333 77 70 137l76 7c0 -105.333 -25.167 -190 -75.5 -254
s-121.166 -96 -212.499 -96c-85.333 0 -152 28.5 -200 85.5s-72 142.833 -72 257.5zM120.001 930.002z" />
    <glyph glyph-name="Gdotaccent" unicode="&#x120;" horiz-adv-x="1516" 
d="M1230 1031l-56.002 -7.99805l-70 276c-56 18 -121.333 27 -196 27c-149.333 0 -265.833 -55.5 -349.5 -166.5s-125.5 -263.5 -125.5 -457.5c0 -202.667 42 -360.667 126 -474s201.667 -170 353 -170c36 0 74.667 3 116 9v263c0 33.333 -0.166992 63.666 -0.5 90.999
s-0.833008 52.333 -1.5 75c-0.666992 17.333 -9 28.333 -25 33l-136 39l-3 50c94.667 -2 197.334 -3 308.001 -3c114 0 211.667 1 293 3l6 -50l-119 -33c-16 -4.66699 -24.667 -14.667 -26 -30c-0.666992 -26.667 -1.16699 -53.834 -1.5 -81.501s-0.5 -57.5 -0.5 -89.5v-315
l-7 -7c-143.333 -32.667 -279.666 -49 -408.999 -49c-242.667 0 -437.834 62 -585.501 186s-221.5 297 -221.5 519c0 236 73.833 420.833 221.5 554.5s349.167 200.5 604.5 200.5c122.667 0 243.334 -13.667 362.001 -41l7 -9zM1013 1660
c0 -41.333 -13.667 -75.168 -41 -101.501s-63 -39.5 -107 -39.5c-40.667 0 -74 12.333 -100 37s-39 57 -39 97c0 42.667 13.667 76.334 41 101.001s63 37 107 37c41.333 0 74.833 -11.333 100.5 -34s38.5 -55 38.5 -97zM449.998 1400z" />
    <glyph glyph-name="gdotaccent" unicode="&#x121;" horiz-adv-x="1117" 
d="M1107 877l-231.999 -58.999c49.333 -56.667 74 -120.667 74 -192c0 -107.333 -38.833 -192.833 -116.5 -256.5s-179.834 -95.5 -306.501 -95.5c-78.667 0 -148 11.333 -208 34c-26 -47.333 -39 -86.666 -39 -117.999c0 -17.333 8.83301 -29 26.5 -35s54.167 -9 109.5 -9
c40 0 89 0.5 147 1.5s110.667 1.5 158 1.5c112.667 0 199.334 -20.833 260.001 -62.5s91 -104.834 91 -189.501c0 -124.667 -61.833 -224.5 -185.5 -299.5s-263.5 -112.5 -419.5 -112.5c-128.667 0 -230.5 19.167 -305.5 57.5s-112.5 87.833 -112.5 148.5
c0 78.667 52 160 156 244c-68.667 28 -103 69.333 -103 124c0 66 50.333 159.333 151 280c-101.333 59.333 -152 147.666 -152 264.999c0 104 38.833 187.667 116.5 251s182.5 95 314.5 95c34.667 0 81.667 -4 141 -12c57.333 -9.33301 101.666 -14 132.999 -14
c109.333 0 208 1 296 3zM291.001 -77.999c-32 -59.333 -47.998 -114.333 -47.998 -165c0 -52 24.167 -92.833 72.5 -122.5s114.166 -44.5 197.499 -44.5c100 0 186.667 19.5 260 58.5s110 91.5 110 157.5c0 36 -15 64.667 -45 86s-96 32 -198 32
c-40 0.666992 -83.333 0 -130 -2s-90 -3 -130 -3c-28.667 0 -58.334 1 -89.001 3zM384.003 621.001c0 -86.667 10.999 -153.666 32.999 -200.999s59.333 -71 112 -71c53.333 0 89.833 22.167 109.5 66.5s29.5 109.166 29.5 194.499c0 82 -10.667 146.667 -32 194
s-59.333 71 -114 71c-53.333 0 -89.666 -21.667 -108.999 -65s-29 -106.333 -29 -189zM689.002 1290c0 -45.333 -14.333 -82.002 -43 -110.002s-65.667 -42 -111 -42c-42 0 -76.667 13.167 -104 39.5s-41 60.833 -41 103.5c0 46.667 14.333 83.334 43 110.001s66 40 112 40
c42 0 76.5 -12.167 103.5 -36.5s40.5 -59.166 40.5 -104.499zM120.002 930z" />
    <glyph glyph-name="Gcommaaccent" unicode="&#x122;" horiz-adv-x="1516" 
d="M1230 1031l-56.002 -7.99805l-70 276c-56 18 -121.333 27 -196 27c-149.333 0 -265.833 -55.5 -349.5 -166.5s-125.5 -263.5 -125.5 -457.5c0 -202.667 42 -360.667 126 -474s201.667 -170 353 -170c36 0 74.667 3 116 9v263c0 33.333 -0.166992 63.666 -0.5 90.999
s-0.833008 52.333 -1.5 75c-0.666992 17.333 -9 28.333 -25 33l-136 39l-3 50c94.667 -2 197.334 -3 308.001 -3c114 0 211.667 1 293 3l6 -50l-119 -33c-16 -4.66699 -24.667 -14.667 -26 -30c-0.666992 -26.667 -1.16699 -53.834 -1.5 -81.501s-0.5 -57.5 -0.5 -89.5v-315
l-7 -7c-143.333 -32.667 -279.666 -49 -408.999 -49c-242.667 0 -437.834 62 -585.501 186s-221.5 297 -221.5 519c0 236 73.833 420.833 221.5 554.5s349.167 200.5 604.5 200.5c122.667 0 243.334 -13.667 362.001 -41l7 -9zM725.998 -464.998
c64.667 54.667 97 111 97 169c0 48.667 -28.667 82.667 -86 102c0 16.667 3 32 9 46s14.333 26 25 36s23.167 17.833 37.5 23.5s29.5 8.5 45.5 8.5c38 0 68.5 -12 91.5 -36s34.5 -56 34.5 -96c0 -102.667 -71.667 -198.667 -215 -288z" />
    <glyph glyph-name="gcommaaccent" unicode="&#x123;" horiz-adv-x="1117" 
d="M1107 877l-231.999 -58.999c49.333 -56.667 74 -120.667 74 -192c0 -107.333 -38.833 -192.833 -116.5 -256.5s-179.834 -95.5 -306.501 -95.5c-78.667 0 -148 11.333 -208 34c-26 -47.333 -39 -86.666 -39 -117.999c0 -17.333 8.83301 -29 26.5 -35s54.167 -9 109.5 -9
c40 0 89 0.5 147 1.5s110.667 1.5 158 1.5c112.667 0 199.334 -20.833 260.001 -62.5s91 -104.834 91 -189.501c0 -124.667 -61.833 -224.5 -185.5 -299.5s-263.5 -112.5 -419.5 -112.5c-128.667 0 -230.5 19.167 -305.5 57.5s-112.5 87.833 -112.5 148.5
c0 78.667 52 160 156 244c-68.667 28 -103 69.333 -103 124c0 66 50.333 159.333 151 280c-101.333 59.333 -152 147.666 -152 264.999c0 104 38.833 187.667 116.5 251s182.5 95 314.5 95c34.667 0 81.667 -4 141 -12c57.333 -9.33301 101.666 -14 132.999 -14
c109.333 0 208 1 296 3zM291.001 -77.999c-32 -59.333 -47.998 -114.333 -47.998 -165c0 -52 24.167 -92.833 72.5 -122.5s114.166 -44.5 197.499 -44.5c100 0 186.667 19.5 260 58.5s110 91.5 110 157.5c0 36 -15 64.667 -45 86s-96 32 -198 32
c-40 0.666992 -83.333 0 -130 -2s-90 -3 -130 -3c-28.667 0 -58.334 1 -89.001 3zM384.003 621.001c0 -86.667 10.999 -153.666 32.999 -200.999s59.333 -71 112 -71c53.333 0 89.833 22.167 109.5 66.5s29.5 109.166 29.5 194.499c0 82 -10.667 146.667 -32 194
s-59.333 71 -114 71c-53.333 0 -89.666 -21.667 -108.999 -65s-29 -106.333 -29 -189zM668.002 1425c-64.667 -55.333 -97 -111.666 -97 -168.999c0 -49.333 28.667 -83.333 86 -102c0 -34 -11.333 -61.5 -34 -82.5s-50.334 -31.5 -83.001 -31.5
c-37.333 0 -67.666 12.167 -90.999 36.5s-35 56.166 -35 95.499c0 102.667 71.667 198.667 215 288zM961.002 932.002z" />
    <glyph glyph-name="Hcircumflex" unicode="&#x124;" horiz-adv-x="1695" 
d="M550 685l-0.00195312 -371c0 -78.667 0.666992 -144.334 2 -197.001c0.666992 -18.667 9.33398 -30.334 26.001 -35.001l116 -35l3 -50c-82.667 2 -180.334 3 -293.001 3c-115.333 0 -219.333 -1 -312 -3l-5 50l134 37c17.333 5.33301 26.333 15.666 27 30.999
c1.33301 54 2 120.333 2 199v797c0 66.667 -0.666992 122 -2 166c-0.666992 17.333 -8.66699 28.333 -24 33l-134 39l-3 51c92.667 -2.66699 195.334 -4 308.001 -4c116 0 214.667 1.33301 296 4l6 -51l-119 -34c-16.667 -4.66699 -25.334 -15 -26.001 -31
c-1.33301 -48 -2 -104.333 -2 -169v-324h596v324c0 64.667 -0.666992 121 -2 169c-0.666992 16 -9.33398 26.333 -26.001 31l-117 34l-3 51c84.667 -2.66699 184.667 -4 300 -4c112.667 0 214.334 1.33301 305.001 4l5 -51l-136 -39
c-15.333 -4.66699 -23.666 -15.667 -24.999 -33c-1.33301 -44 -2 -99.333 -2 -166v-797c0 -78.667 0.666992 -145 2 -199c1.33301 -15.333 10.666 -25.666 27.999 -30.999l130 -37l3 -50c-95.333 2 -200.666 3 -315.999 3c-112.667 0 -209 -1 -289 -3l-5 50l120 35
c16.667 4.66699 25.334 16.334 26.001 35.001c1.33301 52.667 2 118.334 2 197.001v371h-596zM846.998 1620l-324 -147l-32 52l272 251h168l272 -251l-32 -52zM426.998 1400z" />
    <glyph glyph-name="hcircumflex" unicode="&#x125;" horiz-adv-x="1305" 
d="M813 955c97.333 0 173.665 -26.501 228.998 -79.501s83 -128.167 83 -225.5v-351c0 -83.333 0.666992 -145 2 -185c0.666992 -18 9.33398 -29.333 26.001 -34l121 -35l3 -48c-95.333 2 -191.333 3 -288 3c-100 0 -190 -1 -270 -3l-4 48l100 30
c15.333 4.66699 23.666 14.667 24.999 30c0.666992 10 1 31 1 63v419c0 82 -16 140.833 -48 176.5s-79.667 53.5 -143 53.5c-55.333 0 -112.333 -12.667 -171 -38v-440c0 -83.333 0.666992 -159.666 2 -228.999c0.666992 -18 8.33398 -29 23.001 -33l104 -32l2 -48
c-82.667 2 -172.667 3 -270 3c-99.333 0 -197 -1 -293 -3l-5 48l129 35c14.667 4 22.334 14 23.001 30c0.666992 42.667 1 83.667 1 123v875c0 87.333 -1.33301 167.666 -4 240.999l-147 40l-6 41c166.667 24.667 312 50.334 436 77.001l11 -8c-4 -92 -6 -190 -6 -294v-351
c112.667 67.333 224 101 334 101zM325.999 1673l-324 -147l-32 52l272 251h168l272 -251l-32 -52zM-94.001 1453z" />
    <glyph glyph-name="Hbar" unicode="&#x126;" horiz-adv-x="1695" 
d="M550 674l-0.00195312 -360c0 -78.667 0.666992 -144.334 2 -197.001c0.666992 -18.667 9.33398 -30.334 26.001 -35.001l116 -35l3 -50c-82.667 2 -180.334 3 -293.001 3c-115.333 0 -219.333 -1 -312 -3l-5 50l134 37c17.333 5.33301 26.333 15.666 27 30.999
c1.33301 54 2 120.333 2 199v681h-164v104h164v12c0 66.667 -0.666992 122 -2 166c-0.666992 17.333 -8.66699 28.333 -24 33l-134 39l-3 51c92.667 -2.66699 195.334 -4 308.001 -4c116 0 214.667 1.33301 296 4l6 -51l-119 -34c-16.667 -4.66699 -25.334 -15 -26.001 -31
c-1.33301 -48 -2 -104.333 -2 -169v-16h596v16c0 64.667 -0.666992 121 -2 169c-0.666992 16 -9.33398 26.333 -26.001 31l-117 34l-3 51c84.667 -2.66699 184.667 -4 300 -4c112.667 0 214.334 1.33301 305.001 4l5 -51l-136 -39
c-15.333 -4.66699 -23.666 -15.667 -24.999 -33c-1.33301 -44 -2 -99.333 -2 -166v-12h163v-104h-163v-681c0 -78.667 0.666992 -145 2 -199c1.33301 -15.333 10.666 -25.666 27.999 -30.999l130 -37l3 -50c-95.333 2 -200.666 3 -315.999 3c-112.667 0 -209 -1 -289 -3
l-5 50l120 35c16.667 4.66699 25.334 16.334 26.001 35.001c1.33301 52.667 2 118.334 2 197.001v360h-596zM1146 780v215h-596v-215h596z" />
    <glyph glyph-name="hbar" unicode="&#x127;" horiz-adv-x="1305" 
d="M813 929c97.333 0 173.665 -26.501 228.998 -79.501s83 -128.167 83 -225.5v-325c0 -83.333 0.666992 -145 2 -185c0.666992 -18 9.33398 -29.333 26.001 -34l121 -35l3 -48c-95.333 2 -191.333 3 -288 3c-100 0 -190 -1 -270 -3l-4 48l100 30
c15.333 4.66699 23.666 14.667 24.999 30c0.666992 10 1 31 1 63v393c0 82 -16 140.833 -48 176.5s-79.667 53.5 -143 53.5c-55.333 0 -112.333 -12.667 -171 -38v-414c0 -83.333 0.666992 -159.666 2 -228.999c0.666992 -18 8.33398 -29 23.001 -33l104 -32l2 -48
c-82.667 2 -172.667 3 -270 3c-99.333 0 -197 -1 -293 -3l-5 48l129 35c14.667 4 22.334 14 23.001 30c0.666992 42.667 1 83.667 1 123v865h-172v97h172c0 43.333 -1.33301 94.666 -4 153.999l-147 40l-6 41c166.667 24.667 312 50.334 436 77.001l11 -8
c-4 -92 -6 -193.333 -6 -304h367v-97h-367v-271c112.667 68 224 102 334 102z" />
    <glyph glyph-name="Itilde" unicode="&#x128;" horiz-adv-x="800" 
d="M550 314c0 -40 0.166992 -76.332 0.5 -108.999s0.833008 -62 1.5 -88c0.666992 -17.333 12 -29 34 -35l123 -35l3 -50c-92.667 2 -195.334 3 -308.001 3c-116.667 0 -220.667 -1 -312 -3l-5 50l134 37c16.667 4.66699 25.667 15 27 31
c0.666992 26.667 1.16699 56.5 1.5 89.5s0.5 69.5 0.5 109.5v797c0 33.333 -0.166992 63.666 -0.5 90.999s-0.833008 52.333 -1.5 75c-0.666992 17.333 -8.66699 28.333 -24 33l-134 39l-3 51c92.667 -2.66699 195.334 -4 308.001 -4c116 0 220 1.33301 312 4l5 -51
l-134 -37c-16 -4 -24.667 -14 -26 -30c-0.666992 -24 -1.16699 -49.833 -1.5 -77.5s-0.5 -57.5 -0.5 -89.5v-801zM747 1736c-77.333 -142 -153.335 -213 -228.002 -213c-25.333 0 -48.666 5 -69.999 15s-45.333 22.667 -72 38l-32 19c-9.33301 5.33301 -18.333 10 -27 14
s-17 7 -25 9s-16 3 -24 3c-20 0 -38.167 -5.5 -54.5 -16.5s-44.166 -37.833 -83.499 -80.5l-51 43c47.333 76 87.5 129.5 120.5 160.5s67.833 46.5 104.5 46.5c20 0 39 -3.33301 57 -10c18 -7.33301 43.333 -20.333 76 -39l38.5 -21.5c11 -6.33301 21 -11.5 30 -15.5
s17.5 -7 25.5 -9s16.333 -3 25 -3c21.333 0 39.5 5.33301 54.5 16s42.167 37.667 81.5 81zM-19.002 1400z" />
    <glyph glyph-name="itilde" unicode="&#x129;" horiz-adv-x="679" 
d="M47 882c164 24.667 308.002 50.333 432.002 77l11 -8c-4 -92 -6 -190 -6 -294v-377c0 -79.333 0.666992 -134.666 2 -165.999c1.33301 -18 9.66602 -29.333 24.999 -34l125 -35l3 -48c-98.667 2 -196.667 3 -294 3c-99.333 0 -197.333 -1 -294 -3l-5 48l127 35
c15.333 4 23.666 14 24.999 30c1.33301 26 2 69.667 2 131v322c0 87.333 -1.33301 167.666 -4 240.999l-143 37zM691.002 1332c-80 -146.667 -158.664 -220.002 -235.997 -220.002c-26 0 -50 5.16699 -72 15.5s-46.667 23.5 -74 39.5l-33.5 19.5
c-9.66699 5.66699 -19 10.5 -28 14.5s-17.5 7 -25.5 9s-16.333 3 -25 3c-20.667 0 -39.334 -5.66699 -56.001 -17s-45.334 -39 -86.001 -83l-53 44c48.667 78.667 90.167 134 124.5 166s70.166 48 107.499 48c20.667 0 40.334 -3.33301 59.001 -10
c18.667 -7.33301 45 -20.666 79 -39.999l40 -22.5c11.333 -6.33301 21.666 -11.666 30.999 -15.999s18 -7.5 26 -9.5s16.667 -3 26 -3c22 0 40.667 5.5 56 16.5s43.333 38.833 84 83.5zM-88.9951 929.997z" />
    <glyph glyph-name="Imacron" unicode="&#x12a;" horiz-adv-x="800" 
d="M550 314c0 -40 0.166992 -76.332 0.5 -108.999s0.833008 -62 1.5 -88c0.666992 -17.333 12 -29 34 -35l123 -35l3 -50c-92.667 2 -195.334 3 -308.001 3c-116.667 0 -220.667 -1 -312 -3l-5 50l134 37c16.667 4.66699 25.667 15 27 31
c0.666992 26.667 1.16699 56.5 1.5 89.5s0.5 69.5 0.5 109.5v797c0 33.333 -0.166992 63.666 -0.5 90.999s-0.833008 52.333 -1.5 75c-0.666992 17.333 -8.66699 28.333 -24 33l-134 39l-3 51c92.667 -2.66699 195.334 -4 308.001 -4c116 0 220 1.33301 312 4l5 -51
l-134 -37c-16 -4 -24.667 -14 -26 -30c-0.666992 -24 -1.16699 -49.833 -1.5 -77.5s-0.5 -57.5 -0.5 -89.5v-801zM120 1557v122h561v-122h-561zM-19 1400z" />
    <glyph glyph-name="imacron" unicode="&#x12b;" horiz-adv-x="679" 
d="M47 882c164 24.667 308.002 50.333 432.002 77l11 -8c-4 -92 -6 -190 -6 -294v-377c0 -79.333 0.666992 -134.666 2 -165.999c1.33301 -18 9.66602 -29.333 24.999 -34l125 -35l3 -48c-98.667 2 -196.667 3 -294 3c-99.333 0 -197.333 -1 -294 -3l-5 48l127 35
c15.333 4 23.666 14 24.999 30c1.33301 26 2 69.667 2 131v322c0 87.333 -1.33301 167.666 -4 240.999l-143 37zM44.002 1184v122h573v-122h-573zM-88.998 929.999z" />
    <glyph glyph-name="Ibreve" unicode="&#x12c;" horiz-adv-x="800" 
d="M550 314c0 -40 0.166992 -76.332 0.5 -108.999s0.833008 -62 1.5 -88c0.666992 -17.333 12 -29 34 -35l123 -35l3 -50c-92.667 2 -195.334 3 -308.001 3c-116.667 0 -220.667 -1 -312 -3l-5 50l134 37c16.667 4.66699 25.667 15 27 31
c0.666992 26.667 1.16699 56.5 1.5 89.5s0.5 69.5 0.5 109.5v797c0 33.333 -0.166992 63.666 -0.5 90.999s-0.833008 52.333 -1.5 75c-0.666992 17.333 -8.66699 28.333 -24 33l-134 39l-3 51c92.667 -2.66699 195.334 -4 308.001 -4c116 0 220 1.33301 312 4l5 -51
l-134 -37c-16 -4 -24.667 -14 -26 -30c-0.666992 -24 -1.16699 -49.833 -1.5 -77.5s-0.5 -57.5 -0.5 -89.5v-801zM187 1822c10 -53.333 33.6689 -94.333 71.002 -123s85.666 -43 144.999 -43c60 0 108.333 14 145 42s61.667 67 75 117l71 7c0 -96 -26 -173.333 -78 -232
s-125.333 -88 -220 -88c-88.667 0 -157.834 26 -207.501 78s-74.5 130.333 -74.5 235zM-18.998 1400z" />
    <glyph glyph-name="ibreve" unicode="&#x12d;" horiz-adv-x="679" 
d="M47 882c164 24.667 308.002 50.333 432.002 77l11 -8c-4 -92 -6 -190 -6 -294v-377c0 -79.333 0.666992 -134.666 2 -165.999c1.33301 -18 9.66602 -29.333 24.999 -34l125 -35l3 -48c-98.667 2 -196.667 3 -294 3c-99.333 0 -197.333 -1 -294 -3l-5 48l127 35
c15.333 4 23.666 14 24.999 30c1.33301 26 2 69.667 2 131v322c0 87.333 -1.33301 167.666 -4 240.999l-143 37zM132.002 1399c9.33301 -63.333 31.332 -111 65.999 -143s79.667 -48 135 -48c56 0 101 15.667 135 47s57.333 77 70 137l76 7
c0 -105.333 -25.167 -190 -75.5 -254s-121.166 -96 -212.499 -96c-85.333 0 -152 28.5 -200 85.5s-72 142.833 -72 257.5zM-88.999 929.999z" />
    <glyph glyph-name="Iogonek" unicode="&#x12e;" horiz-adv-x="805" 
d="M550 314c0 -40 0.166016 -76.332 0.499023 -108.999s0.833008 -62 1.5 -88c0.666992 -17.333 12 -29 34 -35l123 -35l3 -50l-60 2c-61.333 0 -111.833 -19.667 -151.5 -59s-59.5 -87.333 -59.5 -144c0 -60 20.667 -105.167 62 -135.5s96 -45.5 164 -45.5
c10 0 24 0.666992 42 2l8 -52c-107.333 -36.667 -195 -55 -263 -55c-84.667 0 -148 17.5 -190 52.5s-63 82.167 -63 141.5c0 104 82 202.667 246 296h-43c-116.667 0 -220.667 -1 -312 -3l-5 50l134 37c16.667 4.66699 25.667 15 27 31
c0.666992 26.667 1.16699 56.5 1.5 89.5s0.5 69.5 0.5 109.5v797c0 33.333 -0.166992 63.666 -0.5 90.999s-0.833008 52.333 -1.5 75c-0.666992 17.333 -8.66699 28.333 -24 33l-134 39l-3 51c92.667 -2.66699 195.334 -4 308.001 -4c116 0 220 1.33301 312 4l5 -51
l-134 -37c-16 -4 -24.667 -14 -26 -30c-0.666992 -24 -1.16699 -49.833 -1.5 -77.5s-0.5 -57.5 -0.5 -89.5v-801z" />
    <glyph glyph-name="iogonek" unicode="&#x12f;" horiz-adv-x="640" 
d="M25 882c164 24.667 308.003 50.333 432.003 77l11 -8c-4 -92 -6 -190 -6 -294v-377c0 -79.333 0.666992 -134.666 2 -165.999c1.33301 -18 9.66602 -29.333 24.999 -34l125 -35l3 -48c-18.667 1.33301 -36.334 2 -53.001 2c-65.333 0 -118 -19.667 -158 -59
s-60 -87.333 -60 -144c0 -60 20.833 -105.167 62.5 -135.5s96.5 -45.5 164.5 -45.5c10 0 24 0.666992 42 2l8 -52c-107.333 -36.667 -195 -55 -263 -55c-84.667 0 -148 17.5 -190 52.5s-63 82.167 -63 141.5c0 104 82 202.667 246 296c-122.667 0 -230.667 -1 -324 -3l-5 48
l127 35c15.333 4 23.666 14 24.999 30c1.33301 26 2 69.667 2 131v322c0 87.333 -1.33301 167.666 -4 240.999l-143 37zM465.003 1289c0 -46 -14.833 -83.332 -44.5 -111.999s-68.5 -43 -116.5 -43c-44 0 -80.167 13.5 -108.5 40.5s-42.5 62.167 -42.5 105.5
c0 47.333 15 84.666 45 111.999s69 41 117 41c44 0 80 -12.5 108 -37.5s42 -60.5 42 -106.5z" />
    <glyph glyph-name="Idotaccent" unicode="&#x130;" horiz-adv-x="800" 
d="M550 314c0 -40 0.166992 -76.332 0.5 -108.999s0.833008 -62 1.5 -88c0.666992 -17.333 12 -29 34 -35l123 -35l3 -50c-92.667 2 -195.334 3 -308.001 3c-116.667 0 -220.667 -1 -312 -3l-5 50l134 37c16.667 4.66699 25.667 15 27 31
c0.666992 26.667 1.16699 56.5 1.5 89.5s0.5 69.5 0.5 109.5v797c0 33.333 -0.166992 63.666 -0.5 90.999s-0.833008 52.333 -1.5 75c-0.666992 17.333 -8.66699 28.333 -24 33l-134 39l-3 51c92.667 -2.66699 195.334 -4 308.001 -4c116 0 220 1.33301 312 4l5 -51
l-134 -37c-16 -4 -24.667 -14 -26 -30c-0.666992 -24 -1.16699 -49.833 -1.5 -77.5s-0.5 -57.5 -0.5 -89.5v-801zM544 1660c0 -41.333 -13.667 -75.168 -41 -101.501s-63 -39.5 -107 -39.5c-40.667 0 -74 12.333 -100 37s-39 57 -39 97c0 42.667 13.667 76.334 41 101.001
s63 37 107 37c41.333 0 74.833 -11.333 100.5 -34s38.5 -55 38.5 -97zM-19 1400z" />
    <glyph glyph-name="dotlessi" unicode="&#x131;" horiz-adv-x="679" 
d="M47 882c164 24.667 308.002 50.333 432.002 77l11 -8c-4 -92 -6 -190 -6 -294v-377c0 -79.333 0.666992 -134.666 2 -165.999c1.33301 -18 9.66602 -29.333 24.999 -34l125 -35l3 -48c-98.667 2 -196.667 3 -294 3c-99.333 0 -197.333 -1 -294 -3l-5 48l127 35
c15.333 4 23.666 14 24.999 30c1.33301 26 2 69.667 2 131v322c0 87.333 -1.33301 167.666 -4 240.999l-143 37z" />
    <glyph glyph-name="IJ" unicode="&#x132;" horiz-adv-x="1489" 
d="M550 314c0 -40 0.166992 -76.332 0.5 -108.999s0.833008 -62 1.5 -88c0.666992 -17.333 12 -29 34 -35l123 -35l3 -50c-92.667 2 -195.334 3 -308.001 3c-116.667 0 -220.667 -1 -312 -3l-5 50l134 37c16.667 4.66699 25.667 15 27 31
c0.666992 26.667 1.16699 56.5 1.5 89.5s0.5 69.5 0.5 109.5v797c0 33.333 -0.166992 63.666 -0.5 90.999s-0.833008 52.333 -1.5 75c-0.666992 17.333 -8.66699 28.333 -24 33l-134 39l-3 51c92.667 -2.66699 195.334 -4 308.001 -4c116 0 220 1.33301 312 4l5 -51
l-134 -37c-16 -4 -24.667 -14 -26 -30c-0.666992 -24 -1.16699 -49.833 -1.5 -77.5s-0.5 -57.5 -0.5 -89.5v-801zM816 1400c93.333 -2.66699 196.333 -3.99902 309 -3.99902c115.333 0 219.333 1.33301 312 4l5 -51l-134 -37c-16.667 -4 -25.667 -14 -27 -30
c-0.666992 -24 -1.16699 -49.833 -1.5 -77.5s-0.5 -57.5 -0.5 -89.5v-904c0 -66 -3 -125.667 -9 -179s-16.333 -101 -31 -143s-35 -79.5 -61 -112.5s-59.5 -62.5 -100.5 -88.5s-90.667 -49 -149 -69s-126.833 -37.333 -205.5 -52l-19 59c64.667 28.667 115 60.5 151 95.5
s63.333 74.833 82 119.5s30.5 95 35.5 151s7.5 119 7.5 189v930c0 33.333 -0.166992 63.666 -0.5 90.999s-0.833008 52.333 -1.5 75c-0.666992 17.333 -8.66699 28.333 -24 33l-135 39z" />
    <glyph glyph-name="ij" unicode="&#x133;" horiz-adv-x="1284" 
d="M487 1290c0 -46 -14.833 -83.332 -44.5 -111.999s-68.5 -43 -116.5 -43c-44 0 -80.167 13.5 -108.5 40.5s-42.5 62.167 -42.5 105.5c0 47.333 15 84.666 45 111.999s69 41 117 41c44 0 80 -12.5 108 -37.5s42 -60.5 42 -106.5zM47 882.001
c164 24.667 308.002 50.333 432.002 77l11 -8c-4 -92 -6 -190 -6 -294v-377c0 -79.333 0.666992 -134.666 2 -165.999c1.33301 -18 9.66602 -29.333 24.999 -34l125 -35l3 -48c-98.667 2 -196.667 3 -294 3c-99.333 0 -197.333 -1 -294 -3l-5 48l127 35
c15.333 4 23.666 14 24.999 30c1.33301 26 2 69.667 2 131v322c0 87.333 -1.33301 167.666 -4 240.999l-143 37zM672.002 882c164 24.667 307.667 50.333 431 77l12 -8c-4 -86.667 -6 -181.667 -6 -285v-535c0 -133.333 -36 -244.333 -108 -333s-177 -189.334 -315 -302.001
l-57 49c93.333 125.333 149.333 219 168 281s28 148 28 258v484c0 80.667 -1.33301 159.334 -4 236.001l-143 37zM1112 1290c0 -46 -14.834 -83.332 -44.501 -111.999s-68.5 -43 -116.5 -43c-44 0 -80.167 13.5 -108.5 40.5s-42.5 62.167 -42.5 105.5
c0 47.333 14.833 84.666 44.5 111.999s68.834 41 117.501 41c44 0 80 -12.5 108 -37.5s42 -60.5 42 -106.5z" />
    </font>
</defs>
</svg>
